<?xml version="1.0" encoding="UTF-8"?>
<svg id="Layer_2" data-name="Layer 2" xmlns="http://www.w3.org/2000/svg" xmlns:xlink="http://www.w3.org/1999/xlink" viewBox="0 0 493.06 357.87">
  <defs>
    <style>
      .cls-1 {
        fill: url(#linear-gradient);
      }

      .cls-1, .cls-2, .cls-3, .cls-4, .cls-5, .cls-6 {
        stroke-width: 0px;
      }

      .cls-2 {
        fill: none;
      }

      .cls-7 {
        clip-path: url(#clippath-1);
      }

      .cls-3 {
        fill: #fff;
      }

      .cls-4 {
        fill: url(#linear-gradient-2);
      }

      .cls-5 {
        fill: url(#linear-gradient-3);
      }

      .cls-8 {
        clip-path: url(#clippath);
      }

      .cls-6 {
        fill: url(#linear-gradient-4);
      }
    </style>
    <linearGradient id="linear-gradient" x1="0" y1="278.61" x2="127.92" y2="278.61" gradientUnits="userSpaceOnUse">
      <stop offset="0" stop-color="#58c2b0"/>
      <stop offset=".32" stop-color="#4685b6"/>
      <stop offset=".72" stop-color="#3cc0c6"/>
      <stop offset="1" stop-color="#199ba0"/>
    </linearGradient>
    <linearGradient id="linear-gradient-2" x1="281.41" y1="356.18" x2="351.63" y2="285.95" xlink:href="#linear-gradient"/>
    <clipPath id="clippath">
      <rect class="cls-2" x="9.72" y="206.32" width="108.47" height="144.56" rx="15.06" ry="15.06"/>
    </clipPath>
    <linearGradient id="linear-gradient-3" x1="365.14" y1="79.26" x2="493.06" y2="79.26" xlink:href="#linear-gradient"/>
    <linearGradient id="linear-gradient-4" x1="153.33" y1="139.24" x2="210.09" y2="82.48" xlink:href="#linear-gradient"/>
    <clipPath id="clippath-1">
      <rect class="cls-2" x="374.86" y="6.98" width="108.47" height="144.56" rx="15.06" ry="15.06"/>
    </clipPath>
  </defs>
  <g id="Layer_1-2" data-name="Layer 1">
    <g>
      <g>
        <path class="cls-1" d="m94.62,357.87c-.8,0-1.62-.06-2.43-.17l-77.55-11.12c-9.31-1.34-15.81-10-14.47-19.31l16.24-113.27c1.34-9.31,10-15.81,19.31-14.47l77.55,11.12c9.31,1.34,15.81,10,14.47,19.31l-16.24,113.27c-1.22,8.5-8.54,14.65-16.88,14.65Zm-1.87-4.13c7.13,1.02,13.76-3.95,14.79-11.08l16.24-113.27c.5-3.45-.38-6.9-2.48-9.69s-5.15-4.6-8.6-5.1l-77.55-11.12c-7.13-1.02-13.76,3.95-14.79,11.08l-16.24,113.27c-.5,3.45.38,6.9,2.48,9.69,2.09,2.79,5.15,4.6,8.6,5.1l77.55,11.12Z"/>
        <g>
          <path class="cls-3" d="m144.19,308.38v.5h6.53v-.5l-.46-.24c-.5-.31-.96-.86-1.2-1.39l-5.93-15.27h-2.83v.48l.02.02c.38.46.5,1.08.29,1.63l-5.26,13.13c-.19.53-.7,1.08-1.18,1.37l-.46.26v.5h3.86v-.5l-.22-.14c-.43-.36-.58-.96-.38-1.49l.58-1.42h6.67l.55,1.42c.24.53.05,1.13-.38,1.49l-.22.14Zm-6.02-4.54l2.78-7.01,2.74,7.01h-5.52Z"/>
          <path class="cls-3" d="m158.01,308.38l-.24-.17c-.43-.36-.77-.96-.77-1.54v-5.98c.17-1.58.98-2.62,2.11-2.62,1.2,0,1.87,1.06,1.87,2.81v5.47c0,1.9.96,2.76,2.54,2.76,1.8,0,2.69-1.13,2.69-1.73-.22.34-.58.34-.58.34-.48,0-.67-.24-.67-.86v-6.22c0-2.66-1.39-4.46-3.96-4.46-1.7,0-3.14.82-4.01,2.16v-1.9h-.98l-3.98.74v.5l.22.17c.48.34.79.96.79,1.54v7.27c0,.58-.31,1.18-.79,1.54l-.22.17v.5h5.98v-.5Z"/>
          <path class="cls-3" d="m170.63,295.8c1.27,0,2.3-1.03,2.3-2.28s-1.03-2.3-2.3-2.3-2.28,1.06-2.28,2.3,1.03,2.28,2.28,2.28Z"/>
          <path class="cls-3" d="m173.63,308.38l-.24-.17c-.43-.36-.77-.96-.77-1.54v-10.23h-.98l-3.98.74v.5l.22.17c.48.34.79.96.79,1.54v7.27c0,.58-.31,1.18-.79,1.54l-.22.17v.5h5.98v-.5Z"/>
          <path class="cls-3" d="m180.62,309.13c3.26,0,5.21-1.34,5.21-3.6,0-4.03-6.22-4.66-6.22-6.89,0-.7.62-1.27,1.73-1.27.7,0,1.34.22,1.54.43-.38.29-.62.79-.62,1.32,0,.94.74,1.68,1.7,1.68s1.68-.74,1.68-1.73c0-1.42-1.58-2.88-4.73-2.88s-5.09,1.37-5.09,3.53c0,3.7,6.19,4.46,6.19,6.77,0,.77-.65,1.32-2.09,1.32-.91,0-1.34-.22-1.58-.38.41-.36.7-.86.7-1.46,0-1.06-.86-1.92-1.9-1.92s-1.92.86-1.92,1.97c0,1.63,1.94,3.12,5.4,3.12Z"/>
          <path class="cls-3" d="m197.56,309.13c1.8,0,2.66-1.13,2.66-1.73-.19.34-.55.34-.55.34-.48,0-.67-.24-.67-.86v-6c0-3.74-3.02-4.68-5.71-4.68-3.02,0-4.83,1.18-4.83,2.83,0,1.1.84,1.94,1.9,1.94s1.9-.84,1.9-1.85c0-.6-.29-1.13-.7-1.46.12-.1.36-.17.7-.17.84,0,2.11.53,2.59,2.11-.17,1.99-7.2,1.51-7.2,5.93,0,2.16,1.7,3.6,3.91,3.6,1.44,0,2.74-.62,3.53-1.82.26,1.22,1.18,1.82,2.47,1.82Zm-2.54-4.82c-.14,1.42-1.01,2.35-1.87,2.35-.77,0-1.51-.74-1.51-1.94,0-2.06,2.18-2.47,3.38-3.34v2.93Z"/>
          <path class="cls-3" d="m208.84,291.48l-.5,3.96h.5l.17-.31c.65-1.3,2.04-2.16,3.48-2.16h1.08v13.71c0,.58-.34,1.18-.79,1.54l-.22.17v.5h5.98v-.5l-.22-.17c-.48-.36-.79-.96-.79-1.54v-13.71h1.06c1.46,0,2.86.86,3.5,2.16l.14.31h.5l-.5-3.96h-13.39Z"/>
          <path class="cls-3" d="m229.41,308.38l-.24-.17c-.43-.36-.77-.96-.77-1.54v-7.1c.05-.84.36-1.22.74-1.3-.12,1.42.55,1.99,1.01,2.26.38.22.84.34,1.32.34.82,0,1.63-.36,2.11-1.15.91-1.63-.24-3.53-2.42-3.53-1.08,0-2.09.48-2.76,1.27v-1.01h-.98l-3.98.74v.5l.22.17c.48.34.79.96.79,1.54v7.27c0,.58-.31,1.18-.79,1.54l-.22.17v.5h5.98v-.5Z"/>
          <path class="cls-3" d="m241.22,308.38l-.24-.17c-.43-.36-.77-.96-.77-1.54v-10.23h-.98l-3.98.74v.5l.22.17c.48.34.79.96.79,1.54v7.27c0,.58-.31,1.18-.79,1.54l-.22.17v.5h5.98v-.5Z"/>
          <path class="cls-3" d="m238.22,295.8c1.27,0,2.3-1.03,2.3-2.28s-1.03-2.3-2.3-2.3-2.28,1.06-2.28,2.3,1.03,2.28,2.28,2.28Z"/>
          <path class="cls-3" d="m260.2,308.21l-.22.17v.5h5.95v-.5l-.19-.17c-.48-.36-.79-.96-.79-1.54v-12.99c0-.58.31-1.2.79-1.54l.19-.19v-.48h-5.95v.48l.22.19c.48.34.77.96.77,1.54v5.74h-5.95v-5.74c0-.58.34-1.2.77-1.54l.24-.19v-.48h-5.98v.48l.22.19c.48.34.79.96.79,1.54v12.99c0,.58-.31,1.18-.79,1.54l-.22.17v.5h5.98v-.5l-.24-.17c-.43-.36-.77-.96-.77-1.54v-5.76h5.95v5.76c0,.58-.29,1.18-.77,1.54Z"/>
          <path class="cls-3" d="m277.6,309.13c1.8,0,2.66-1.13,2.66-1.73-.19.34-.55.34-.55.34-.48,0-.67-.24-.67-.86v-6c0-3.74-3.02-4.68-5.71-4.68-3.02,0-4.83,1.18-4.83,2.83,0,1.1.84,1.94,1.9,1.94s1.9-.84,1.9-1.85c0-.6-.29-1.13-.7-1.46.12-.1.36-.17.7-.17.84,0,2.11.53,2.59,2.11-.17,1.99-7.2,1.51-7.2,5.93,0,2.16,1.7,3.6,3.91,3.6,1.44,0,2.74-.62,3.53-1.82.26,1.22,1.18,1.82,2.47,1.82Zm-2.54-4.82c-.14,1.42-1.01,2.35-1.87,2.35-.77,0-1.51-.74-1.51-1.94,0-2.06,2.18-2.47,3.38-3.34v2.93Z"/>
          <path class="cls-3" d="m295.34,307.73c-.48,0-.67-.24-.67-.86v-6.22c0-2.66-1.39-4.46-3.96-4.46-1.7,0-3.14.82-4.01,2.16v-1.9h-.98l-3.98.74v.5l.22.17c.48.34.79.96.79,1.54v7.27c0,.58-.31,1.18-.79,1.54l-.22.17v.5h5.98v-.5l-.24-.17c-.43-.36-.77-.96-.77-1.54v-5.98c.17-1.58.98-2.62,2.11-2.62,1.2,0,1.87,1.06,1.87,2.81v5.47c0,1.9.96,2.76,2.54,2.76,1.8,0,2.69-1.13,2.69-1.73-.22.34-.58.34-.58.34Z"/>
          <path class="cls-3" d="m311.44,307.4c-.22.34-.58.34-.58.34-.48,0-.67-.24-.67-.86v-15.39h-1.01l-3.96.74v.48l.22.19c.48.34.77.96.77,1.54v2.88c-.7-.7-1.66-1.13-3.05-1.13-3.5,0-5.9,2.62-5.9,6.53s2.3,6.41,5.66,6.41c1.61,0,2.69-.58,3.43-1.56.36,1.08,1.2,1.56,2.4,1.56,1.8,0,2.69-1.13,2.69-1.73Zm-5.23-4.06c-.14,2.62-1.13,4.3-2.52,4.3-1.46,0-2.45-1.94-2.45-5.04,0-2.9.86-4.9,2.4-4.9,1.42,0,2.42,1.66,2.57,4.3v1.34Z"/>
          <path class="cls-3" d="m324.95,307.73c-.48,0-.67-.24-.67-.86v-6c0-3.74-3.02-4.68-5.71-4.68-3.02,0-4.83,1.18-4.83,2.83,0,1.1.84,1.94,1.9,1.94s1.9-.84,1.9-1.85c0-.6-.29-1.13-.7-1.46.12-.1.36-.17.7-.17.84,0,2.11.53,2.59,2.11-.17,1.99-7.2,1.51-7.2,5.93,0,2.16,1.7,3.6,3.91,3.6,1.44,0,2.74-.62,3.53-1.82.26,1.22,1.18,1.82,2.47,1.82,1.8,0,2.66-1.13,2.66-1.73-.19.34-.55.34-.55.34Zm-4.66-3.43c-.14,1.42-1.01,2.35-1.87,2.35-.77,0-1.51-.74-1.51-1.94,0-2.06,2.18-2.47,3.38-3.34v2.93Z"/>
          <path class="cls-3" d="m338.06,300.29c.19-4.01-1.03-4.61-1.97-4.61-1.1,0-1.9.77-1.9,1.7,0,1.08,1.06,1.94,2.42,1.78.07,4.87-1.46,8.09-3.79,8.09-1.27,0-1.58-1.01-1.58-3.31v-7.49h-4.97v.5l.22.17c.48.34.77.96.77,1.54v5.52c0,3.07,1.61,4.94,4.13,4.94,1.2,0,2.33-.43,3.26-1.2-1.44,2.62-3.43,5.09-5.09,5.09-.26,0-.43-.05-.53-.14.41-.36.72-.89.72-1.51,0-1.08-.89-1.94-1.97-1.94s-1.94.86-1.94,2.18c0,1.58,1.3,2.76,3.36,2.76,4.54,0,8.47-7.25,8.86-14.07Z"/>
          <path class="cls-3" d="m352.48,307.4c-.19.34-.55.34-.55.34-.48,0-.67-.24-.67-.86v-6c0-3.74-3.02-4.68-5.71-4.68-3.02,0-4.83,1.18-4.83,2.83,0,1.1.84,1.94,1.9,1.94s1.9-.84,1.9-1.85c0-.6-.29-1.13-.7-1.46.12-.1.36-.17.7-.17.84,0,2.11.53,2.59,2.11-.17,1.99-7.2,1.51-7.2,5.93,0,2.16,1.7,3.6,3.91,3.6,1.44,0,2.74-.62,3.53-1.82.26,1.22,1.18,1.82,2.47,1.82,1.8,0,2.66-1.13,2.66-1.73Zm-5.21-3.1c-.14,1.42-1.01,2.35-1.87,2.35-.77,0-1.51-.74-1.51-1.94,0-2.06,2.18-2.47,3.38-3.34v2.93Z"/>
          <path class="cls-3" d="m368.13,307.4c-.22.34-.58.34-.58.34-.48,0-.67-.24-.67-.86v-6.22c0-2.66-1.39-4.46-3.96-4.46-1.7,0-3.14.82-4.01,2.16v-1.9h-.98l-3.98.74v.5l.22.17c.48.34.79.96.79,1.54v7.27c0,.58-.31,1.18-.79,1.54l-.22.17v.5h5.98v-.5l-.24-.17c-.43-.36-.77-.96-.77-1.54v-5.98c.17-1.58.98-2.62,2.11-2.62,1.2,0,1.87,1.06,1.87,2.81v5.47c0,1.9.96,2.76,2.54,2.76,1.8,0,2.69-1.13,2.69-1.73Z"/>
          <path class="cls-3" d="m374.53,306.68v-10.23h-.98l-3.98.74v.5l.22.17c.48.34.79.96.79,1.54v7.27c0,.58-.31,1.18-.79,1.54l-.22.17v.5h5.98v-.5l-.24-.17c-.43-.36-.77-.96-.77-1.54Z"/>
          <path class="cls-3" d="m372.54,295.8c1.27,0,2.3-1.03,2.3-2.28s-1.03-2.3-2.3-2.3-2.28,1.06-2.28,2.3,1.03,2.28,2.28,2.28Z"/>
          <path class="cls-3" d="m138.86,327.46c.74,0,1.38-.12,1.91-.37.53-.24.94-.59,1.23-1.03.29-.44.43-.97.43-1.59s-.14-1.16-.43-1.61c-.29-.45-.7-.79-1.23-1.03-.53-.24-1.17-.35-1.91-.35h-3.46v8.4h1.56v-2.42h1.9Zm-1.9-4.66h1.82c.69,0,1.21.15,1.55.44s.52.7.52,1.23-.17.94-.52,1.23c-.35.29-.87.44-1.55.44h-1.82v-3.34Z"/>
          <path class="cls-3" d="m145.84,329.66c.42.2.9.31,1.44.31.5,0,.95-.11,1.37-.34.28-.15.5-.37.7-.6v.86h1.43v-6.41h-1.5v3.24c0,.42-.07.78-.22,1.07s-.35.5-.61.65c-.26.14-.57.22-.92.22-.47,0-.84-.14-1.1-.43-.26-.28-.4-.71-.4-1.28v-3.47h-1.51v3.66c0,.64.12,1.17.35,1.59.24.42.56.73.98.94Z"/>
          <path class="cls-3" d="m154.12,329.42c.38.36.93.55,1.63.55.26,0,.52-.04.78-.11.26-.07.48-.18.66-.32l-.43-1.07c-.22.18-.49.26-.82.26-.29,0-.51-.08-.67-.25s-.24-.4-.24-.71v-3.05h1.73v-1.2h-1.73v-1.46h-1.49v1.46h-1.06v1.2h1.06v3.1c0,.7.19,1.24.58,1.6Z"/>
          <path class="cls-3" d="m162.56,324.8c.06,0,.11.01.17.02v-1.43c-.6,0-1.11.11-1.52.34-.32.18-.55.43-.73.73v-.98h-1.43v6.41h1.49v-3.1c0-.67.17-1.17.5-1.5.34-.33.79-.49,1.37-.49.05,0,.1,0,.16,0Z"/>
          <path class="cls-3" d="m165.37,320.62c-.28,0-.51.09-.69.26-.18.18-.27.38-.27.62,0,.26.09.47.27.65.18.18.41.26.69.26s.52-.09.7-.27c.18-.18.26-.4.26-.65s-.09-.47-.27-.63c-.18-.16-.41-.25-.69-.25Z"/>
          <rect class="cls-3" x="164.62" y="323.48" width="1.49" height="6.41"/>
          <path class="cls-3" d="m178.87,329.89v-8.9h-1.51v3.27c-.18-.2-.38-.38-.61-.51-.42-.24-.9-.35-1.44-.35-.62,0-1.17.14-1.66.41s-.88.66-1.16,1.15c-.28.5-.42,1.07-.42,1.73s.14,1.24.42,1.73c.28.49.67.87,1.16,1.15.49.27,1.05.41,1.66.41.56,0,1.05-.12,1.47-.35.26-.15.47-.36.67-.6v.87h1.43Zm-1.73-2.14c-.17.31-.4.54-.68.71-.28.16-.61.25-.97.25s-.68-.08-.97-.25c-.28-.16-.51-.4-.68-.71-.17-.31-.26-.66-.26-1.06s.09-.76.26-1.06c.17-.3.4-.53.68-.7s.61-.25.97-.25.68.08.97.25.51.4.68.7c.17.3.26.65.26,1.06s-.09.75-.26,1.06Z"/>
          <path class="cls-3" d="m184.78,329.66c.26-.15.45-.36.6-.6v.82h1.42v-3.76c0-.93-.25-1.62-.76-2.06-.5-.45-1.22-.67-2.16-.67-.51,0-1,.07-1.48.2-.47.14-.88.34-1.24.6l.59,1.09c.25-.2.54-.36.89-.47.34-.11.69-.17,1.04-.17.54,0,.95.12,1.22.37.27.24.4.59.4,1.03v.1h-1.67c-.65,0-1.17.08-1.56.25s-.67.4-.85.68-.26.61-.26.97.1.7.29.99c.2.29.47.52.83.68.36.16.78.25,1.26.25.58,0,1.05-.1,1.42-.31Zm-2.33-1.66c0-.25.09-.45.27-.62.18-.16.52-.25,1.03-.25h1.56v.74c-.14.33-.35.58-.64.74-.29.17-.62.25-.99.25s-.68-.08-.9-.24c-.22-.16-.32-.37-.32-.64Z"/>
          <path class="cls-3" d="m192.84,324.8c.06,0,.11.01.17.02v-1.43c-.6,0-1.11.11-1.52.34-.32.18-.55.43-.73.73v-.98h-1.43v6.41h1.49v-3.1c0-.67.17-1.17.5-1.5.34-.33.79-.49,1.37-.49.05,0,.1,0,.16,0Z"/>
          <path class="cls-3" d="m195.65,322.42c.29,0,.52-.09.7-.27.18-.18.26-.4.26-.65s-.09-.47-.27-.63c-.18-.16-.41-.25-.69-.25s-.51.09-.69.26c-.18.18-.27.38-.27.62,0,.26.09.47.27.65.18.18.41.26.69.26Z"/>
          <rect class="cls-3" x="194.91" y="323.48" width="1.49" height="6.41"/>
          <path class="cls-3" d="m141.64,346.63c-.1-.05-.22-.07-.32-.1.33-.17.6-.41.8-.71.21-.32.31-.7.31-1.15,0-.66-.26-1.19-.79-1.59-.53-.4-1.29-.59-2.29-.59h-3.95v8.4h4.19c1.08,0,1.89-.2,2.44-.6.55-.4.82-.96.82-1.68,0-.49-.11-.9-.32-1.22-.22-.33-.51-.58-.89-.75Zm-4.68-2.92h2.21c.54,0,.95.1,1.25.29.3.19.44.48.44.88s-.15.67-.44.86-.71.29-1.25.29h-2.21v-2.32Zm3.86,5.66c-.31.19-.76.29-1.33.29h-2.53v-2.42h2.53c.58,0,1.02.1,1.33.29.31.2.47.5.47.92s-.16.73-.47.92Z"/>
          <path class="cls-3" d="m150.21,344.8c-.49-.27-1.04-.41-1.67-.41-.54,0-1.02.12-1.45.35-.26.14-.47.34-.66.57v-.84h-1.43v8.74h1.49v-3.13c.18.21.39.39.62.53.42.24.9.35,1.43.35.62,0,1.18-.14,1.67-.41.49-.27.87-.65,1.16-1.15.28-.49.43-1.07.43-1.73s-.14-1.23-.43-1.73c-.28-.5-.67-.88-1.16-1.15Zm-.19,3.94c-.17.3-.39.54-.68.71-.28.17-.61.25-.98.25s-.67-.08-.96-.25-.52-.4-.68-.71-.25-.66-.25-1.06.08-.76.25-1.06c.17-.3.4-.53.68-.7s.61-.25.96-.25.69.08.98.25c.28.16.51.4.68.7.17.3.25.65.25,1.06s-.08.75-.25,1.06Z"/>
          <polygon class="cls-3" points="160.23 344.48 158.43 344.48 155.32 347.35 155.32 341.98 153.83 341.98 153.83 350.89 155.32 350.89 155.32 349.19 156.43 348.14 158.67 350.89 160.48 350.89 157.54 347.16 160.23 344.48"/>
          <path class="cls-3" d="m162.66,348.98c-.28,0-.52.09-.71.27-.19.18-.29.42-.29.71s.1.54.29.73c.19.19.43.28.71.28.26,0,.49-.09.68-.28.19-.19.29-.43.29-.73s-.1-.53-.29-.71c-.19-.18-.42-.27-.68-.27Z"/>
          <path class="cls-3" d="m175.13,342.84c-.53-.24-1.17-.35-1.91-.35h-3.46v8.4h1.56v-2.42h1.9c.74,0,1.38-.12,1.91-.37s.94-.59,1.23-1.03c.29-.44.43-.97.43-1.59s-.14-1.16-.43-1.61c-.29-.45-.7-.79-1.23-1.03Zm-.43,3.86c-.35.29-.87.44-1.55.44h-1.82v-3.34h1.82c.69,0,1.21.15,1.55.44.35.29.52.7.52,1.23s-.17.94-.52,1.23Z"/>
          <path class="cls-3" d="m179.68,341.62c-.28,0-.51.09-.69.26-.18.18-.27.38-.27.62,0,.26.09.47.27.65.18.18.41.26.69.26s.52-.09.7-.27c.18-.18.26-.4.26-.65s-.09-.47-.27-.63c-.18-.16-.41-.25-.69-.25Z"/>
          <rect class="cls-3" x="178.94" y="344.48" width="1.49" height="6.41"/>
          <path class="cls-3" d="m188.21,344.8c-.49-.27-1.04-.41-1.67-.41-.54,0-1.02.12-1.45.35-.26.14-.47.34-.66.57v-.84h-1.43v8.74h1.49v-3.12c.18.21.39.39.62.53.42.24.9.35,1.43.35.62,0,1.18-.14,1.67-.41.49-.27.87-.65,1.16-1.15.28-.49.43-1.07.43-1.73s-.14-1.23-.43-1.73c-.28-.5-.67-.88-1.16-1.15Zm-.19,3.94c-.17.3-.39.54-.68.71s-.61.25-.98.25-.67-.08-.96-.25c-.29-.17-.52-.4-.68-.71s-.25-.66-.25-1.06.08-.76.25-1.06c.17-.3.4-.53.68-.7.29-.16.61-.25.96-.25s.69.08.98.25.51.4.68.7c.17.3.25.65.25,1.06s-.08.75-.25,1.06Z"/>
          <path class="cls-3" d="m192.58,341.62c-.28,0-.51.09-.69.26-.18.18-.27.38-.27.62,0,.26.09.47.27.65.18.18.41.26.69.26s.52-.09.7-.27c.18-.18.26-.4.26-.65s-.09-.47-.27-.63c-.18-.16-.41-.25-.69-.25Z"/>
          <rect class="cls-3" x="191.84" y="344.48" width="1.49" height="6.41"/>
          <path class="cls-3" d="m200.9,344.69c-.4-.2-.85-.3-1.37-.3-.56,0-1.05.11-1.48.34-.29.15-.52.37-.71.61v-.86h-1.43v6.41h1.49v-3.24c0-.43.07-.79.22-1.07.15-.28.36-.5.63-.64.27-.14.58-.22.94-.22.49,0,.86.14,1.13.42.26.28.4.7.4,1.27v3.48h1.5v-3.67c0-.65-.12-1.18-.35-1.6-.24-.42-.55-.72-.95-.92Z"/>
          <path class="cls-3" d="m211.36,342.49l-3.78,8.4h1.6l.83-1.94h4.2l.83,1.94h1.64l-3.79-8.4h-1.54Zm-.82,5.23l1.58-3.68,1.57,3.68h-3.15Z"/>
          <path class="cls-3" d="m219.65,345.46v-.98h-1.43v6.41h1.49v-3.1c0-.67.17-1.17.5-1.5.34-.33.79-.49,1.37-.49.05,0,.1,0,.16,0,.06,0,.11.01.17.02v-1.43c-.6,0-1.11.11-1.52.34-.32.18-.55.43-.73.73Z"/>
          <rect class="cls-3" x="223.8" y="344.48" width="1.49" height="6.41"/>
          <path class="cls-3" d="m224.55,341.62c-.28,0-.51.09-.69.26-.18.18-.27.38-.27.62,0,.26.09.47.27.65.18.18.41.26.69.26s.52-.09.7-.27c.18-.18.26-.4.26-.65s-.09-.47-.27-.63c-.18-.16-.41-.25-.69-.25Z"/>
          <path class="cls-3" d="m233.08,344.8c-.49-.27-1.04-.41-1.67-.41-.54,0-1.02.12-1.45.35-.26.14-.47.34-.66.57v-.84h-1.43v8.74h1.49v-3.12c.18.21.39.39.62.53.42.24.9.35,1.43.35.62,0,1.18-.14,1.67-.41.49-.27.87-.65,1.16-1.15.28-.49.43-1.07.43-1.73s-.14-1.23-.43-1.73c-.28-.5-.67-.88-1.16-1.15Zm-.19,3.94c-.17.3-.39.54-.68.71s-.61.25-.98.25-.67-.08-.96-.25c-.29-.17-.52-.4-.68-.71s-.25-.66-.25-1.06.08-.76.25-1.06c.17-.3.4-.53.68-.7.29-.16.61-.25.96-.25s.69.08.98.25.51.4.68.7c.17.3.25.65.25,1.06s-.08.75-.25,1.06Z"/>
          <rect class="cls-3" x="236.7" y="344.48" width="1.49" height="6.41"/>
          <path class="cls-3" d="m237.45,341.62c-.28,0-.51.09-.69.26-.18.18-.27.38-.27.62,0,.26.09.47.27.65.18.18.41.26.69.26s.52-.09.7-.27c.18-.18.26-.4.26-.65s-.09-.47-.27-.63c-.18-.16-.41-.25-.69-.25Z"/>
          <path class="cls-3" d="m245.77,344.69c-.4-.2-.85-.3-1.37-.3-.56,0-1.05.11-1.48.34-.29.15-.52.37-.71.61v-.86h-1.43v6.41h1.49v-3.24c0-.43.07-.79.22-1.07.15-.28.36-.5.63-.64.27-.14.58-.22.94-.22.49,0,.86.14,1.13.42.26.28.4.7.4,1.27v3.48h1.5v-3.67c0-.65-.12-1.18-.35-1.6-.24-.42-.55-.72-.95-.92Z"/>
          <path class="cls-3" d="m256.41,341.98h-1.43c-.46.71-.82,1.55-1.08,2.51-.26.96-.38,2-.38,3.1s.13,2.13.38,3.09c.26.96.62,1.8,1.08,2.53h1.43c-.49-.87-.85-1.77-1.07-2.69-.23-.92-.34-1.9-.34-2.93s.11-2.01.34-2.93c.23-.92.59-1.82,1.07-2.69Z"/>
          <path class="cls-3" d="m267.68,342.84c-.53-.24-1.17-.35-1.91-.35h-3.46v8.4h1.56v-2.42h1.9c.74,0,1.38-.12,1.91-.37s.94-.59,1.23-1.03c.29-.44.43-.97.43-1.59s-.14-1.16-.43-1.61c-.29-.45-.7-.79-1.23-1.03Zm-.43,3.86c-.35.29-.87.44-1.55.44h-1.82v-3.34h1.82c.69,0,1.21.15,1.55.44.35.29.52.7.52,1.23s-.17.94-.52,1.23Z"/>
          <path class="cls-3" d="m272.24,341.62c-.28,0-.51.09-.69.26-.18.18-.27.38-.27.62,0,.26.09.47.27.65.18.18.41.26.69.26s.52-.09.7-.27c.18-.18.26-.4.26-.65s-.09-.47-.27-.63c-.18-.16-.41-.25-.69-.25Z"/>
          <rect class="cls-3" x="271.49" y="344.48" width="1.49" height="6.41"/>
          <path class="cls-3" d="m280.77,344.8c-.49-.27-1.04-.41-1.67-.41-.54,0-1.02.12-1.45.35-.26.14-.47.34-.66.57v-.84h-1.43v8.74h1.49v-3.12c.18.21.39.39.62.53.42.24.9.35,1.43.35.62,0,1.18-.14,1.67-.41.49-.27.87-.65,1.16-1.15.28-.49.43-1.07.43-1.73s-.14-1.23-.43-1.73c-.28-.5-.67-.88-1.16-1.15Zm-.19,3.94c-.17.3-.39.54-.68.71s-.61.25-.98.25-.67-.08-.96-.25c-.29-.17-.52-.4-.68-.71s-.25-.66-.25-1.06.08-.76.25-1.06c.17-.3.4-.53.68-.7.29-.16.61-.25.96-.25s.69.08.98.25.51.4.68.7c.17.3.25.65.25,1.06s-.08.75-.25,1.06Z"/>
          <rect class="cls-3" x="284.39" y="344.48" width="1.49" height="6.41"/>
          <path class="cls-3" d="m285.13,341.62c-.28,0-.51.09-.69.26-.18.18-.27.38-.27.62,0,.26.09.47.27.65.18.18.41.26.69.26s.52-.09.7-.27c.18-.18.26-.4.26-.65s-.09-.47-.27-.63c-.18-.16-.41-.25-.69-.25Z"/>
          <path class="cls-3" d="m293.46,344.69c-.4-.2-.85-.3-1.37-.3-.56,0-1.05.11-1.48.34-.29.15-.52.37-.71.61v-.86h-1.43v6.41h1.49v-3.24c0-.43.07-.79.22-1.07.15-.28.36-.5.63-.64.27-.14.58-.22.94-.22.49,0,.86.14,1.13.42.26.28.4.7.4,1.27v3.48h1.5v-3.67c0-.65-.12-1.18-.35-1.6-.24-.42-.55-.72-.95-.92Z"/>
          <path class="cls-3" d="m301.89,341.98h-1.43c.5.87.86,1.77,1.09,2.69.23.92.34,1.9.34,2.93s-.11,2.01-.34,2.93c-.23.92-.59,1.82-1.09,2.69h1.43c.48-.73.85-1.57,1.1-2.53.25-.96.38-1.99.38-3.09s-.13-2.14-.38-3.1c-.25-.96-.62-1.8-1.1-2.51Z"/>
          <path class="cls-3" d="m316.83,347.11l-1.2-.38c-.1.55-.27,1-.48,1.41l-1.8-1.73c.26-.14.5-.29.69-.42.36-.26.62-.53.79-.81.16-.28.25-.59.25-.93,0-.38-.09-.71-.28-.98-.19-.27-.45-.48-.79-.63-.34-.15-.73-.22-1.18-.22-.49,0-.92.08-1.29.25-.37.16-.66.39-.85.69s-.29.64-.29,1.03c0,.22.04.44.11.65.07.21.19.43.36.65.13.17.29.36.48.55-.32.18-.62.36-.85.55-.38.29-.66.6-.83.92-.18.32-.26.68-.26,1.09,0,.43.13.82.4,1.15.27.34.63.6,1.09.79.46.19.98.29,1.57.29.75,0,1.43-.16,2.03-.47.28-.15.54-.33.79-.54l1.06,1.02.83-.97-1.07-1.02c.35-.55.61-1.18.76-1.92Zm-4.79-3.4c.19-.16.45-.25.79-.25.31,0,.55.07.72.22s.25.34.25.58c0,.18-.05.34-.16.5-.11.16-.3.33-.56.5-.15.1-.34.21-.55.32-.16-.16-.3-.31-.4-.42-.14-.16-.24-.3-.29-.43-.05-.13-.07-.26-.07-.41,0-.26.09-.47.28-.63Zm1.91,5.74c-.42.22-.89.34-1.4.34-.34,0-.64-.05-.9-.15s-.45-.24-.59-.42c-.14-.18-.21-.39-.21-.62s.06-.43.17-.62.3-.38.55-.57c.16-.12.37-.24.6-.37l2.2,2.11c-.13.11-.27.22-.42.3Z"/>
          <rect class="cls-3" x="322.99" y="342.49" width="1.56" height="8.4"/>
          <path class="cls-3" d="m332.5,344.8c-.49-.27-1.04-.41-1.67-.41-.53,0-1,.12-1.43.35-.24.13-.44.31-.62.52v-3.29h-1.49v8.9h1.43v-.85c.19.23.4.43.66.58.43.24.92.35,1.45.35.62,0,1.18-.14,1.67-.41.49-.27.87-.65,1.16-1.15.28-.49.43-1.07.43-1.73s-.14-1.23-.43-1.73c-.28-.5-.67-.88-1.16-1.15Zm-.19,3.94c-.17.31-.39.54-.68.71-.28.16-.61.25-.98.25s-.67-.08-.96-.25c-.29-.16-.52-.4-.68-.71-.17-.31-.25-.66-.25-1.06s.08-.76.25-1.06c.17-.3.4-.53.68-.7.29-.16.61-.25.96-.25s.69.08.98.25.51.4.68.7c.17.3.25.65.25,1.06s-.08.75-.25,1.06Z"/>
          <path class="cls-3" d="m340.81,347.72c0,.42-.07.78-.22,1.07-.14.29-.35.5-.61.65-.26.14-.57.22-.92.22-.47,0-.84-.14-1.1-.43-.26-.28-.4-.71-.4-1.28v-3.47h-1.51v3.66c0,.64.12,1.17.35,1.59.24.42.56.73.98.94.42.2.9.31,1.44.31.5,0,.95-.11,1.37-.34.28-.15.5-.37.7-.61v.86h1.43v-6.41h-1.5v3.24Z"/>
          <polygon class="cls-3" points="354.85 348.18 350.22 342.49 348.94 342.49 348.94 350.89 350.49 350.89 350.49 345.19 355.11 350.89 356.39 350.89 356.39 342.49 354.85 342.49 354.85 348.18"/>
          <path class="cls-3" d="m363.56,344.81c-.49-.28-1.04-.41-1.67-.41s-1.21.14-1.71.43-.89.67-1.18,1.16c-.28.49-.43,1.06-.43,1.7s.15,1.21.44,1.7c.29.49.7.88,1.24,1.16.53.28,1.15.43,1.87.43.56,0,1.06-.09,1.49-.26.44-.18.8-.43,1.1-.77l-.82-.94c-.22.23-.48.41-.77.53s-.61.18-.97.18c-.42,0-.8-.08-1.12-.25s-.57-.39-.74-.69c-.11-.18-.17-.39-.21-.61h5.02c0-.06.01-.14.02-.22s0-.15,0-.21c0-.68-.14-1.27-.42-1.76s-.66-.88-1.15-1.16Zm-3.48,2.36c.03-.23.09-.45.19-.65.15-.29.37-.51.65-.67.28-.16.61-.23.97-.23s.69.08.96.23c.27.16.49.38.64.66.11.2.16.42.19.65h-3.6Z"/>
          <path class="cls-3" d="m372.19,344.69c-.4-.2-.85-.3-1.37-.3-.56,0-1.05.11-1.48.34-.29.15-.52.37-.71.61v-.86h-1.43v6.41h1.49v-3.24c0-.43.07-.79.22-1.07.15-.28.36-.5.63-.64.27-.14.58-.22.94-.22.49,0,.86.14,1.13.42.26.28.4.7.4,1.27v3.48h1.5v-3.67c0-.65-.12-1.18-.35-1.6-.24-.42-.55-.72-.95-.92Z"/>
          <path class="cls-3" d="m376.75,341.62c-.28,0-.51.09-.69.26-.18.18-.27.38-.27.62,0,.26.09.47.27.65.18.18.41.26.69.26s.52-.09.7-.27c.18-.18.26-.4.26-.65s-.09-.47-.27-.63c-.18-.16-.41-.25-.69-.25Z"/>
          <rect class="cls-3" x="376.01" y="344.48" width="1.49" height="6.41"/>
          <path class="cls-3" d="m389.14,346.74c-.3-.17-.62-.31-.97-.42-.35-.11-.71-.2-1.07-.28-.36-.08-.69-.16-.98-.25-.29-.09-.53-.21-.71-.37-.18-.16-.27-.36-.27-.62,0-.21.06-.4.19-.57.12-.17.32-.31.59-.41.27-.1.62-.16,1.04-.16.37,0,.75.05,1.15.16s.79.27,1.16.5l.49-1.21c-.37-.24-.8-.42-1.3-.55-.5-.13-1-.19-1.5-.19-.77,0-1.4.11-1.9.34-.5.23-.87.53-1.12.91-.24.38-.37.8-.37,1.25s.09.82.27,1.1c.18.29.42.52.71.69.3.17.62.31.98.43.36.11.71.21,1.07.28.36.08.68.16.97.25.29.09.53.22.71.37.18.16.28.36.28.62,0,.21-.06.39-.19.56-.13.16-.33.29-.6.39-.27.1-.63.14-1.07.14-.52,0-1.03-.09-1.52-.26s-.91-.4-1.25-.66l-.54,1.21c.36.3.84.54,1.43.73.6.19,1.22.28,1.88.28.77,0,1.4-.11,1.91-.34s.88-.53,1.12-.91.37-.79.37-1.24-.09-.8-.27-1.09c-.18-.28-.42-.51-.71-.68Z"/>
          <path class="cls-3" d="m396.83,347.72c0,.42-.07.78-.22,1.07-.14.29-.35.5-.61.65-.26.14-.57.22-.92.22-.47,0-.84-.14-1.1-.43-.26-.28-.4-.71-.4-1.28v-3.47h-1.51v3.66c0,.64.12,1.17.35,1.59.24.42.56.73.98.94.42.2.9.31,1.44.31.5,0,.95-.11,1.37-.34.28-.15.5-.37.7-.61v.86h1.43v-6.41h-1.5v3.24Z"/>
          <path class="cls-3" d="m402.34,345.46v-.98h-1.43v6.41h1.49v-3.1c0-.67.17-1.17.5-1.5.34-.33.79-.49,1.37-.49.05,0,.1,0,.16,0,.06,0,.11.01.17.02v-1.43c-.6,0-1.11.11-1.52.34-.32.18-.55.43-.73.73Z"/>
          <path class="cls-3" d="m409.25,349.23l-2.03-4.75h-1.55l2.8,6.42-.11.25c-.14.33-.3.56-.47.7-.17.14-.39.2-.66.2-.21,0-.41-.04-.59-.12-.19-.08-.36-.18-.51-.31l-.59,1.09c.2.18.46.33.77.43.31.1.63.16.95.16.35,0,.68-.06.98-.17.3-.12.57-.31.82-.59.24-.28.47-.65.67-1.12l3-6.94h-1.44l-2.02,4.75Z"/>
          <path class="cls-3" d="m416.5,344.39c-.51,0-1,.07-1.48.2-.47.14-.88.34-1.24.6l.59,1.09c.25-.2.54-.36.89-.47.34-.11.69-.17,1.04-.17.54,0,.95.12,1.22.37.27.24.4.59.4,1.03v.1h-1.67c-.65,0-1.17.08-1.56.25s-.67.4-.85.68-.26.61-.26.97.1.7.29.99c.2.29.47.52.83.68.36.16.78.25,1.26.25.58,0,1.05-.1,1.42-.31.26-.15.45-.36.6-.6v.82h1.42v-3.76c0-.93-.25-1.62-.76-2.06-.5-.45-1.22-.67-2.16-.67Zm1.43,4.49c-.14.33-.35.58-.64.74-.29.17-.62.25-.99.25s-.68-.08-.9-.24c-.22-.16-.32-.37-.32-.64,0-.25.09-.45.27-.62.18-.16.52-.25,1.03-.25h1.56v.74Z"/>
          <path class="cls-3" d="m426.94,344.69c-.4-.2-.85-.3-1.37-.3-.56,0-1.05.11-1.48.34-.29.15-.52.37-.71.61v-.86h-1.43v6.41h1.49v-3.24c0-.43.07-.79.22-1.07.15-.28.36-.5.63-.64.27-.14.58-.22.94-.22.49,0,.86.14,1.13.42.26.28.4.7.4,1.27v3.48h1.5v-3.67c0-.65-.12-1.18-.35-1.6-.24-.42-.55-.72-.95-.92Z"/>
          <path class="cls-3" d="m431.51,341.62c-.28,0-.51.09-.69.26-.18.18-.27.38-.27.62,0,.26.09.47.27.65.18.18.41.26.69.26s.52-.09.7-.27c.18-.18.26-.4.26-.65s-.09-.47-.27-.63c-.18-.16-.41-.25-.69-.25Z"/>
          <rect class="cls-3" x="430.76" y="344.48" width="1.49" height="6.41"/>
          <path class="cls-3" d="m441.65,341.98h-1.43c-.46.71-.82,1.55-1.08,2.51-.26.96-.38,2-.38,3.1s.13,2.13.38,3.09c.26.96.62,1.8,1.08,2.53h1.43c-.49-.87-.85-1.77-1.07-2.69-.23-.92-.34-1.9-.34-2.93s.11-2.01.34-2.93c.23-.92.59-1.82,1.07-2.69Z"/>
          <polygon class="cls-3" points="450.45 346.57 447.97 342.49 446.32 342.49 449.62 347.92 449.62 350.89 451.16 350.89 451.16 347.93 454.46 342.49 452.93 342.49 450.45 346.57"/>
          <path class="cls-3" d="m457.61,344.39c-.51,0-1,.07-1.48.2-.47.14-.88.34-1.24.6l.59,1.09c.25-.2.54-.36.89-.47.34-.11.69-.17,1.04-.17.54,0,.95.12,1.22.37.27.24.4.59.4,1.03v.1h-1.67c-.65,0-1.17.08-1.56.25s-.67.4-.85.68-.26.61-.26.97.1.7.29.99c.2.29.47.52.83.68.36.16.78.25,1.26.25.58,0,1.05-.1,1.42-.31.26-.15.45-.36.6-.6v.82h1.42v-3.76c0-.93-.25-1.62-.76-2.06-.5-.45-1.22-.67-2.16-.67Zm1.43,4.49c-.14.33-.35.58-.64.74-.29.17-.62.25-.99.25s-.68-.08-.9-.24c-.22-.16-.32-.37-.32-.64,0-.25.09-.45.27-.62.18-.16.52-.25,1.03-.25h1.56v.74Z"/>
          <path class="cls-3" d="m465.46,349.23l-2.03-4.75h-1.55l2.8,6.42-.11.25c-.14.33-.3.56-.47.7-.17.14-.39.2-.66.2-.21,0-.41-.04-.59-.12-.19-.08-.36-.18-.51-.31l-.59,1.09c.2.18.46.33.77.43.31.1.63.16.95.16.35,0,.68-.06.98-.17.3-.12.57-.31.82-.59.24-.28.47-.65.67-1.12l3-6.94h-1.44l-2.02,4.75Z"/>
          <path class="cls-3" d="m472.7,344.39c-.51,0-1,.07-1.48.2-.47.14-.88.34-1.24.6l.59,1.09c.25-.2.54-.36.89-.47.34-.11.69-.17,1.04-.17.54,0,.95.12,1.22.37.27.24.4.59.4,1.03v.1h-1.67c-.65,0-1.17.08-1.56.25s-.67.4-.85.68-.26.61-.26.97.1.7.29.99c.2.29.47.52.83.68.36.16.78.25,1.26.25.58,0,1.05-.1,1.42-.31.26-.15.45-.36.6-.6v.82h1.42v-3.76c0-.93-.25-1.62-.76-2.06-.5-.45-1.22-.67-2.16-.67Zm1.43,4.49c-.14.33-.35.58-.64.74-.29.17-.62.25-.99.25s-.68-.08-.9-.24c-.22-.16-.32-.37-.32-.64,0-.25.09-.45.27-.62.18-.16.52-.25,1.03-.25h1.56v.74Z"/>
          <path class="cls-3" d="m483.15,344.69c-.4-.2-.85-.3-1.37-.3-.56,0-1.05.11-1.48.34-.29.15-.52.37-.71.61v-.86h-1.43v6.41h1.49v-3.24c0-.43.07-.79.22-1.07.15-.28.36-.5.63-.64.27-.14.58-.22.94-.22.49,0,.86.14,1.13.42.26.28.4.7.4,1.27v3.48h1.5v-3.67c0-.65-.12-1.18-.35-1.6-.24-.42-.55-.72-.95-.92Z"/>
          <path class="cls-3" d="m492.68,344.5c-.25-.96-.62-1.8-1.1-2.51h-1.43c.5.87.86,1.77,1.09,2.69.23.92.34,1.9.34,2.93s-.11,2.01-.34,2.93c-.23.92-.59,1.82-1.09,2.69h1.43c.48-.73.85-1.57,1.1-2.53.25-.96.38-1.99.38-3.09s-.13-2.14-.38-3.1Z"/>
        </g>
        <path class="cls-4" d="m306.63,333.63c-.77,0-1.48-.6-1.48-1.51,0-.84,6.86-30.02,6.86-30.02l-.07-.11s-3.76,4.61-10.09,14.06c-13.29,19.72-16.91,20.81-21.83,20.81-5.38,0-24.82-6.96-26.75-8.82-.49-.46-.74-.91-.74-1.37,0-.42.21-.84.7-1.27,3.9-3.45,33.4-3.76,36.28-5.24.18-.07.35-.11.49-.11.46,0,.81.46.81.91,0,.42-.28.88-1.09,1.02-5.8,1.12-34.91,2.5-34.91,4.85.63,1.12,20.32,8.05,25.59,8.05,7.98,0,16.66-15.64,29.36-33.33,2.53-3.52,3.66-5.13,4.01-6.12,1.62-4.29,2.53-6.4,2.92-6.64.18-.14.35-.18.49-.18.42,0,.74.32.74.81,0,.25-1.12,3.73-2.46,7.7,0,0-7.8,30.87-7.8,33.05,1.58-.04,17.16-27.77,18.04-29.14,6.4-9.88,10.55-17.61,22.68-17.61.88,0,1.27.39,1.27.77s-.35.77-.91.81c-11.07.74-13.64,4.57-20.18,14.7-1.69,2.6-18.74,33.93-21.9,33.93Zm18.26-9.07c0-1.3.49-2.39,1.41-3.3.32-.53,1.23-1.37,2.18-1.37.42,0,.98.25.98.98s-1.58,1.41-2.32,1.83c0,0-.56.39-.56,1.83,0,.25.32.77,1.09.77,3.02,0,8.58-2.81,10.48-3.97.21,0,.32.21.32.42,0,.42-.11.84-.32.95-2.11,1.48-7.17,4.04-11.04,4.04-1.69,0-2.21-1.41-2.21-2.18Zm5.91-7.8c0-.39.32-.56.67-.56.49,0,1.12.39,1.12,1.16,0,.46-.46.6-.67.6-.39,0-1.12-.67-1.12-1.2Zm7.12,9.88c0-2.36,4.04-2.46,4.04-2.46-.04-.32-.49-1.93-.49-2.81,0-2.81,2.57-3.13,3.23-3.13.95,0,1.34.77,1.34,1.09,0,.74-.42,1.2-1.41,1.83-.63.46-1.09.7-1.09.7-.25.63.28,1.44.28,2.21,3.34-.25,5.03-.67,8.89-2.74.28,0,.7.25.7.63,0,.42-.39.53-.74.81-1.93,1.65-5.77,2.6-8.86,2.78-.25,1.2-1.02,2.85-3.8,2.85-.98,0-2.11-.6-2.11-1.76Zm4.04-1.05c-1.12-.04-2.18.35-2.18.67,0,.21.14.49.53.49.95,0,1.65-.53,1.65-1.16Zm10.77-.25c0-2.74,6.01-5.91,8.96-5.91,1.16,0,1.48.56,1.48,1.09,0,.42-.25.81-.42.81l-.14,1.3c0,.95.28,2.07,1.62,2.07,2.85,0,9.18-3.38,9.18-3.38.21,0,.84.63.84.95,0,.42-7.17,4.01-10.12,4.01-2.78,0-2.95-2.46-2.95-3.06v-.11c-1.58,1.27-4.01,4.22-6.75,4.22-1.16,0-1.69-1.05-1.69-2Zm8.19-3.97h-.04c-1.93,0-6.57,1.93-6.57,4.01,0,.18.25.35.56.35,1.55-.07,5.1-3.52,6.05-4.36Z"/>
        <g class="cls-8">
          <image width="632" height="843" transform="translate(9.77 206.32) scale(.17)" xlink:href="../foto/New folder/nisa.jpg"/>
        </g>
        <g>
          <polygon class="cls-3" points="487.05 213.25 487.05 314.04 486 314.04 486 214.3 403.21 214.3 403.21 213.25 487.05 213.25"/>
          <path class="cls-3" d="m487.56,206.32s.21.13.48.38c1.42,1.27,5.39,6.03,4.6,19.03-.22,3.6-.11,7.33.32,10.98.03.08.06.15.09.22v14.08c-2.79-5.99-4.03-13.78-2.38-23.91,0,0-1.87,6.33-8.65,9.26h.13s-.1.02-.27.06c-.54.23-1.11.43-1.71.61-1.8.85-4.31,2.69-5.32,6.6-.83,3.24.62,4.16.04,5.39-.58,1.22-.37,2.15.12,2.64,0,0-3.42-2.02-1.5-5.63,0,0-1.78.61-2.98.38,0,0,1.14-3.81,4.12-5.38,0,0-1.47-.21-1.77-.58,0,0,1.73-1.57,4.11-2.77-1.5.17-3.15.2-4.96.02-2.65-.25-4.92-1.09-6.8-2.32.6.94,1.07,2.11,1.27,3.44.6,3.93-1.49,8.05-3.45,9.47-1.96,1.42-1.78,2.64-.83,2.9.95.26,1.07-.78,1.07-.78.73.6-.37,2.33-1.71,1.31-1.24-.94-.31-2.53-.31-2.53,0,0-4.88,1.61-6.89-2.65-1.93-4.12,2.38-5.61,2.6-5.68-.19.11-3.03,1.74-2.17,4.51.89,2.86,3.73,2.86,3.73,2.86-1.21-1.64-.72-2.57-.72-2.57.8,3.81,4.8,1.34,4.8,1.34,0,0-1.67,0-2.55-1.85-.88-1.85,1.7-3.3,1.7-3.3,0,0-1.82,2.32-.12,3.1,1.69.78,4.04-1.8,4.17-4.88.14-3.33-3.51-5.95-4.87-4.84-1.36,1.11.16,2.11.16,2.11-.8.41-3.39-1.56-1.39-3.44.89-.84,1.92-1.01,2.92-.68-6.14-6.65-5.01-18.5,5.54-21.42,0,0-13.16,9.25-2.93,19.8,10.18,10.5,32.59.05,22.47-24.9-.05-.13-.1-.25-.15-.38Z"/>
          <path class="cls-3" d="m482.26,270.26c1.17.18,1.98,1.26,1.8,2.43-.17,1.17-1.26,1.98-2.43,1.8-.84-.12-1.48-.72-1.72-1.48-1.3.55-2.7,1.62-3.03,3.7-.64,4.1,2.89,5.85,2.89,5.85-.5-2.78.69-3.64.69-3.64-1.34,5.23,5.15,4.61,5.15,4.61,0,0-2.08-1.03-2.05-3.87.04-2.84,4.15-3.06,4.15-3.06,0,0-3.68,1.78-2.05,3.79,1.45,1.78,5.14.59,7.39-2.32v2.09c-2.28,2.91-5.44,4.87-7.73,5.26-3.31.56-3.83,2.19-2.8,3.1,1.03.91,1.8-.32,1.8-.32.55,1.2-1.88,2.67-2.93.59-.97-1.93,1.18-3.35,1.18-3.35,0,0-7.07-.99-6.95-7.52.07-3.75,2.31-4.99,4.19-5.38-.01-.15-.01-.31.01-.47.17-1.17,1.26-1.98,2.43-1.8Z"/>
          <path class="cls-3" d="m493.06,265.63v3.36c-.7-.85-1.53-1.32-2.31-1.14-2.37.55-1.09,2.72-1.09,2.72-1.25.02-3.26-4.01.38-5.13,1.12-.35,2.15-.25,3.02.19Z"/>
          <path class="cls-3" d="m475.34,233.88c-1.17-.17-1.97-1.26-1.8-2.43.17-1.17,1.26-1.97,2.43-1.8,1.17.18,1.98,1.26,1.8,2.43-.17,1.17-1.26,1.98-2.43,1.8Z"/>
          <path class="cls-3" d="m465.58,247.54c.13-.88.95-1.48,1.82-1.35.88.13,1.48.94,1.35,1.82-.13.88-.94,1.48-1.82,1.35-.88-.13-1.48-.94-1.35-1.82Z"/>
          <path class="cls-3" d="m486.17,234.57s4.3,11.49-8.05,12.21c0,0,1.73-1.14,1.95-3.92.21-2.78,2.04-5.84,4.58-6.67,0,0,.11,2.39-1.58,3.62,0,0,3.83-1.06,3.11-5.24Z"/>
          <path class="cls-3" d="m481.38,225.96c.74-.57,1.61.28,3.69-.75,4.09-2.03,3.76-6,3.76-6,.91,3.04-1.25,6.88-1.25,6.88-.3-.16-.69-1.12-.69-1.12-.57,2.24-2.99,3.57-2.99,3.57-.36-.78-.24-2.07-.24-2.07-2.15,1.83-4.11-.2-4.11-.2.42.26,1.09.27,1.83-.3Z"/>
          <path class="cls-3" d="m483.52,247.52c.43,3.62-4.86,8.86-4.86,8.86,1.15-.29,7.52-1.34,7.78-6.38.27-5.05,2.05-8.01,2.05-8.01,0,0-.56,3.9,1.54,9.9,2.11,6-2.22,9.02-4.44,12.47-2.21,3.45,1.72,5.95,1.72,5.95-8.67-2.78-7.61-9.03-7.61-9.03-3.62,3.22-13.15,1.72-13.15,1.72,3.24-.17,5.84-5.2,5.84-5.2-1.83,2.03-6.38,2.21-8.9,1.57-2.51-.64-5.21,1.06-5.21,1.06,4.5-5.51,7.51-5.75,13.81-6.71,6.3-.96,11.43-6.19,11.43-6.19Z"/>
          <path class="cls-3" d="m493.06,284.34v8.3c-1.28-1.24-2.38-2.6-2.5-3.79.08.86.2,5.39-5.54,8.76.16-.12,2.69-2.22,2.98-8.51.15-3.27,3.1-5.13,4.06-5.29.27-.05.63.16,1,.52Z"/>
          <path class="cls-3" d="m486.01,212.59s-1.52,4.34-3.76,5.93c0,0,3.81-1.42,5-5.53,0,0,2.05,6.19-1.18,7.79-3.23,1.59-7.31,1.54-8.88,3.37,0,0-1.36-6.2,1.97-7.67,3.34-1.47,5.77-1.88,6.84-3.89Z"/>
          <path class="cls-3" d="m480.97,296.05s-1.52,4.34-3.76,5.93c0,0,3.81-1.42,5-5.53,0,0,2.05,6.19-1.18,7.79-3.23,1.6-7.31,1.55-8.87,3.37,0,0-1.37-6.2,1.97-7.66,3.34-1.47,5.77-1.88,6.84-3.89Z"/>
          <path class="cls-3" d="m478.24,287.66c2.79,1.72,2.98,5.2,2.66,6.11-.32.92-4.06,1.33-5.81.05,0,0,1.18,2.1,5.08,1.42,0,0-3.79,3.79-8.69,2.86-4.89-.93-5.78-6.4-5.78-6.4,0,0,1.96.54,4.35-.4,2.33-.91,5.47-2.02,7.17-1.29-.79-.35-4.82-2.44-4.98-9.1,0,0,.47,3.33,6,6.74Z"/>
        </g>
      </g>
      <g>
        <path class="cls-5" d="m459.79,158.53c-.82,0-1.64-.06-2.46-.18l-77.55-11.12c-4.51-.65-8.5-3.01-11.24-6.66-2.73-3.65-3.88-8.14-3.24-12.65l16.24-113.27c.65-4.51,3.01-8.5,6.66-11.24,3.65-2.73,8.15-3.88,12.65-3.23l77.55,11.12c9.31,1.33,15.81,10,14.47,19.31l-16.24,113.27c-.65,4.51-3.01,8.5-6.66,11.24-2.98,2.24-6.53,3.41-10.2,3.41Zm-1.89-4.14c3.45.49,6.9-.38,9.69-2.48,2.79-2.09,4.6-5.15,5.1-8.6l16.24-113.27c1.02-7.13-3.95-13.76-11.08-14.79l-77.55-11.12c-3.45-.49-6.89.38-9.69,2.48-2.79,2.09-4.6,5.15-5.1,8.6l-16.24,113.27c-1.02,7.13,3.95,13.76,11.08,14.79l77.55,11.12Z"/>
        <g>
          <g>
            <path class="cls-3" d="m50.51,107.34v-5.26h2.04l3.48,6.6c.29.5.86.86,1.42.86h4.25v-.5l-.53-.29c-.5-.29-1.03-.79-1.3-1.32l-1.82-3.43c-.38-.74-1.1-1.49-1.85-1.92l-.19-.1c2.71-.43,4.44-2.26,4.44-4.94,0-3.05-2.14-4.9-5.66-4.9h-9.24v.48l.22.19c.48.34.79.96.79,1.54v12.99c0,.58-.31,1.18-.79,1.54l-.22.17v.5h5.98v-.5l-.24-.17c-.43-.36-.77-.96-.77-1.54Zm0-13.71h2.52c2.16,0,3.43,1.32,3.43,3.43s-1.34,3.53-3.43,3.53h-2.52v-6.96Z"/>
            <path class="cls-3" d="m75.49,108.06c-.19.34-.55.34-.55.34-.48,0-.67-.24-.67-.86v-6c0-3.75-3.02-4.68-5.71-4.68-3.02,0-4.82,1.18-4.82,2.83,0,1.1.84,1.94,1.9,1.94s1.9-.84,1.9-1.85c0-.6-.29-1.13-.7-1.46.12-.1.36-.17.7-.17.84,0,2.11.53,2.59,2.11-.17,1.99-7.2,1.51-7.2,5.93,0,2.16,1.7,3.6,3.91,3.6,1.44,0,2.74-.62,3.53-1.82.26,1.22,1.18,1.82,2.47,1.82,1.8,0,2.66-1.13,2.66-1.73Zm-5.21-3.1c-.14,1.42-1.01,2.35-1.87,2.35-.77,0-1.51-.74-1.51-1.94,0-2.06,2.18-2.47,3.38-3.34v2.93Z"/>
            <path class="cls-3" d="m97.6,108.06c-.19.34-.58.34-.58.34-.46,0-.67-.24-.67-.86v-6.22c0-2.66-1.37-4.46-3.74-4.46-1.73,0-3.1.98-3.77,2.54-.48-1.46-1.58-2.54-3.46-2.54-1.61,0-2.76.82-3.46,1.94v-1.68h-.98l-3.98.74v.5l.22.17c.48.34.79.96.79,1.54v7.27c0,.58-.31,1.18-.79,1.54l-.22.17v.5h5.98v-.5l-.24-.17c-.43-.36-.77-.96-.77-1.54v-5.95c.1-1.08.53-2.64,1.73-2.64,1.27,0,1.51,1.9,1.51,2.81v7.99h4.97v-.5l-.22-.17c-.48-.36-.77-.96-.77-1.54v-5.47c-.02-1.87.74-3.12,1.7-3.12s1.54,1.1,1.54,2.81v5.47c0,1.9.94,2.76,2.52,2.76,1.82,0,2.69-1.13,2.69-1.73Z"/>
            <path class="cls-3" d="m111.64,108.06c-.19.34-.55.34-.55.34-.48,0-.67-.24-.67-.86v-6c0-3.75-3.02-4.68-5.71-4.68-3.02,0-4.82,1.18-4.82,2.83,0,1.1.84,1.94,1.9,1.94s1.9-.84,1.9-1.85c0-.6-.29-1.13-.7-1.46.12-.1.36-.17.7-.17.84,0,2.11.53,2.59,2.11-.17,1.99-7.2,1.51-7.2,5.93,0,2.16,1.7,3.6,3.91,3.6,1.44,0,2.74-.62,3.53-1.82.26,1.22,1.18,1.82,2.47,1.82,1.8,0,2.66-1.13,2.66-1.73Zm-5.21-3.1c-.14,1.42-1.01,2.35-1.87,2.35-.77,0-1.51-.74-1.51-1.94,0-2.06,2.18-2.47,3.38-3.34v2.93Z"/>
            <path class="cls-3" d="m126.61,108.39c-.48,0-.67-.24-.67-.86v-15.38h-1.01l-3.96.74v.48l.22.19c.48.34.77.96.77,1.54v2.88c-.7-.7-1.66-1.13-3.05-1.13-3.5,0-5.9,2.62-5.9,6.53s2.3,6.41,5.66,6.41c1.61,0,2.69-.58,3.43-1.56.36,1.08,1.2,1.56,2.4,1.56,1.8,0,2.69-1.13,2.69-1.73-.22.34-.58.34-.58.34Zm-4.66-4.39c-.14,2.62-1.13,4.3-2.52,4.3-1.46,0-2.45-1.94-2.45-5.04,0-2.9.86-4.9,2.4-4.9,1.42,0,2.42,1.66,2.57,4.3v1.34Z"/>
            <path class="cls-3" d="m142.76,108.06c-.22.34-.58.34-.58.34-.48,0-.67-.24-.67-.86v-6.22c0-2.66-1.39-4.46-3.96-4.46-1.7,0-3.14.82-4.01,2.16v-6.86h-.98l-3.98.74v.48l.22.19c.48.34.79.96.79,1.54v12.24c0,.58-.31,1.18-.79,1.54l-.22.17v.5h5.98v-.5l-.24-.17c-.43-.36-.77-.96-.77-1.54v-5.98c.17-1.58.98-2.62,2.11-2.62,1.2,0,1.87,1.06,1.87,2.81v5.47c0,1.9.96,2.76,2.54,2.76,1.8,0,2.69-1.13,2.69-1.73Z"/>
            <path class="cls-3" d="m156.78,108.06c-.19.34-.55.34-.55.34-.48,0-.67-.24-.67-.86v-6c0-3.75-3.02-4.68-5.71-4.68-3.02,0-4.82,1.18-4.82,2.83,0,1.1.84,1.94,1.9,1.94s1.9-.84,1.9-1.85c0-.6-.29-1.13-.7-1.46.12-.1.36-.17.7-.17.84,0,2.11.53,2.59,2.11-.17,1.99-7.2,1.51-7.2,5.93,0,2.16,1.7,3.6,3.91,3.6,1.44,0,2.74-.62,3.53-1.82.26,1.22,1.18,1.82,2.47,1.82,1.8,0,2.66-1.13,2.66-1.73Zm-5.21-3.1c-.14,1.42-1.01,2.35-1.87,2.35-.77,0-1.51-.74-1.51-1.94,0-2.06,2.18-2.47,3.38-3.34v2.93Z"/>
            <path class="cls-3" d="m172.43,108.06c-.22.34-.58.34-.58.34-.48,0-.67-.24-.67-.86v-6.22c0-2.66-1.39-4.46-3.96-4.46-1.7,0-3.14.82-4.01,2.16v-1.9h-.98l-3.98.74v.5l.22.17c.48.34.79.96.79,1.54v7.27c0,.58-.31,1.18-.79,1.54l-.22.17v.5h5.98v-.5l-.24-.17c-.43-.36-.77-.96-.77-1.54v-5.98c.17-1.58.98-2.62,2.11-2.62,1.2,0,1.87,1.06,1.87,2.81v5.47c0,1.9.96,2.76,2.54,2.76,1.8,0,2.69-1.13,2.69-1.73Z"/>
            <path class="cls-3" d="m191.92,100.59c1.63-.65,2.86-2.09,2.86-4.06,0-2.64-2.21-4.39-5.93-4.39h-7.73v.48l.22.19c.48.34.79.96.79,1.54v12.99c0,.58-.31,1.18-.79,1.54l-.22.17v.5h8.47c3.7,0,5.93-1.85,5.93-4.66,0-2.06-1.2-3.55-3.6-4.3Zm-5.83-6.96h1.54c1.9,0,3.17,1.27,3.17,3.22s-1.27,3.24-3.17,3.24h-1.54v-6.46Zm2.28,14.43h-2.28v-6.48h2.28c1.9,0,3.17,1.27,3.17,3.24s-1.27,3.24-3.17,3.24Z"/>
            <path class="cls-3" d="m206.1,107.62c.17,1.46,1.1,2.16,2.52,2.16,1.8,0,2.69-1.13,2.69-1.73-.22.34-.58.34-.58.34-.48,0-.67-.24-.67-.84v-10.44h-1.01l-3.96.74v.5l.22.17c.43.29.7.82.77,1.34v5.5c-.17,1.56-.98,2.54-2.11,2.54-1.2,0-1.87-1.06-1.87-2.83v-7.97h-.98l-3.98.74v.5l.22.17c.48.34.79.96.79,1.54v5.28c0,2.66,1.39,4.44,3.94,4.44,1.75,0,3.19-.82,4.03-2.16Z"/>
            <path class="cls-3" d="m220.52,96.85c-1.08,0-2.09.48-2.76,1.27v-1.01h-.98l-3.98.74v.5l.22.17c.48.34.79.96.79,1.54v7.27c0,.58-.31,1.18-.79,1.54l-.22.17v.5h5.98v-.5l-.24-.17c-.43-.36-.77-.96-.77-1.54v-7.11c.05-.84.36-1.22.74-1.3-.12,1.42.55,1.99,1.01,2.26.38.22.84.34,1.32.34.82,0,1.63-.36,2.11-1.15.91-1.63-.24-3.53-2.42-3.53Z"/>
            <path class="cls-3" d="m238.11,108.39c-.48,0-.67-.24-.67-.86v-6.22c0-2.66-1.39-4.46-3.96-4.46-1.7,0-3.14.82-4.01,2.16v-6.86h-.98l-3.98.74v.48l.22.19c.48.34.79.96.79,1.54v12.24c0,.58-.31,1.18-.79,1.54l-.22.17v.5h5.98v-.5l-.24-.17c-.43-.36-.77-.96-.77-1.54v-5.98c.17-1.58.98-2.62,2.11-2.62,1.2,0,1.87,1.06,1.87,2.81v5.47c0,1.9.96,2.76,2.54,2.76,1.8,0,2.69-1.13,2.69-1.73-.22.34-.58.34-.58.34Z"/>
            <path class="cls-3" d="m252.15,108.39c-.48,0-.67-.24-.67-.86v-6c0-3.75-3.02-4.68-5.71-4.68-3.02,0-4.82,1.18-4.82,2.83,0,1.1.84,1.94,1.9,1.94s1.9-.84,1.9-1.85c0-.6-.29-1.13-.7-1.46.12-.1.36-.17.7-.17.84,0,2.11.53,2.59,2.11-.17,1.99-7.2,1.51-7.2,5.93,0,2.16,1.7,3.6,3.91,3.6,1.44,0,2.74-.62,3.53-1.82.26,1.22,1.18,1.82,2.47,1.82,1.8,0,2.66-1.13,2.66-1.73-.19.34-.55.34-.55.34Zm-4.66-3.43c-.14,1.42-1.01,2.35-1.87,2.35-.77,0-1.51-.74-1.51-1.94,0-2.06,2.18-2.47,3.38-3.34v2.93Z"/>
            <path class="cls-3" d="m267.78,108.39c-.48,0-.67-.24-.67-.86v-6.22c0-2.66-1.39-4.46-3.96-4.46-1.7,0-3.14.82-4.01,2.16v-1.9h-.98l-3.98.74v.5l.22.17c.48.34.79.96.79,1.54v7.27c0,.58-.31,1.18-.79,1.54l-.22.17v.5h5.98v-.5l-.24-.17c-.43-.36-.77-.96-.77-1.54v-5.98c.17-1.58.98-2.62,2.11-2.62,1.2,0,1.87,1.06,1.87,2.81v5.47c0,1.9.96,2.76,2.54,2.76,1.8,0,2.69-1.13,2.69-1.73-.22.34-.58.34-.58.34Z"/>
            <path class="cls-3" d="m272.77,96.46c1.27,0,2.3-1.03,2.3-2.28s-1.03-2.3-2.3-2.3-2.28,1.06-2.28,2.3,1.03,2.28,2.28,2.28Z"/>
            <path class="cls-3" d="m275.77,109.04l-.24-.17c-.43-.36-.77-.96-.77-1.54v-10.23h-.98l-3.98.74v.5l.22.17c.48.34.79.96.79,1.54v7.27c0,.58-.31,1.18-.79,1.54l-.22.17v.5h5.98v-.5Z"/>
            <path class="cls-3" d="m290.34,105.99c0-1.58-1.25-3.1-2.9-3.1-1.51,0-2.78,1.27-2.78,2.88,0,2.88,3.98,4.01,6.96,4.01,3.98,0,6.77-2.06,6.77-5.21,0-5.88-9.7-5.66-9.7-8.98,0-1.25,1.37-2.23,3.29-2.23.98,0,1.27.29,1.54.31-.65.53-.84,1.34-.84,1.99,0,1.54,1.03,2.62,2.52,2.62s2.47-1.03,2.47-2.5c0-2.35-2.5-3.91-6.14-3.91-3.96,0-6.62,1.87-6.62,4.61,0,5.26,9.7,5.93,9.7,9.29,0,1.39-1.68,2.52-3.58,2.52-.72,0-1.49-.17-1.75-.29.67-.53,1.08-1.1,1.08-2.02Z"/>
            <path class="cls-3" d="m308.94,107.62c.17,1.46,1.1,2.16,2.52,2.16,1.8,0,2.69-1.13,2.69-1.73-.22.34-.58.34-.58.34-.48,0-.67-.24-.67-.84v-10.44h-1.01l-3.96.74v.5l.22.17c.43.29.7.82.77,1.34v5.5c-.17,1.56-.98,2.54-2.11,2.54-1.2,0-1.87-1.06-1.87-2.83v-7.97h-.98l-3.98.74v.5l.22.17c.48.34.79.96.79,1.54v5.28c0,2.66,1.39,4.44,3.94,4.44,1.75,0,3.19-.82,4.03-2.16Z"/>
            <path class="cls-3" d="m320.5,107.34v-15.19h-.98l-3.98.74v.48l.22.19c.48.34.79.96.79,1.54v12.24c0,.58-.31,1.18-.79,1.54l-.22.17v.5h5.98v-.5l-.24-.17c-.43-.36-.77-.96-.77-1.54Z"/>
            <path class="cls-3" d="m324.1,107.02c0,1.9.94,2.76,2.52,2.76,1.82,0,2.69-1.13,2.69-1.73-.19.34-.58.34-.58.34-.46,0-.67-.24-.67-.86v-8.93h1.42v-1.49h-1.42v-2.23h-1.49c0,1.46-.94,2.23-2.47,2.23h-1.13v1.49h1.13v8.42Z"/>
            <path class="cls-3" d="m338.5,107.96c.26,1.22,1.18,1.82,2.47,1.82,1.8,0,2.66-1.13,2.66-1.73-.19.34-.55.34-.55.34-.48,0-.67-.24-.67-.86v-6c0-3.75-3.02-4.68-5.71-4.68-3.02,0-4.82,1.18-4.82,2.83,0,1.1.84,1.94,1.9,1.94s1.9-.84,1.9-1.85c0-.6-.29-1.13-.7-1.46.12-.1.36-.17.7-.17.84,0,2.11.53,2.59,2.11-.17,1.99-7.2,1.51-7.2,5.93,0,2.16,1.7,3.6,3.91,3.6,1.44,0,2.74-.62,3.53-1.82Zm-.07-5.93v2.93c-.14,1.42-1.01,2.35-1.87,2.35-.77,0-1.51-.74-1.51-1.94,0-2.06,2.18-2.47,3.38-3.34Z"/>
            <path class="cls-3" d="m358.71,108.39c-.48,0-.67-.24-.67-.86v-6.22c0-2.66-1.39-4.46-3.96-4.46-1.7,0-3.14.82-4.01,2.16v-1.9h-.98l-3.98.74v.5l.22.17c.48.34.79.96.79,1.54v7.27c0,.58-.31,1.18-.79,1.54l-.22.17v.5h5.98v-.5l-.24-.17c-.43-.36-.77-.96-.77-1.54v-5.98c.17-1.58.98-2.62,2.11-2.62,1.2,0,1.87,1.06,1.87,2.81v5.47c0,1.9.96,2.76,2.54,2.76,1.8,0,2.69-1.13,2.69-1.73-.22.34-.58.34-.58.34Z"/>
            <path class="cls-3" d="m297.4,128.12c.74,0,1.38-.12,1.91-.37s.94-.59,1.23-1.03.43-.97.43-1.59-.14-1.16-.43-1.61c-.29-.45-.7-.79-1.23-1.03-.53-.24-1.17-.35-1.91-.35h-3.46v8.4h1.56v-2.42h1.9Zm1.48-4.22c.35.29.52.7.52,1.23s-.17.94-.52,1.23c-.35.29-.87.44-1.55.44h-1.82v-3.34h1.82c.69,0,1.21.15,1.55.44Z"/>
            <path class="cls-3" d="m305.83,130.63c.5,0,.95-.11,1.37-.34.28-.15.51-.37.7-.61v.86h1.43v-6.41h-1.5v3.24c0,.42-.07.78-.22,1.07-.14.29-.35.5-.61.65-.26.14-.57.22-.92.22-.47,0-.84-.14-1.1-.43-.26-.28-.4-.71-.4-1.28v-3.47h-1.51v3.66c0,.64.12,1.17.35,1.59.24.42.56.73.98.94.42.2.9.31,1.44.31Z"/>
            <path class="cls-3" d="m312.67,130.08c.38.36.93.55,1.63.55.26,0,.52-.04.78-.11.26-.07.48-.18.66-.32l-.43-1.07c-.22.18-.49.26-.82.26-.29,0-.51-.08-.67-.25s-.24-.4-.24-.71v-3.05h1.73v-1.2h-1.73v-1.46h-1.49v1.46h-1.06v1.2h1.06v3.1c0,.7.19,1.24.58,1.6Z"/>
            <path class="cls-3" d="m319.02,125.12v-.98h-1.43v6.41h1.49v-3.1c0-.67.17-1.17.5-1.5.34-.33.79-.49,1.37-.49.05,0,.1,0,.16,0s.11,0,.17.02v-1.43c-.6,0-1.11.11-1.52.34-.32.18-.55.43-.73.73Z"/>
            <path class="cls-3" d="m328.06,130.54v-3.76c0-.93-.25-1.62-.76-2.06s-1.22-.67-2.16-.67c-.51,0-1,.07-1.48.2-.47.14-.88.34-1.24.6l.59,1.09c.25-.2.54-.36.89-.47.34-.11.69-.17,1.04-.17.54,0,.95.12,1.22.37.27.24.4.59.4,1.03v.1h-1.67c-.65,0-1.17.08-1.56.25-.39.17-.67.4-.85.68-.17.29-.26.61-.26.97s.1.7.29.99c.2.29.47.52.83.68.36.16.78.25,1.26.25.58,0,1.05-.1,1.42-.31.26-.15.45-.36.6-.6v.82h1.42Zm-2.13-1.26c-.29.17-.62.25-.99.25s-.68-.08-.9-.24c-.22-.16-.32-.37-.32-.64,0-.25.09-.45.27-.62.18-.16.52-.25,1.03-.25h1.56v.74c-.14.33-.35.58-.64.74Z"/>
            <path class="cls-3" d="m338.68,130.27c.26-.15.47-.36.67-.6v.87h1.43v-8.9h-1.51v3.27c-.18-.2-.38-.38-.61-.51-.42-.24-.9-.35-1.44-.35-.62,0-1.17.14-1.66.41-.49.27-.88.66-1.16,1.15-.28.5-.42,1.07-.42,1.73s.14,1.24.42,1.73c.28.49.67.88,1.16,1.15.49.27,1.05.41,1.66.41.56,0,1.05-.12,1.47-.35Zm-2.94-1.87c-.17-.31-.26-.66-.26-1.06s.09-.76.26-1.06c.17-.3.4-.53.68-.7.28-.16.61-.25.97-.25s.68.08.97.25.51.4.68.7c.17.3.26.65.26,1.06s-.09.75-.26,1.06c-.17.31-.4.54-.68.71-.28.16-.61.25-.97.25s-.68-.08-.97-.25c-.28-.16-.51-.4-.68-.71Z"/>
            <path class="cls-3" d="m348.7,130.54v-3.76c0-.93-.25-1.62-.76-2.06s-1.22-.67-2.16-.67c-.51,0-1,.07-1.48.2-.47.14-.88.34-1.24.6l.59,1.09c.25-.2.54-.36.89-.47.34-.11.69-.17,1.04-.17.54,0,.95.12,1.22.37.27.24.4.59.4,1.03v.1h-1.67c-.65,0-1.17.08-1.56.25-.39.17-.67.4-.85.68-.17.29-.26.61-.26.97s.1.7.29.99c.2.29.47.52.83.68.36.16.78.25,1.26.25.58,0,1.05-.1,1.42-.31.26-.15.45-.36.6-.6v.82h1.42Zm-2.13-1.26c-.29.17-.62.25-.99.25s-.68-.08-.9-.24c-.22-.16-.32-.37-.32-.64,0-.25.09-.45.27-.62.18-.16.52-.25,1.03-.25h1.56v.74c-.14.33-.35.58-.64.74Z"/>
            <path class="cls-3" d="m352.66,125.12v-.98h-1.43v6.41h1.49v-3.1c0-.67.17-1.17.5-1.5.34-.33.79-.49,1.37-.49.05,0,.1,0,.16,0s.11,0,.17.02v-1.43c-.6,0-1.11.11-1.52.34-.32.18-.55.43-.73.73Z"/>
            <rect class="cls-3" x="356.82" y="124.14" width="1.49" height="6.41"/>
            <path class="cls-3" d="m357.56,121.28c-.28,0-.51.09-.69.26s-.27.38-.27.62c0,.26.09.47.27.65.18.18.41.26.69.26s.52-.09.7-.27.26-.4.26-.65-.09-.47-.27-.63c-.18-.16-.41-.25-.69-.25Z"/>
            <path class="cls-3" d="m20.11,147.29c-.1-.05-.22-.07-.32-.1.33-.17.6-.41.8-.71.21-.32.31-.7.31-1.15,0-.66-.26-1.19-.79-1.59-.53-.4-1.29-.59-2.29-.59h-3.95v8.4h4.19c1.08,0,1.89-.2,2.44-.6.55-.4.82-.96.82-1.68,0-.49-.11-.9-.32-1.22-.22-.33-.51-.58-.89-.75Zm-2.47-2.92c.54,0,.95.1,1.25.29.3.19.44.48.44.88s-.15.67-.44.86c-.3.19-.71.29-1.25.29h-2.21v-2.32h2.21Zm1.66,5.66c-.31.19-.76.29-1.33.29h-2.53v-2.42h2.53c.58,0,1.02.1,1.33.29.31.2.47.5.47.92s-.16.73-.47.92Z"/>
            <path class="cls-3" d="m28.68,145.46c-.49-.27-1.04-.41-1.67-.41-.54,0-1.02.12-1.45.35-.26.14-.47.34-.66.57v-.84h-1.43v8.74h1.49v-3.13c.18.21.39.39.62.53.42.24.9.35,1.43.35.62,0,1.18-.14,1.67-.41.49-.27.87-.65,1.16-1.15.28-.49.43-1.07.43-1.73s-.14-1.23-.43-1.73c-.28-.5-.67-.88-1.16-1.15Zm-.19,3.94c-.17.3-.39.54-.68.71-.28.17-.61.25-.98.25s-.67-.08-.96-.25-.52-.4-.68-.71c-.17-.3-.25-.66-.25-1.06s.08-.76.25-1.06c.17-.3.4-.53.68-.7s.61-.25.96-.25.69.08.98.25c.28.16.51.4.68.7.17.3.25.65.25,1.06s-.08.75-.25,1.06Z"/>
            <polygon class="cls-3" points="38.7 145.14 36.9 145.14 33.79 148.01 33.79 142.64 32.31 142.64 32.31 151.54 33.79 151.54 33.79 149.85 34.9 148.8 37.14 151.54 38.95 151.54 36.02 147.82 38.7 145.14"/>
            <path class="cls-3" d="m41.14,149.64c-.28,0-.52.09-.71.27-.19.18-.29.42-.29.71s.1.54.29.73c.19.19.43.28.71.28.26,0,.49-.09.68-.28.19-.19.29-.43.29-.73s-.1-.53-.29-.71c-.19-.18-.42-.27-.68-.27Z"/>
            <rect class="cls-3" x="48.23" y="143.14" width="1.56" height="8.4"/>
            <path class="cls-3" d="m54.96,145.05c-.51,0-1,.07-1.48.2-.47.14-.88.34-1.24.6l.59,1.09c.25-.2.54-.36.89-.47.34-.11.69-.17,1.04-.17.54,0,.95.12,1.22.37s.4.59.4,1.03v.1h-1.67c-.65,0-1.17.08-1.56.25s-.67.4-.85.68c-.17.29-.26.61-.26.97s.1.7.29.99c.2.29.47.52.83.68.36.16.78.25,1.26.25.58,0,1.05-.1,1.42-.31.26-.15.45-.36.6-.6v.82h1.42v-3.76c0-.93-.25-1.62-.76-2.06-.5-.45-1.22-.67-2.16-.67Zm.79,5.23c-.29.17-.62.25-.99.25s-.68-.08-.9-.24c-.22-.16-.32-.37-.32-.64,0-.25.09-.45.27-.62.18-.16.52-.25,1.03-.25h1.56v.74c-.14.33-.35.58-.64.74Z"/>
            <path class="cls-3" d="m65.41,145.35c-.4-.2-.85-.3-1.37-.3-.56,0-1.05.11-1.48.34-.29.15-.52.37-.71.61v-.86h-1.43v6.41h1.49v-3.24c0-.43.07-.79.22-1.07.15-.28.36-.5.63-.64.27-.14.58-.22.94-.22.49,0,.86.14,1.13.42.26.28.4.7.4,1.27v3.48h1.5v-3.67c0-.65-.12-1.18-.35-1.6s-.55-.72-.95-.92Z"/>
            <polygon class="cls-3" points="81.17 143.14 77.89 148.71 74.56 143.14 73.27 143.14 73.27 151.54 74.76 151.54 74.76 146.05 77.52 150.6 78.23 150.6 80.98 145.97 80.98 151.54 82.48 151.54 82.45 143.14 81.17 143.14"/>
            <path class="cls-3" d="m89.84,145.48c-.52-.28-1.11-.43-1.77-.43s-1.24.14-1.75.43c-.51.28-.92.67-1.21,1.16s-.44,1.06-.44,1.7.15,1.2.44,1.69c.3.5.7.89,1.22,1.17.52.28,1.1.43,1.75.43s1.24-.14,1.76-.43c.52-.28.93-.67,1.22-1.16.29-.49.44-1.06.44-1.7s-.15-1.22-.44-1.7c-.29-.49-.7-.87-1.21-1.16Zm-.11,3.92c-.16.31-.39.54-.68.71-.29.16-.62.25-.98.25s-.67-.08-.96-.25c-.29-.16-.52-.4-.68-.71-.17-.31-.25-.66-.25-1.06s.08-.76.25-1.06c.17-.3.4-.53.68-.7.29-.16.61-.25.97-.25s.68.08.97.25.51.4.68.7c.16.3.25.65.25,1.06s-.08.75-.25,1.06Z"/>
            <polygon class="cls-3" points="99.94 145.14 98.14 145.14 95.03 148.01 95.03 142.64 93.54 142.64 93.54 151.54 95.03 151.54 95.03 149.85 96.13 148.8 98.38 151.54 100.19 151.54 97.25 147.82 99.94 145.14"/>
            <path class="cls-3" d="m106.15,145.48c-.52-.28-1.11-.43-1.77-.43s-1.24.14-1.75.43c-.51.28-.92.67-1.21,1.16s-.44,1.06-.44,1.7.15,1.2.44,1.69c.3.5.7.89,1.22,1.17.52.28,1.1.43,1.75.43s1.24-.14,1.76-.43c.52-.28.93-.67,1.22-1.16.29-.49.44-1.06.44-1.7s-.15-1.22-.44-1.7c-.29-.49-.7-.87-1.21-1.16Zm-.11,3.92c-.16.31-.39.54-.68.71-.29.16-.62.25-.98.25s-.67-.08-.96-.25c-.29-.16-.52-.4-.68-.71-.17-.31-.25-.66-.25-1.06s.08-.76.25-1.06c.17-.3.4-.53.68-.7.29-.16.61-.25.97-.25s.68.08.97.25.51.4.68.7c.16.3.25.65.25,1.06s-.08.75-.25,1.06Z"/>
            <path class="cls-3" d="m114.6,145.91c-.18-.2-.38-.38-.61-.51-.42-.24-.9-.35-1.44-.35-.62,0-1.17.14-1.66.41-.49.27-.88.66-1.16,1.15-.28.5-.42,1.07-.42,1.73s.14,1.24.42,1.73c.28.49.67.88,1.16,1.15.49.27,1.05.41,1.66.41.56,0,1.05-.12,1.47-.35.26-.15.47-.36.67-.6v.87h1.43v-8.9h-1.51v3.27Zm-.22,3.49c-.17.31-.4.54-.68.71-.28.16-.61.25-.97.25s-.68-.08-.97-.25c-.28-.16-.51-.4-.68-.71-.17-.31-.26-.66-.26-1.06s.09-.76.26-1.06c.17-.3.4-.53.68-.7.28-.16.61-.25.97-.25s.68.08.97.25c.28.16.51.4.68.7.17.3.26.65.26,1.06s-.09.75-.26,1.06Z"/>
            <path class="cls-3" d="m123.33,145.48c-.52-.28-1.11-.43-1.77-.43s-1.24.14-1.75.43c-.51.28-.92.67-1.21,1.16s-.44,1.06-.44,1.7.15,1.2.44,1.69c.3.5.7.89,1.22,1.17.52.28,1.1.43,1.75.43s1.24-.14,1.76-.43c.52-.28.93-.67,1.22-1.16.29-.49.44-1.06.44-1.7s-.15-1.22-.44-1.7c-.29-.49-.7-.87-1.21-1.16Zm-.11,3.92c-.16.31-.39.54-.68.71-.29.16-.62.25-.98.25s-.67-.08-.96-.25c-.29-.16-.52-.4-.68-.71-.17-.31-.25-.66-.25-1.06s.08-.76.25-1.06c.17-.3.4-.53.68-.7.29-.16.61-.25.97-.25s.68.08.97.25.51.4.68.7c.16.3.25.65.25,1.06s-.08.75-.25,1.06Z"/>
            <path class="cls-3" d="m136.47,145.35c-.4-.2-.85-.3-1.36-.3-.63,0-1.19.15-1.67.44-.3.18-.53.42-.72.67-.15-.27-.35-.5-.6-.67-.44-.3-.96-.44-1.56-.44-.54,0-1.01.11-1.42.34-.28.15-.49.36-.68.59v-.84h-1.43v6.41h1.49v-3.25c0-.42.07-.78.21-1.06.14-.28.34-.5.59-.64.25-.14.54-.22.87-.22.46,0,.82.14,1.07.42s.38.7.38,1.27v3.48h1.49v-3.25c0-.42.07-.78.21-1.06.14-.28.34-.5.59-.64.25-.14.54-.22.87-.22.46,0,.82.14,1.07.42s.38.7.38,1.27v3.48h1.49v-3.67c0-.65-.11-1.18-.34-1.6-.22-.42-.53-.72-.93-.92Z"/>
            <path class="cls-3" d="m145.48,145.46c-.49-.27-1.04-.41-1.67-.41-.54,0-1.02.12-1.45.35-.26.14-.47.34-.66.57v-.84h-1.43v8.74h1.49v-3.13c.18.21.39.39.62.53.42.24.9.35,1.43.35.62,0,1.18-.14,1.67-.41.49-.27.87-.65,1.16-1.15.28-.49.43-1.07.43-1.73s-.14-1.23-.43-1.73c-.28-.5-.67-.88-1.16-1.15Zm-.19,3.94c-.17.3-.39.54-.68.71-.28.17-.61.25-.98.25s-.67-.08-.96-.25-.52-.4-.68-.71c-.17-.3-.25-.66-.25-1.06s.08-.76.25-1.06c.17-.3.4-.53.68-.7s.61-.25.96-.25.69.08.98.25c.28.16.51.4.68.7.17.3.25.65.25,1.06s-.08.75-.25,1.06Z"/>
            <path class="cls-3" d="m149.84,142.28c-.28,0-.51.09-.69.26-.18.18-.27.38-.27.62,0,.26.09.47.27.65.18.18.41.26.69.26s.52-.09.7-.27c.18-.18.26-.4.26-.65s-.09-.47-.27-.63c-.18-.16-.41-.25-.69-.25Z"/>
            <rect class="cls-3" x="149.1" y="145.14" width="1.49" height="6.41"/>
            <path class="cls-3" d="m155.76,150.39c-.29,0-.51-.08-.67-.25s-.24-.4-.24-.71v-3.05h1.73v-1.2h-1.73v-1.46h-1.49v1.46h-1.06v1.2h1.06v3.1c0,.7.19,1.24.58,1.6.38.36.93.55,1.63.55.26,0,.52-.04.78-.11.26-.07.48-.18.66-.32l-.43-1.07c-.22.18-.49.26-.82.26Z"/>
            <path class="cls-3" d="m165.67,142.64h-1.43c-.46.71-.82,1.55-1.08,2.51-.26.96-.38,2-.38,3.1s.13,2.13.38,3.09c.26.96.62,1.8,1.08,2.53h1.43c-.49-.87-.85-1.77-1.07-2.69s-.34-1.9-.34-2.93.11-2.01.34-2.93.59-1.82,1.07-2.69Z"/>
            <rect class="cls-3" x="171.58" y="143.14" width="1.56" height="8.4"/>
            <path class="cls-3" d="m178.31,145.05c-.51,0-1,.07-1.48.2-.47.14-.88.34-1.24.6l.59,1.09c.25-.2.54-.36.89-.47.34-.11.69-.17,1.04-.17.54,0,.95.12,1.22.37s.4.59.4,1.03v.1h-1.67c-.65,0-1.17.08-1.56.25s-.67.4-.85.68c-.17.29-.26.61-.26.97s.1.7.29.99c.2.29.47.52.83.68.36.16.78.25,1.26.25.58,0,1.05-.1,1.42-.31.26-.15.45-.36.6-.6v.82h1.42v-3.76c0-.93-.25-1.62-.76-2.06-.5-.45-1.22-.67-2.16-.67Zm.79,5.23c-.29.17-.62.25-.99.25s-.68-.08-.9-.24c-.22-.16-.32-.37-.32-.64,0-.25.09-.45.27-.62.18-.16.52-.25,1.03-.25h1.56v.74c-.14.33-.35.58-.64.74Z"/>
            <path class="cls-3" d="m188.75,145.35c-.4-.2-.85-.3-1.37-.3-.56,0-1.05.11-1.48.34-.29.15-.52.37-.71.61v-.86h-1.43v6.41h1.49v-3.24c0-.43.07-.79.22-1.07.15-.28.36-.5.63-.64.27-.14.58-.22.94-.22.49,0,.86.14,1.13.42.26.28.4.7.4,1.27v3.48h1.5v-3.67c0-.65-.12-1.18-.35-1.6s-.55-.72-.95-.92Z"/>
            <path class="cls-3" d="m197.18,142.64h-1.43c.5.87.86,1.77,1.09,2.69s.34,1.9.34,2.93-.11,2.01-.34,2.93-.59,1.82-1.09,2.69h1.43c.48-.73.85-1.57,1.1-2.53s.38-1.99.38-3.09-.13-2.14-.38-3.1c-.25-.96-.62-1.8-1.1-2.51Z"/>
            <path class="cls-3" d="m212.12,147.76l-1.2-.38c-.1.55-.27,1-.48,1.41l-1.8-1.73c.26-.14.49-.29.69-.42.36-.26.62-.53.79-.81.16-.28.25-.59.25-.93,0-.38-.09-.71-.28-.98-.19-.27-.45-.48-.79-.63-.34-.15-.73-.22-1.18-.22-.49,0-.92.08-1.29.25s-.66.39-.85.69-.29.64-.29,1.03c0,.22.04.44.11.65s.19.43.36.65c.13.17.29.36.48.55-.32.18-.62.36-.85.55-.38.29-.66.6-.83.92s-.26.68-.26,1.09c0,.43.13.82.4,1.15.27.34.63.6,1.09.79.46.19.98.29,1.57.29.75,0,1.43-.16,2.03-.47.29-.15.54-.33.79-.54l1.06,1.02.83-.97-1.07-1.02c.35-.55.61-1.18.76-1.92Zm-4.79-3.4c.19-.16.45-.25.79-.25.31,0,.55.07.72.22.17.15.25.34.25.58,0,.18-.05.34-.16.5-.11.16-.3.33-.56.5-.15.1-.34.21-.55.32-.16-.16-.3-.31-.4-.42-.14-.16-.24-.3-.29-.43s-.07-.26-.07-.41c0-.26.09-.47.28-.63Zm1.91,5.74c-.42.22-.89.34-1.4.34-.34,0-.64-.05-.9-.15-.26-.1-.45-.24-.59-.42-.14-.18-.21-.39-.21-.62s.06-.43.17-.62c.11-.19.3-.38.55-.57.16-.12.37-.24.6-.37l2.2,2.11c-.13.11-.27.22-.42.3Z"/>
            <rect class="cls-3" x="218.29" y="143.14" width="1.56" height="8.4"/>
            <path class="cls-3" d="m227.79,145.46c-.49-.27-1.04-.41-1.67-.41-.53,0-1,.12-1.43.35-.24.13-.44.31-.62.53v-3.29h-1.49v8.9h1.43v-.85c.19.23.4.43.66.58.43.24.92.35,1.45.35.62,0,1.18-.14,1.67-.41.49-.27.87-.65,1.16-1.15.28-.49.43-1.07.43-1.73s-.14-1.23-.43-1.73c-.28-.5-.67-.88-1.16-1.15Zm-.19,3.94c-.17.31-.39.54-.68.71-.28.16-.61.25-.98.25s-.67-.08-.96-.25c-.29-.16-.52-.4-.68-.71-.17-.31-.25-.66-.25-1.06s.08-.76.25-1.06c.17-.3.4-.53.68-.7s.61-.25.96-.25.69.08.98.25c.28.16.51.4.68.7.17.3.25.65.25,1.06s-.08.75-.25,1.06Z"/>
            <path class="cls-3" d="m236.11,148.38c0,.42-.07.78-.22,1.07-.14.29-.35.5-.61.65-.26.14-.57.22-.92.22-.47,0-.84-.14-1.1-.43-.26-.28-.4-.71-.4-1.28v-3.47h-1.51v3.66c0,.64.12,1.17.35,1.59.24.42.56.73.98.94.42.2.9.31,1.44.31.5,0,.95-.11,1.37-.34.28-.15.5-.37.7-.6v.86h1.43v-6.41h-1.5v3.24Z"/>
            <polygon class="cls-3" points="245.79 147.92 249.85 147.92 249.85 146.64 245.79 146.64 245.79 144.46 250.37 144.46 250.37 143.14 244.23 143.14 244.23 151.54 250.53 151.54 250.53 150.22 245.79 150.22 245.79 147.92"/>
            <rect class="cls-3" x="252.74" y="142.64" width="1.49" height="8.9"/>
            <path class="cls-3" d="m257.55,142.28c-.28,0-.51.09-.69.26-.18.18-.27.38-.27.62,0,.26.09.47.27.65.18.18.41.26.69.26s.52-.09.7-.27c.18-.18.26-.4.26-.65s-.09-.47-.27-.63c-.18-.16-.41-.25-.69-.25Z"/>
            <rect class="cls-3" x="256.81" y="145.14" width="1.49" height="6.41"/>
            <path class="cls-3" d="m263.31,145.05c-.51,0-1,.07-1.48.2-.47.14-.88.34-1.24.6l.59,1.09c.25-.2.54-.36.89-.47.34-.11.69-.17,1.04-.17.54,0,.95.12,1.22.37.27.24.4.59.4,1.03v.1h-1.67c-.65,0-1.17.08-1.56.25-.39.17-.67.4-.85.68-.17.29-.26.61-.26.97s.1.7.29.99c.2.29.47.52.83.68.36.16.78.25,1.26.25.58,0,1.05-.1,1.42-.31.26-.15.45-.36.6-.6v.82h1.42v-3.76c0-.93-.25-1.62-.76-2.06s-1.22-.67-2.16-.67Zm.79,5.23c-.29.17-.62.25-.99.25s-.68-.08-.9-.24c-.22-.16-.32-.37-.32-.64,0-.25.09-.45.27-.62.18-.16.52-.25,1.03-.25h1.56v.74c-.14.33-.35.58-.64.74Z"/>
            <path class="cls-3" d="m277.82,147.4c-.3-.17-.62-.31-.97-.42-.35-.11-.71-.2-1.07-.28-.36-.08-.69-.16-.98-.25-.29-.09-.53-.21-.71-.37-.18-.16-.27-.36-.27-.62,0-.21.06-.4.19-.57s.32-.31.59-.41c.27-.1.62-.16,1.04-.16.37,0,.75.05,1.15.16.4.11.79.27,1.16.5l.49-1.21c-.37-.24-.8-.42-1.3-.55s-1-.19-1.5-.19c-.77,0-1.4.11-1.9.34-.5.23-.87.53-1.12.91-.24.38-.37.8-.37,1.25s.09.82.27,1.1c.18.29.42.52.71.69.3.17.62.31.98.43.36.11.71.21,1.07.28.36.08.68.16.97.25.29.09.53.22.71.37.18.16.28.36.28.62,0,.21-.06.39-.19.56s-.33.29-.6.39c-.27.1-.63.14-1.07.14-.52,0-1.03-.09-1.52-.26s-.91-.4-1.25-.66l-.54,1.21c.36.3.84.54,1.43.73.6.19,1.22.28,1.88.28.77,0,1.4-.11,1.91-.34.5-.23.88-.53,1.12-.91s.37-.79.37-1.24-.09-.8-.27-1.09c-.18-.28-.42-.51-.71-.68Z"/>
            <path class="cls-3" d="m285.51,148.38c0,.42-.07.78-.22,1.07-.14.29-.35.5-.61.65-.26.14-.57.22-.92.22-.47,0-.84-.14-1.1-.43-.26-.28-.4-.71-.4-1.28v-3.47h-1.51v3.66c0,.64.12,1.17.35,1.59.24.42.56.73.98.94.42.2.9.31,1.44.31.5,0,.95-.11,1.37-.34.28-.15.5-.37.7-.6v.86h1.43v-6.41h-1.5v3.24Z"/>
            <path class="cls-3" d="m293.68,148.25c-.24-.12-.49-.22-.77-.29-.28-.07-.56-.12-.85-.17s-.54-.09-.77-.14c-.23-.05-.42-.13-.56-.22-.14-.1-.22-.24-.22-.43,0-.21.11-.38.34-.51.22-.13.56-.2,1.01-.2.3,0,.61.03.92.1.31.07.62.19.91.37l.59-1.14c-.3-.18-.67-.31-1.11-.41-.44-.1-.88-.15-1.3-.15-.58,0-1.07.08-1.49.25s-.75.4-.98.7c-.23.3-.35.65-.35,1.05,0,.38.07.68.22.9.14.22.33.4.56.53.23.13.49.23.77.3.28.07.57.12.85.16s.54.08.77.13c.23.05.42.12.56.21.14.09.22.23.22.4,0,.22-.11.39-.32.51s-.55.19-1.01.19c-.41,0-.81-.06-1.21-.17-.4-.12-.74-.27-1.03-.45l-.58,1.14c.3.2.69.37,1.18.51.49.14,1,.21,1.55.21.6,0,1.11-.08,1.54-.25s.76-.39,1-.68c.24-.29.35-.64.35-1.05,0-.36-.07-.65-.22-.88-.14-.22-.33-.4-.57-.52Z"/>
            <path class="cls-3" d="m298.81,145.05c-.51,0-1,.07-1.48.2-.47.14-.88.34-1.24.6l.59,1.09c.25-.2.54-.36.89-.47.34-.11.69-.17,1.04-.17.54,0,.95.12,1.22.37.27.24.4.59.4,1.03v.1h-1.67c-.65,0-1.17.08-1.56.25-.39.17-.67.4-.85.68-.17.29-.26.61-.26.97s.1.7.29.99c.2.29.47.52.83.68.36.16.78.25,1.26.25.58,0,1.05-.1,1.42-.31.26-.15.45-.36.6-.6v.82h1.42v-3.76c0-.93-.25-1.62-.76-2.06s-1.22-.67-2.16-.67Zm.79,5.23c-.29.17-.62.25-.99.25s-.68-.08-.9-.24c-.22-.16-.32-.37-.32-.64,0-.25.09-.45.27-.62.18-.16.52-.25,1.03-.25h1.56v.74c-.14.33-.35.58-.64.74Z"/>
            <path class="cls-3" d="m309.26,145.35c-.4-.2-.85-.3-1.37-.3-.56,0-1.05.11-1.48.34-.29.15-.52.37-.71.61v-.86h-1.43v6.41h1.49v-3.24c0-.43.07-.79.22-1.07.15-.28.36-.5.63-.64.27-.14.58-.22.94-.22.49,0,.86.14,1.13.42.26.28.4.7.4,1.27v3.48h1.5v-3.67c0-.65-.12-1.18-.35-1.6-.24-.42-.55-.72-.95-.92Z"/>
            <path class="cls-3" d="m315.67,150.39c-.29,0-.51-.08-.67-.25s-.24-.4-.24-.71v-3.05h1.73v-1.2h-1.73v-1.46h-1.49v1.46h-1.06v1.2h1.06v3.1c0,.7.19,1.24.58,1.6.38.36.93.55,1.63.55.26,0,.52-.04.78-.11.26-.07.48-.18.66-.32l-.43-1.07c-.22.18-.49.26-.82.26Z"/>
            <path class="cls-3" d="m319.51,142.28c-.28,0-.51.09-.69.26s-.27.38-.27.62c0,.26.09.47.27.65.18.18.41.26.69.26s.52-.09.7-.27.26-.4.26-.65-.09-.47-.27-.63c-.18-.16-.41-.25-.69-.25Z"/>
            <rect class="cls-3" x="318.77" y="145.14" width="1.49" height="6.41"/>
            <path class="cls-3" d="m329.65,142.64h-1.43c-.46.71-.82,1.55-1.08,2.51-.26.96-.38,2-.38,3.1s.13,2.13.38,3.09.62,1.8,1.08,2.53h1.43c-.49-.87-.85-1.77-1.07-2.69-.23-.92-.34-1.9-.34-2.93s.11-2.01.34-2.93c.23-.92.59-1.82,1.07-2.69Z"/>
            <polygon class="cls-3" points="337.11 147.92 341.17 147.92 341.17 146.64 337.11 146.64 337.11 144.46 341.68 144.46 341.68 143.14 335.55 143.14 335.55 151.54 341.85 151.54 341.85 150.22 337.11 150.22 337.11 147.92"/>
            <rect class="cls-3" x="344.06" y="142.64" width="1.49" height="8.9"/>
            <path class="cls-3" d="m348.87,142.28c-.28,0-.51.09-.69.26s-.27.38-.27.62c0,.26.09.47.27.65.18.18.41.26.69.26s.52-.09.7-.27.26-.4.26-.65-.09-.47-.27-.63c-.18-.16-.41-.25-.69-.25Z"/>
            <rect class="cls-3" x="348.13" y="145.14" width="1.49" height="6.41"/>
            <path class="cls-3" d="m356.8,142.64h-1.43c.5.87.86,1.77,1.09,2.69.23.92.34,1.9.34,2.93s-.11,2.01-.34,2.93c-.23.92-.59,1.82-1.09,2.69h1.43c.48-.73.85-1.57,1.1-2.53s.38-1.99.38-3.09-.13-2.14-.38-3.1c-.25-.96-.62-1.8-1.1-2.51Z"/>
          </g>
          <path class="cls-6" d="m184.33,96.76c-19.79,3.9-25.35,5.34-25.35,8.51,0,4.46,16,22.29,32.31,30.8,1.02.56,1.27.7,1.27,1.16,0,.35-.14.56-.53.56-.49,0-1.37-.32-2.78-.98-15.08-6.96-32.2-26.12-32.2-31.64,0-3.2.32-3.52,1.83-6.15,1.76-3.06,2.5-4.39,2.5-4.54-.14,0-20.81,27.42-21.83,29.21-.25.49-.56.67-.84.67-.39,0-.7-.39-.7-.77,0-.28.14-.6.46-1.2.67-1.16,20.99-28.3,24.26-32.34,2.64-3.27,3.66-4.39,4.29-4.39.25,0,.42.18.63.46.07.11.11.18.11.28,0,.46-.49,1.3-2.18,4.22-3.06,5.17-5.91,10.12-5.91,10.12l-.46.74,1.44-.7c9.28-4.61,51.61-9.56,51.61-13.25,0-1.2-5.45-2.81-11.81-3.55-2.53-.28-9.18-.49-14.94-.49-15.26,0-37.27,3.27-37.27,4.39,0,.25.42.74.6.91.25.18.35.39.35.63s-.11.46-.32.63c-.11.07-.21.11-.32.11-.81,0-2.07-1.79-2.07-2.57,0-.88,1.12-1.48,3.73-2.07,9.49-2.25,24.75-3.73,38.04-3.73,11.88,0,26.12,1.58,26.12,5.8,0,3.69-14.06,6.01-30.02,9.18Zm2.19,22.61c0-2.74,6.01-5.91,8.96-5.91,1.16,0,1.48.56,1.48,1.09,0,.42-.25.81-.42.81l-.14,1.3c0,.95.28,2.07,1.62,2.07,2.85,0,9.18-3.38,9.18-3.38.21,0,.84.63.84.95,0,.42-7.17,4.01-10.12,4.01-2.78,0-2.95-2.46-2.95-3.06v-.11c-1.58,1.27-4.01,4.22-6.75,4.22-1.16,0-1.69-1.05-1.69-2Zm8.19-3.97h-.04c-1.93,0-6.57,1.93-6.57,4.01,0,.18.25.35.56.35,1.55-.07,5.1-3.52,6.05-4.36Zm20.37,4.61c0-1.3,1.65-4.01,1.65-4.29-.53,0-6.61,5.24-7.73,5.24-.53,0-.95-.42-.95-.84,0-.95.95-2.43,1.69-3.38.63-.84,1.62-2.36,2.36-2.36.21,0,.63.21.63.63,0,.39-1.72,2.43-1.72,2.67,3.83-2.39,5.41-4.29,6.68-4.29.42,0,1.05.53,1.05,1.16,0,1.16-1.12,3.27-1.12,3.59,0,0,6.64-4.85,7.35-4.85.32,0,1.16.53,1.16,1.27,0,.32-1.3,1.97-1.3,3.2,0,.7.46,1.27,2,1.27,2.21,0,8.02-3.66,8.02-3.66.32,0,.32.32.32.63,0,1.44-6.47,4.43-8.75,4.43s-3.09-1.2-3.09-2.46c0-1.02.46-2.07.84-2.53-2.57,1.51-6.75,5.1-7.91,5.52-.49,0-1.16-.21-1.16-.95Z"/>
        </g>
        <g class="cls-7">
          <image width="562" height="749" transform="translate(374.86 6.98) scale(.19)" xlink:href="../foto/New folder/rama.jpg"/>
        </g>
        <g>
          <polygon class="cls-3" points="6 13.91 6 114.7 7.05 114.7 7.05 14.96 89.85 14.96 89.85 13.91 6 13.91"/>
          <path class="cls-3" d="m5.49,6.98s-.21.13-.48.38C3.59,8.63-.38,13.39.41,26.4c.22,3.6.11,7.33-.32,10.98-.03.08-.06.15-.09.22v14.08c2.79-5.99,4.03-13.78,2.38-23.91,0,0,1.87,6.33,8.65,9.26h-.13s.1.02.27.06c.54.23,1.11.43,1.71.61,1.8.85,4.31,2.69,5.32,6.6.83,3.24-.62,4.16-.04,5.39.58,1.22.37,2.15-.12,2.64,0,0,3.42-2.02,1.5-5.63,0,0,1.78.61,2.98.38,0,0-1.14-3.81-4.12-5.38,0,0,1.47-.21,1.77-.58,0,0-1.73-1.57-4.11-2.77,1.5.17,3.15.2,4.96.02,2.65-.25,4.92-1.09,6.8-2.32-.6.94-1.07,2.11-1.27,3.44-.6,3.93,1.49,8.05,3.45,9.47,1.96,1.42,1.78,2.64.83,2.9-.95.26-1.07-.78-1.07-.78-.73.6.37,2.33,1.71,1.31,1.24-.94.31-2.53.31-2.53,0,0,4.88,1.61,6.89-2.65,1.93-4.12-2.38-5.61-2.6-5.68.19.11,3.03,1.74,2.17,4.51-.89,2.86-3.73,2.86-3.73,2.86,1.21-1.64.72-2.57.72-2.57-.8,3.81-4.8,1.34-4.8,1.34,0,0,1.67,0,2.55-1.85.88-1.85-1.7-3.3-1.7-3.3,0,0,1.82,2.32.12,3.1-1.69.78-4.04-1.8-4.17-4.88-.14-3.33,3.51-5.95,4.87-4.84,1.36,1.11-.16,2.11-.16,2.11.8.41,3.39-1.56,1.39-3.44-.89-.84-1.92-1.01-2.92-.68,6.14-6.65,5.01-18.5-5.54-21.42,0,0,13.16,9.25,2.93,19.8-10.18,10.5-32.59.05-22.47-24.9.05-.13.1-.25.15-.38Z"/>
          <path class="cls-3" d="m10.8,70.92c-1.17.18-1.98,1.26-1.8,2.43.17,1.17,1.26,1.98,2.43,1.8.84-.12,1.48-.72,1.72-1.48,1.3.55,2.7,1.62,3.03,3.7.64,4.1-2.89,5.85-2.89,5.85.5-2.78-.69-3.64-.69-3.64,1.34,5.23-5.15,4.61-5.15,4.61,0,0,2.08-1.03,2.05-3.87-.04-2.84-4.15-3.06-4.15-3.06,0,0,3.68,1.78,2.05,3.79-1.45,1.78-5.14.59-7.39-2.32v2.09c2.28,2.91,5.44,4.87,7.73,5.26,3.31.56,3.83,2.19,2.8,3.1-1.03.91-1.8-.32-1.8-.32-.55,1.2,1.88,2.67,2.93.59.97-1.93-1.18-3.35-1.18-3.35,0,0,7.07-.99,6.95-7.52-.07-3.75-2.31-4.99-4.19-5.38.01-.15.01-.31-.01-.47-.17-1.17-1.26-1.98-2.43-1.8Z"/>
          <path class="cls-3" d="m0,66.28v3.36c.7-.85,1.53-1.32,2.31-1.14,2.37.55,1.09,2.72,1.09,2.72,1.25.02,3.26-4.01-.38-5.13-1.12-.35-2.15-.25-3.02.19Z"/>
          <path class="cls-3" d="m17.72,34.54c1.17-.17,1.97-1.26,1.8-2.43-.17-1.17-1.26-1.97-2.43-1.8-1.17.18-1.98,1.26-1.8,2.43.17,1.17,1.26,1.98,2.43,1.8Z"/>
          <path class="cls-3" d="m27.47,48.2c-.13-.88-.95-1.48-1.82-1.35-.88.13-1.48.94-1.35,1.82.13.88.94,1.48,1.82,1.35.88-.13,1.48-.94,1.35-1.82Z"/>
          <path class="cls-3" d="m6.89,35.23s-4.3,11.49,8.05,12.21c0,0-1.73-1.14-1.95-3.92-.21-2.78-2.04-5.84-4.58-6.67,0,0-.11,2.39,1.58,3.62,0,0-3.83-1.06-3.11-5.24Z"/>
          <path class="cls-3" d="m11.67,26.62c-.74-.57-1.61.28-3.69-.75-4.09-2.03-3.76-6-3.76-6-.91,3.04,1.25,6.88,1.25,6.88.3-.16.69-1.12.69-1.12.57,2.24,2.99,3.57,2.99,3.57.36-.78.24-2.07.24-2.07,2.15,1.83,4.11-.2,4.11-.2-.42.26-1.09.27-1.83-.3Z"/>
          <path class="cls-3" d="m9.53,48.17c-.43,3.62,4.86,8.86,4.86,8.86-1.15-.29-7.52-1.34-7.78-6.38-.27-5.05-2.05-8.01-2.05-8.01,0,0,.56,3.9-1.54,9.9-2.11,6,2.22,9.02,4.44,12.47,2.21,3.45-1.72,5.95-1.72,5.95,8.67-2.78,7.61-9.03,7.61-9.03,3.62,3.22,13.15,1.72,13.15,1.72-3.24-.17-5.84-5.2-5.84-5.2,1.83,2.03,6.38,2.21,8.9,1.57,2.51-.64,5.21,1.06,5.21,1.06-4.5-5.51-7.51-5.75-13.81-6.71-6.3-.96-11.43-6.19-11.43-6.19Z"/>
          <path class="cls-3" d="m0,85v8.3c1.28-1.24,2.38-2.6,2.5-3.79-.08.86-.2,5.39,5.54,8.76-.16-.12-2.69-2.22-2.98-8.51-.15-3.27-3.1-5.13-4.06-5.29-.27-.05-.63.16-1,.52Z"/>
          <path class="cls-3" d="m7.05,13.24s1.52,4.34,3.76,5.93c0,0-3.81-1.42-5-5.53,0,0-2.05,6.19,1.18,7.79,3.23,1.59,7.31,1.54,8.88,3.37,0,0,1.36-6.2-1.97-7.67-3.34-1.47-5.77-1.88-6.84-3.89Z"/>
          <path class="cls-3" d="m12.08,96.71s1.52,4.34,3.76,5.93c0,0-3.81-1.42-5-5.53,0,0-2.05,6.19,1.18,7.79,3.23,1.6,7.31,1.55,8.87,3.37,0,0,1.37-6.2-1.97-7.66-3.34-1.47-5.77-1.88-6.84-3.89Z"/>
          <path class="cls-3" d="m14.81,88.31c-2.79,1.72-2.98,5.2-2.66,6.11.32.92,4.06,1.33,5.81.05,0,0-1.18,2.1-5.08,1.42,0,0,3.79,3.79,8.69,2.86,4.89-.93,5.78-6.4,5.78-6.4,0,0-1.96.54-4.35-.4-2.33-.91-5.47-2.02-7.17-1.29.79-.35,4.82-2.44,4.98-9.1,0,0-.47,3.33-6,6.74Z"/>
        </g>
      </g>
    </g>
  </g>
</svg>