<?xml version="1.0" encoding="UTF-8"?>
<svg id="Layer_2" data-name="Layer 2" xmlns="http://www.w3.org/2000/svg" viewBox="0 0 56.75 47.33">
  <defs>
    <style>
      .cls-1 {
        fill: #fff;
        stroke-width: 0px;
      }
    </style>
  </defs>
  <g id="Layer_1-2" data-name="Layer 1">
    <g>
      <polygon class="cls-1" points="53.1 44.17 0 44.17 0 43.62 52.54 43.62 52.54 0 53.1 0 53.1 44.17"/>
      <path class="cls-1" d="m56.75,44.44s-.07.11-.2.26c-.67.75-3.18,2.84-10.03,2.42-1.89-.11-3.86-.06-5.78.17-.04.02-.08.03-.12.05h-7.42c3.16-1.47,7.26-2.12,12.59-1.26,0,0-3.33-.98-4.88-4.56v.07s0-.05-.03-.14c-.12-.28-.23-.58-.32-.9-.45-.95-1.42-2.27-3.48-2.8-1.71-.44-2.19.33-2.84.02-.64-.31-1.13-.19-1.39.06,0,0,1.07-1.8,2.97-.79,0,0-.32-.94-.2-1.57,0,0,2.01.6,2.83,2.17,0,0,.11-.77.3-.93,0,0,.83.91,1.46,2.16-.09-.79-.1-1.66-.01-2.62.13-1.39.58-2.59,1.22-3.58-.49.32-1.11.56-1.81.67-2.07.32-4.24-.78-4.99-1.82-.75-1.03-1.39-.94-1.53-.43-.14.5.41.56.41.56-.32.39-1.23-.19-.69-.9.49-.65,1.34-.16,1.34-.16,0,0-.85-2.57,1.4-3.63,2.17-1.02,2.96,1.25,2.99,1.37-.06-.1-.92-1.59-2.37-1.14-1.51.47-1.51,1.96-1.51,1.96.86-.64,1.36-.38,1.36-.38-2.01.42-.71,2.53-.71,2.53,0,0,0-.88.97-1.34.97-.47,1.74.9,1.74.9,0,0-1.22-.96-1.64-.06-.41.89.95,2.13,2.57,2.2,1.75.07,3.14-1.85,2.55-2.57-.58-.72-1.11.09-1.11.09-.22-.42.82-1.78,1.81-.73.44.47.53,1.01.36,1.54,3.5-3.24,9.75-2.64,11.28,2.92,0,0-4.88-6.93-10.43-1.54-5.53,5.36-.03,17.17,13.12,11.84.07-.02.13-.05.2-.08Z"/>
      <path class="cls-1" d="m23.06,41.65c-.09.62-.66,1.04-1.28.95-.62-.09-1.04-.66-.95-1.28.06-.44.38-.78.78-.91-.29-.69-.85-1.42-1.95-1.59-2.16-.34-3.08,1.52-3.08,1.52,1.46-.26,1.92.36,1.92.36-2.75-.71-2.43,2.72-2.43,2.72,0,0,.54-1.1,2.04-1.08,1.5.02,1.61,2.18,1.61,2.18,0,0-.94-1.94-2-1.08-.94.76-.31,2.71,1.22,3.89h-1.1c-1.53-1.2-2.57-2.86-2.77-4.07-.3-1.75-1.15-2.02-1.63-1.47-.48.54.17.95.17.95-.63.29-1.41-.99-.31-1.54,1.02-.51,1.76.62,1.76.62,0,0,.52-3.72,3.96-3.66,1.98.04,2.63,1.22,2.83,2.21.08,0,.16,0,.25,0,.62.09,1.04.66.95,1.28Z"/>
      <path class="cls-1" d="m25.5,47.33h-1.77c.45-.37.7-.81.6-1.22-.29-1.25-1.44-.57-1.44-.57-.01-.66,2.11-1.72,2.7.2.18.59.13,1.13-.1,1.59Z"/>
      <path class="cls-1" d="m42.23,38c.09-.62.66-1.04,1.28-.95.62.09,1.04.66.95,1.28-.09.62-.66,1.04-1.28.95-.62-.09-1.04-.66-.95-1.28Z"/>
      <path class="cls-1" d="m35.03,32.86c.46.07.78.5.71.96-.07.46-.5.78-.96.71-.46-.07-.78-.5-.71-.96.07-.46.5-.78.96-.71Z"/>
      <path class="cls-1" d="m41.87,43.71s-6.06,2.27-6.43-4.24c0,0,.6.91,2.07,1.03,1.46.11,3.07,1.07,3.51,2.41,0,0-1.26.06-1.91-.83,0,0,.56,2.02,2.76,1.64Z"/>
      <path class="cls-1" d="m46.4,41.18c.3.39-.15.85.4,1.94,1.07,2.15,3.16,1.98,3.16,1.98-1.6.48-3.62-.66-3.62-.66.08-.16.59-.36.59-.36-1.18-.3-1.88-1.58-1.88-1.58.41-.19,1.09-.13,1.09-.13-.96-1.13.11-2.16.11-2.16-.14.22-.14.57.16.96Z"/>
      <path class="cls-1" d="m35.05,42.31c-1.91.23-4.67-2.56-4.67-2.56.15.6.7,3.96,3.36,4.1,2.66.14,4.22,1.08,4.22,1.08,0,0-2.05-.3-5.22.81-3.16,1.11-4.75-1.17-6.57-2.34-1.82-1.17-3.13.9-3.13.9,1.47-4.57,4.76-4.01,4.76-4.01-1.69-1.91-.91-6.93-.91-6.93.09,1.71,2.74,3.07,2.74,3.07-1.07-.96-1.16-3.36-.82-4.69.34-1.32-.56-2.74-.56-2.74,2.9,2.37,3.03,3.96,3.53,7.27.51,3.32,3.26,6.02,3.26,6.02Z"/>
      <path class="cls-1" d="m15.65,47.33h-4.37c.65-.68,1.37-1.25,2-1.32-.45.04-2.84.1-4.62-2.92.06.08,1.17,1.42,4.48,1.57,1.72.08,2.7,1.63,2.79,2.14.02.14-.08.33-.28.53Z"/>
      <path class="cls-1" d="m53.45,43.62s-2.29-.8-3.12-1.98c0,0,.75,2.01,2.91,2.63,0,0-3.26,1.08-4.1-.62-.84-1.7-.81-3.85-1.77-4.68,0,0,3.27-.72,4.04,1.04.77,1.76.99,3.04,2.05,3.6Z"/>
      <path class="cls-1" d="m9.47,40.97s-2.29-.8-3.12-1.98c0,0,.75,2.01,2.91,2.63,0,0-3.26,1.08-4.1-.62-.84-1.7-.81-3.85-1.77-4.67,0,0,3.26-.72,4.04,1.04.77,1.76.99,3.04,2.05,3.6Z"/>
      <path class="cls-1" d="m13.9,39.53c-.9,1.47-2.74,1.57-3.22,1.4-.48-.17-.7-2.14-.03-3.06,0,0-1.11.62-.75,2.68,0,0-2-2-1.51-4.58.49-2.58,3.37-3.04,3.37-3.04,0,0-.28,1.03.21,2.29.48,1.22,1.06,2.88.68,3.77.18-.42,1.29-2.54,4.8-2.63,0,0-1.76.25-3.55,3.16Z"/>
    </g>
  </g>
</svg>