<?xml version="1.0" encoding="UTF-8"?>
<svg id="Layer_2" data-name="Layer 2" xmlns="http://www.w3.org/2000/svg" viewBox="0 0 57.95 39.53">
  <defs>
    <style>
      .cls-1 {
        fill: #fff;
        stroke-width: 0px;
      }
    </style>
  </defs>
  <g id="Layer_1-2" data-name="Layer 1">
    <g>
      <path class="cls-1" d="m34.71.11c-.85,12.64-13.99,15.39-15.49,15.66-.09.02-.14.02-.14.02-.03.06-.07.11-.1.17,0,0,0,0,0,0-2.69,4.29-6.43,3.43-8.43,2.82-1.99-.6-3.66.14-3.73.18.9-2.5,4.13-4.84,6.24-4.34,2.1.5,4.82-.23,4.82-.23-1.76-.17-3.65-1-5.27-2.34-.25-.21-.5-.43-.73-.66-2.39-2.33-3.99-5.83-3.29-9.94.08-.48.19-.93.32-1.35h1.97c-.77,2.97.07,6.4,2.76,9.31,1.02,1.11,2.11,1.88,3.18,2.4.15.07.29.14.44.2,4.09,1.74,7.94.1,7.94.1-7.72-.08-7.26-9.13-2.58-10.58,4.68-1.45,4.85,2.24,3.99,3.24-.86,1-2.41.12-1.78-.82.63-.94,1.7.25,1.7.25.55-2.12-2.24-3.6-4.72-1.28-2.49,2.32-1.11,9.26,4.66,7.8.57-.14,1.09-.36,1.59-.65.04-.02.09-.05.13-.08.22-.14.44-.29.65-.45.3-.23.58-.49.84-.78,1.85-1.99,2.95-5.17,3.38-8.67h1.69Z"/>
      <path class="cls-1" d="m45.11,11.39c-.58-.11-.95-.67-.84-1.25.11-.58.67-.95,1.25-.84.58.11.95.67.84,1.25-.11.58-.67.95-1.25.84Z"/>
      <path class="cls-1" d="m42.39,27.48c-.58-.11-.95-.67-.84-1.25.11-.58.67-.95,1.25-.84.58.11.95.67.84,1.25-.11.58-.67.95-1.25.84Z"/>
      <path class="cls-1" d="m13.33,7.46c-.58-.11-.95-.67-.84-1.25.11-.58.67-.95,1.25-.84.58.11.95.67.84,1.25-.11.58-.67.95-1.25.84Z"/>
      <path class="cls-1" d="m48.97,13.47s-.5-5.73-5.12-9.04c0,0,5.71,2.05,5.12,9.04Z"/>
      <path class="cls-1" d="m17.68,12.61s-4.72-3.25-.17-6.82c0,0-.36.9.3,2.02.66,1.12.78,2.78.03,3.77,0,0-.68-.89-.36-1.81,0,0-1.18,1.43.21,2.83Z"/>
      <path class="cls-1" d="m28.38,10.64s-3.46-4.56,1.96-6.54c0,0-.62.74-.34,2.01.28,1.27-.13,2.88-1.15,3.59,0,0-.37-1.05.22-1.83,0,0-1.57.99-.69,2.76Z"/>
      <path class="cls-1" d="m48.69,4.88s-4.59-.85-3.51-4.77h1.27c.11.11.24.23.4.33,1.06.75,1.85,2.22,1.57,3.44,0,0-.98-.53-1.07-1.5,0,0-.5,1.79,1.35,2.5Z"/>
      <path class="cls-1" d="m52.59,22.24s-2.11-1.52-4.77-2.87c-2.67-1.35-4.73-4.89-2.16-6.24,2.57-1.35,3.11,1.48,2.41,2.12-.71.64-1.31.22-1.31.22,0,0,.71-.12.26-.64-.38-.45-1.15.5-.42.94.8.49,2.78-.65,1.63-2.58-1.38-2.33-4.85-.38-4.55,2.14.3,2.56,1.95,4.06,4.2,5.02,2.78,1.19,4.34,1.62,5.4,3.06,0,0-.12-.63-.7-1.19Z"/>
      <path class="cls-1" d="m44.73,23.12s.81.97,1.46-.05c.65-1.02-1.44-3.32-3.71-2.96-2.1.33-3.69,2.15-3.02,3.25.67,1.1,2.12-.33,2.12-.33,0,0-.79,1.89-2.13,1.43-1.34-.46-1.47-1.61-1.47-1.61,0,0-1.37,2.95,1.3,3.19,0,0-.6.41-1.82-.29,0,0,.23,1.95,2.26,2.33,2.03.38,2.92-1.85,2.92-1.85,0,0-.63,3.27-3.69,2.24-3.08-1.04-2.37-4.52-2.37-4.52,0,0-1.02.77-1.77,0-.8-.84.29-1.73.76-1.28,0,0-.71.16-.45.79.25.63,1.1.67,1.92-.79.82-1.46,3.49-3.22,6.23-3.12,3.18.12,5.31,2.39,3.92,4.25-1.13,1.52-2.69-.1-2.47-.68Z"/>
      <path class="cls-1" d="m27.74.82s-1.51.36-2.23-.7h.46c.62.76,1.77.7,1.77.7Z"/>
      <path class="cls-1" d="m30.7,3.08c-1.34-.29-.74-1.79-.29-1.83,0,0-.39.82.47.94.63.09,1.26-.97,1.22-2.09h.48c.35,1.78-.48,3.27-1.88,2.97Z"/>
      <path class="cls-1" d="m54.52,29.85s-3.31,1.53-4.82,4.33c-1.5,2.79-2.12,4.16-5.45,5.35,0,0,1.25-.98,1.37-2.27.12-1.29.96-3.39,2.22-3.91,0,0-2.79.38-3.41,1.87,0,0,.89-4.72,3-5.88,0,0-3.11-.55-2.96-5.08,0,0,.51,2.26,2.5,1.8,1.99-.46,4.13-1.99,6.59,0,2.46,1.99,4.39,2.38,4.39,2.38,0,0-1.69.34-4.1-.38-2.41-.72-3.96,2.1-4.29,2.58,0,0,3.34-1.6,4.97-.8Z"/>
      <path class="cls-1" d="m26.99,14.3s2.08-.74,3.14-2.34c1.06-1.6,1.51-2.39,3.58-2.93,0,0-.8.52-.95,1.29-.14.77-.77,1.99-1.56,2.24,0,0,1.7-.07,2.16-.94,0,0-.8,2.8-2.13,3.38,0,0,1.84.5,1.51,3.23,0,0-.19-1.39-1.41-1.22-1.22.17-2.6.97-3.97-.37-1.37-1.34-2.51-1.68-2.51-1.68,0,0,1.03-.11,2.45.46,1.41.57,2.51-1.04,2.73-1.32,0,0-2.1.78-3.04.21Z"/>
      <g>
        <path class="cls-1" d="m40.36,19.39s2.99-1.27,2.52-3c-.47-1.73-1.83-3.24-1.66-4.42,0,0-2.76,1.53-2.21,3.26.55,1.73,1.2,2.77.8,3.83,0,0,1.12-2,.98-3.36,0,0,.72,1.89-.42,3.69Z"/>
        <path class="cls-1" d="m39.23,19.03s.17-2.67-1.79-4.19c-1.96-1.52-4.29-.05-4.29-.05,0,0,.85.56,1.28,1.76.44,1.2,1.08,2.79,1.94,3.13,0,0-2.28-1.26-5.11,1.1,0,0,1.4-.92,4.49.02,1.56.48,2.92-.6,3.16-1.02.24-.42-.84-1.95-1.9-2.19,0,0,1.17-.25,2.21,1.43Z"/>
      </g>
      <g>
        <path class="cls-1" d="m5.69.11c.81.87,1.37,2.24,1.37,2.24-.55-.92-1.7-1.06-3.3-1.67-.31-.12-.54-.32-.71-.58h2.64Z"/>
        <path class="cls-1" d="m7.64,2.14c-.35-1.01-1.03-1.65-1.59-2.03h1.79c.09.99-.2,2.03-.2,2.03Z"/>
        <path class="cls-1" d="m6.7,2.75s-1.87-1.69-4.14-1.14C.29,2.16,0,4.75,0,4.75c0,0,.91-.3,2.05.09,1.14.38,2.7.84,3.45.41,0,0-2.27.94-2.19,4.42,0,0,.14-1.57,2.66-3.3,1.27-.87,1.28-2.51,1.11-2.93-.17-.42-1.94-.53-2.73.11,0,0,.5-1.01,2.35-.79Z"/>
      </g>
      <g>
        <path class="cls-1" d="m31.35,22.28s-2.56-2-3.85-.75c-1.29,1.25-1.95,3.17-3.06,3.6,0,0,2.68,1.68,3.92.36,1.25-1.32,1.85-2.39,2.97-2.56,0,0-2.29-.01-3.41.77,0,0,1.3-1.55,3.43-1.42Z"/>
        <path class="cls-1" d="m31.58,23.44s-2.41,1.14-2.79,3.6c-.38,2.45,2.03,3.78,2.03,3.78,0,0,.08-1.01.91-1.98.84-.96,1.92-2.3,1.8-3.22,0,0,0,2.61,3.44,3.93,0,0-1.48-.78-2.16-3.94-.34-1.59-1.94-2.27-2.42-2.27-.48,0-1.3,1.68-1,2.72,0,0-.79-.9.18-2.62Z"/>
      </g>
      <path class="cls-1" d="m38.91,6.52c.05-1.44-1.25-2.51-1.25-2.51-.58,1.7.18,2.83.18,2.83-1.01-1.37-2.13-1.14-2.13-1.14.16.93,1.48,1.67,1.48,1.67-1.35-.57-2.49-.03-2.49-.03.94.91,1.74.95,2.08.91-1.57.35-2.24,1.72-2.24,1.72,1.84.28,2.79-.66,3.09-1.03-.94,1.35-.54,2.86-.54,2.86,1.44-.9,1.69-2.46,1.69-2.46-.23,1.41.72,2.73.72,2.73.79-1.24.56-2.18.36-2.64.72,1.06,2.26,1.19,2.26,1.19.09-1.37-1.54-2.16-1.99-2.34,1.73.67,2.75.21,2.75.21-1.08-1.31-2.59-1.1-2.92-1.03,2.03-.44,2.29-1.79,2.29-1.79-1.23-.31-2.58,1.14-2.58,1.14,1.08-1.44.48-2.88.48-2.88-.9,1.18-1.22,2.58-1.22,2.58Zm.29.89c.35.24.44.73.2,1.08-.24.35-.73.44-1.08.2-.35-.24-.44-.73-.2-1.08.24-.35.73-.44,1.08-.2Z"/>
      <path class="cls-1" d="m24.96,17.33c.61-.78.32-1.89.32-1.89-1,.7-1.05,1.63-1.05,1.63,0-1.16-.72-1.49-.72-1.49-.29.58.14,1.52.14,1.52-.51-.86-1.36-1.02-1.36-1.02.15.88.58,1.22.78,1.34-1.01-.44-1.93.05-1.93.05.9.9,1.81.76,2.12.68-1.06.37-1.45,1.36-1.45,1.36,1.16.09,1.93-.68,1.93-.68-.69.68-.71,1.8-.71,1.8.93-.37,1.19-.98,1.26-1.31-.03.88.76,1.57.76,1.57.6-.72.02-1.81-.15-2.1.68,1.06,1.43,1.22,1.43,1.22-.06-1.16-.98-1.65-1.19-1.75,1.29.58,1.98-.06,1.98-.06-.55-.67-1.89-.41-1.89-.41,1.18-.36,1.43-1.4,1.43-1.4-.97.29-1.71.94-1.71.94Zm-.2.61c.1.28-.05.58-.32.68-.28.1-.58-.05-.68-.33-.1-.28.05-.58.33-.68.28-.1.58.05.68.33Z"/>
      <path class="cls-1" d="m41.1,34.26c.28,1.23,1.62,1.85,1.62,1.85.11-1.57-.78-2.36-.78-2.36,1.16.94,2.06.49,2.06.49-.34-.76-1.63-1.08-1.63-1.08,1.27.18,2.11-.53,2.11-.53-1-.56-1.69-.41-1.97-.31,1.25-.65,1.51-1.96,1.51-1.96-1.62.17-2.22,1.18-2.39,1.56.49-1.36-.18-2.55-.18-2.55-1.02,1.08-.89,2.47-.89,2.47-.12-1.24-1.22-2.16-1.22-2.16-.39,1.23.01,1.98.29,2.32-.85-.74-2.18-.51-2.18-.51.23,1.18,1.79,1.48,2.21,1.54-1.61-.18-2.38.43-2.38.43,1.21.87,2.44.36,2.7.23-1.62.82-1.54,2.02-1.54,2.02,1.11,0,1.94-1.55,1.94-1.55-.59,1.46.24,2.55.24,2.55.5-1.2.45-2.46.45-2.46Zm-.44-.69c-.35-.13-.54-.52-.41-.87.13-.35.52-.54.87-.41.35.13.54.52.41.87-.13.35-.52.54-.87.41Z"/>
      <path class="cls-1" d="m17.5,1.36c.15.02,1.62.19,2.85-.85,0,0-.39-.25-1-.4-.48-.12-1.1-.18-1.77,0-.04,0-.08.02-.12.03.03,0,.05-.02.08-.03h-3.72c.26.22.57.4.94.51,0,0-1.43-.13-2.83.36,0,0,1.19,1.02,2.89.44-.11.05-1.8.87-1.88,2.1,0,0,1.36.16,2.41-1.63-.17.3-.84,1.66.08,3.09,0,0,.75-.83.65-2.68.04.49.28,2.28,1.61,2.62,0,0,.35-1.5-.44-2.51.37.33,1.2.84,2.62.48,0,0-.96-1.3-2.36-1.53Zm-1.02.33c-.41.12-.84-.11-.97-.53-.12-.41.11-.84.53-.97.41-.12.84.11.97.53.12.41-.11.85-.53.97Z"/>
      <g>
        <path class="cls-1" d="m22.55,27.1s.81-3.77-3.12-4.3c0,0,.73,1.21,1.47,2.19,0,0-1.03-.89-1.41-1.8,0,0-.59,2.01.96,2.57,1.62.59,2.1,1.34,2.1,1.34Z"/>
        <path class="cls-1" d="m22.67,20.99s-1.91-1.92-3.74.17c0,0,1.27-.15,1.86-.02,0,0-.92.26-1.61.13,0,0,.96,1.11,1.89.43.97-.72,1.6-.71,1.6-.71Z"/>
        <path class="cls-1" d="m16.94,23.57s2-.71,1.16-2.7c0,0-.33.94-.63,1.32,0,0,.13-.74.46-1.18,0,0-1.11.31-.95,1.19.17.92-.05,1.37-.05,1.37Z"/>
        <path class="cls-1" d="m19.4,23.14s-2.73-3.11-.28-7.43l.28-.34s-2.05,4.15,0,7.77Z"/>
      </g>
      <g>
        <path class="cls-1" d="m2.03,14.31s3.61,1.33,4.69-2.48c0,0-1.3.55-2.37,1.14,0,0,1.03-.89,1.98-1.14,0,0-1.91-.86-2.68.59-.81,1.52-1.62,1.89-1.62,1.89Z"/>
        <path class="cls-1" d="m8.06,15.29s2.17-1.62.36-3.72c0,0-.03,1.27-.25,1.84,0,0-.13-.95.1-1.61,0,0-1.24.79-.69,1.81.57,1.06.48,1.68.48,1.68Z"/>
        <path class="cls-1" d="m6.32,9.26s.42,2.08,2.51,1.53c0,0-.89-.46-1.22-.81,0,0,.71.24,1.1.62,0,0-.15-1.14-1.05-1.11-.94.04-1.35-.24-1.35-.24Z"/>
        <path class="cls-1" d="m6.4,11.75s3.47-2.26,7.39.77l.3.32s-3.82-2.62-7.69-1.09Z"/>
      </g>
      <g>
        <path class="cls-1" d="m43.39,2.59s-1.42-3.27-4.66-1.56c0,0,1.2.52,2.28.86,0,0-1.25-.11-2.03-.6,0,0,.64,1.83,2.11,1.42,1.53-.43,2.3-.13,2.3-.13Z"/>
        <path class="cls-1" d="m37.27,2.95s1.12-1.62-.58-2.66c0,0,.26.89.24,1.33,0,0-.3-.63-.29-1.13,0,0-.67.83-.07,1.41.62.6.7,1.05.7,1.05Z"/>
        <path class="cls-1" d="m38.88,1.3s-1.08-.25-2.15-1.19h.41c.48.46,1.06.88,1.74,1.19Z"/>
      </g>
    </g>
  </g>
</svg>