<?xml version="1.0" encoding="UTF-8"?>
<svg id="Layer_2" data-name="Layer 2" xmlns="http://www.w3.org/2000/svg" viewBox="0 0 64.08 59.08">
  <defs>
    <style>
      .cls-1 {
        fill: #fff;
        stroke-width: 0px;
      }
    </style>
  </defs>
  <g id="Layer_1-2" data-name="Layer 1">
    <g>
      <polygon class="cls-1" points="5.8 59.08 5.24 59.08 5.24 2.79 64.08 2.79 64.08 3.35 5.8 3.35 5.8 59.08"/>
      <path class="cls-1" d="m31.03,19.95c-.34.78-1.32.49-1.32.49,0,0,1.48,2.41-.54,4.02-1.96,1.56-3.31-.56-3.37-.66.06.06,1.31,1.4,2.69.58,1.41-.84,1.05-2.36,1.05-2.36-.72.86-1.29.71-1.29.71,1.9-.89.18-2.67.11-2.74.01.07.18.92-.66,1.6-.85.69-1.93-.43-1.98-.49.07.03,1.48.65,1.67-.33.2-1-1.48-1.93-3.14-1.6-1.8.35-2.73,2.64-1.97,3.22.77.58,1.11-.36,1.11-.36.32.38-.4,2.01-1.66,1.18-.56-.37-.78-.9-.74-1.48-2.77,4.13-9.25,5.04-12.16-.22.13.11,6.67,5.78,10.96-.97C24.13,13.74,15.57,3.02,3.43,11.86c.04-.11,1.31-3.72,9.73-5.2,1.95-.34,3.93-.88,5.83-1.57,2.13-1.5,3.51-3.47,4.37-5.09h.64c-.7,2.04-1.9,3.41-3.08,4.31,2.56-1.13,4.85-2.57,6.55-4.24.01-.03.03-.05.04-.08h2.19c-.1.14-.21.28-.31.42.2-.11.47-.25.8-.42h1.28c-1.2.37-2.11.74-2.86,1.36-2.86,3.17-7.38,5.66-14.45,6.18,0,0,3.62.19,6.06,3.44,0-.02-.01-.05-.01-.07,0,0,.02.05.06.14.19.26.38.54.55.84.68.85,1.99,1.96,4.21,2,1.84.03,2.15-.86,2.87-.71.73.15,1.2-.08,1.4-.4,0,0-.64,2.09-2.82,1.52,0,0,.55.87.58,1.54,0,0-2.18-.12-3.4-1.51,0,0,.07.81-.08,1.02,0,0-1.06-.73-2.01-1.84.28.78.51,1.66.65,2.65.2,1.45.04,2.77-.37,3.93.42-.44.99-.84,1.68-1.12,2.02-.82,4.5-.23,5.51.63,1.01.87,1.64.61,1.65.07.02-.54-.55-.47-.55-.47.23-.47,1.29-.1.92.75Z"/>
      <path class="cls-1" d="m37.51,2.53c.17.67-1.73,2.26-2.79.46-.64-1.09-.33-2.19.57-2.99h1.99c-1.05.64-1.7,1.64-1.36,2.3.6,1.2,1.6.23,1.6.23Z"/>
      <path class="cls-1" d="m48.29,4.62c-.91.76-1.94-.2-1.94-.2,0,0,.37,3.9-3.13,4.67-2.01.44-2.96-.6-3.41-1.55-.08.03-.16.04-.25.05-.65.06-1.22-.42-1.27-1.07-.06-.65.42-1.22,1.07-1.27.65-.06,1.22.42,1.27,1.07.04.46-.2.89-.57,1.11.46.63,1.21,1.24,2.36,1.14,2.28-.18,2.76-2.29,2.76-2.29-1.42.62-2.03.1-2.03.1,2.96.05,1.81-3.34,1.81-3.34,0,0-.28,1.24-1.8,1.59-1.48.34-2.13-1.7-2.17-1.82.06.08,1.44,1.71,2.29.61.7-.91-.16-2.51-1.72-3.41h1.6c1.39.85,2.44,1.99,2.85,2.95.72,1.7,1.66,1.76,2.01,1.1.36-.66-.4-.92-.4-.92.57-.44,1.67.67.69,1.49Z"/>
      <path class="cls-1" d="m19.72,14.88c.06.65-.42,1.22-1.07,1.27-.65.06-1.22-.42-1.27-1.07-.06-.65.42-1.22,1.07-1.27.65-.06,1.22.42,1.27,1.07Z"/>
      <path class="cls-1" d="m28.27,18.34c-.48.04-.91-.32-.96-.8-.04-.48.32-.91.8-.96.49-.04.91.32.96.8.04.48-.32.91-.8.96Z"/>
      <path class="cls-1" d="m13.54,0c-.5.44-.98,1.03-1.43,1.87,0,0-1.12-.15-.85-1.87h-.48c-.26.6-.46,1.46-.33,2.61.31,2.63-1.98,3.83-1.98,3.83,0,0,1.29.07,2.93-.42,0,0,6.74-1.44,8.17-6.03h-6.02Zm-3.22,5.51s1.32-1.61,1.07-2.77c0,0,.56,1.23.09,1.89,0,0,3.23-.49,5.01-3.58,0,0-.51,3.37-6.17,4.45Z"/>
      <path class="cls-1" d="m18.71,9s5.59-3.77,7.55,2.74c0,0-.83-.78-2.34-.54-1.51.24-3.38-.34-4.15-1.59,0,0,1.27-.37,2.14.38,0,0-1.06-1.91-3.2-.99Z"/>
      <path class="cls-1" d="m14.72,12.66c-.4-.32-.06-.9-.87-1.88-1.61-1.92-3.69-1.24-3.69-1.24,1.51-.88,3.84-.21,3.84-.21-.04.18-.51.51-.51.51,1.27.02,2.29,1.14,2.29,1.14-.37.29-1.08.39-1.08.39,1.25.92.42,2.22.42,2.22.08-.26,0-.62-.39-.94Z"/>
      <path class="cls-1" d="m25.96,8.76c1.88-.69,5.36,1.47,5.36,1.47-.3-.57-1.67-3.85-4.41-3.34-2.73.5-4.54-.07-4.54-.07,0,0,2.16-.2,5.1-2.09,2.94-1.89,5.11.03,7.23.78,2.13.74,2.96-1.68,2.96-1.68-.38,4.99-3.86,5.22-3.86,5.22,2.18,1.52,2.6,6.81,2.6,6.81-.51-1.71-3.52-2.46-3.52-2.46,1.32.72,1.99,3.13,1.97,4.56-.02,1.42,1.23,2.65,1.23,2.65-3.52-1.7-4.03-3.28-5.35-6.52-1.32-3.24-4.77-5.32-4.77-5.32Z"/>
      <path class="cls-1" d="m52.56,1.56c-.07-.05-1.51-1.16-4.93-.5-1.36.26-2.49-.48-3.03-1.06h5.83c.67.3,1.4.79,2.14,1.56Z"/>
      <path class="cls-1" d="m6.98,11.9s2.51.26,3.65,1.25c0,0-1.25-1.85-3.6-1.97,0,0,3.05-1.89,4.31-.36s1.76,3.71,2.93,4.31c0,0-3.14,1.52-4.35-.08-1.21-1.6-1.74-2.85-2.95-3.16Z"/>
      <path class="cls-1" d="m2.84,14.43c.56-1.71,2.4-2.26,2.93-2.2.53.06,1.23,2,.77,3.1,0,0,.97-.9.11-2.9,0,0,2.51,1.54,2.64,4.28.13,2.73-2.68,3.91-2.68,3.91,0,0,.04-1.12-.77-2.28-.79-1.13-1.78-2.67-1.61-3.66-.09.47-.69,2.89-4.23,3.83,0,0,1.72-.68,2.84-4.07Z"/>
      <path class="cls-1" d="m52.24,3.92s2.51.26,3.65,1.25c0,0-1.25-1.85-3.6-1.97,0,0,3.05-1.89,4.31-.36,1.27,1.52,1.76,3.71,2.93,4.31,0,0-3.14,1.52-4.35-.08-1.21-1.6-1.74-2.85-2.95-3.16Z"/>
      <path class="cls-1" d="m48.09,6.45c.56-1.71,2.4-2.26,2.93-2.2.53.06,1.23,2,.77,3.1,0,0,.97-.9.11-2.9,0,0,2.51,1.54,2.64,4.28.13,2.73-2.68,3.91-2.68,3.91,0,0,.04-1.12-.77-2.28-.79-1.13-1.78-2.67-1.61-3.66-.09.47-.69,2.89-4.23,3.83,0,0,1.72-.68,2.84-4.07Z"/>
    </g>
  </g>
</svg>