<?xml version="1.0" encoding="UTF-8"?>
<svg id="Layer_2" data-name="Layer 2" xmlns="http://www.w3.org/2000/svg" viewBox="0 0 79.25 34.75">
  <defs>
    <style>
      .cls-1 {
        fill: #fff;
        stroke-width: 0px;
      }
    </style>
  </defs>
  <g id="Layer_1-2" data-name="Layer 1">
    <g>
      <path class="cls-1" d="m18.46,30.46c-.7-.98.9-1.6.9-1.6-1.91-1.35-4.45.86-3.08,4.23.25.6.69,1.14,1.25,1.58h-1.52c-.56-.86-.86-1.87-.8-2.92.34-5.23,4.09-3.99,4.76-2.75.67,1.24-.8,2.45-1.51,1.47Z"/>
      <path class="cls-1" d="m26.65,34.66c.12-.89.1-1.46.1-1.46-.21.54-.46,1.03-.73,1.46h-1.64c.74-.72,1.28-1.78,1.46-3.25.26-2.16-.58-4.21-2.13-6.05,0,0,0,0,0,0-.14-.16-.28-.33-.43-.48-1.57-1.69-3.73-3.19-6.16-4.4-.6-.3-1.21-.58-1.84-.85h0c-1.8-.76-3.69-1.36-5.56-1.78C1.64,16.02.58,12.47.55,12.36c11.35,9.11,20.12-.87,16.23-7.67-3.88-6.79-10.56-1.43-10.56-1.43,3.05-4.96,9.27-3.79,11.77.33h0c.31.51.56,1.06.74,1.66h0c.35,1.14.44,2.42.18,3.81-.18.95-.43,1.79-.74,2.53-.23.56-.5,1.07-.79,1.52,0,0,0,0,0,0-.18.29-.38.56-.58.8h0s-.03.04-.05.06c0,0,0,0,0,0-2.5,3.04-6.02,3.05-6.02,3.05,6.82.83,11.08,3.44,13.71,6.64,0,0,0,0,0,0,.25.31.49.63.72.95,2.29,3.26,3.08,7,3.27,10.04h-1.77Z"/>
      <path class="cls-1" d="m62.35,30.51c1.89.07,3.95.83,5.77,2.15,0,0,0,0,0,0,.28.21.56.42.82.65.47.41.92.85,1.34,1.34h-4.11c-.84-.65-1.69-1.13-2.53-1.47-.16-.07-.33-.13-.49-.19-4.47-1.6-8.49.41-8.49.41,2.03-.1,3.56.41,4.65,1.26h-3.68c-.19-.01-.39-.01-.59,0h-4.5c4.13-3.9,9.33-5.3,10.26-5.53.1-.02.15-.04.15-.04.03-.06.07-.12.1-.18,0,0,0,0,0,0,2.59-4.76,6.64-4.08,8.82-3.56,2.21.53,3.98-.43,3.98-.43-.8,2.73-4.1,5.44-6.38,5.04-2.28-.4-5.13.56-5.13.56Z"/>
      <path class="cls-1" d="m6.56,34.66h-2.2c.14-.55.68-.92,1.25-.84.47.06.83.41.95.84Z"/>
      <path class="cls-1" d="m12.09,26.97c.62.08,1.06.66.97,1.28-.08.62-.66,1.06-1.28.98-.62-.08-1.06-.66-.98-1.28.08-.62.66-1.06,1.28-.97Z"/>
      <path class="cls-1" d="m35.31,18.14c.62.08,1.06.66.97,1.28-.08.62-.66,1.06-1.28.97-.62-.08-1.06-.66-.98-1.28.08-.62.66-1.06,1.28-.97Z"/>
      <path class="cls-1" d="m15.48,8.91c.62.08,1.06.66.97,1.28-.08.62-.66,1.06-1.28.98-.62-.08-1.06-.66-.97-1.28.09-.62.66-1.06,1.28-.97Z"/>
      <path class="cls-1" d="m24.88,7.22c.47.06.79.49.73.96-.06.47-.49.79-.96.73-.47-.06-.79-.49-.73-.96.06-.47.49-.79.96-.73Z"/>
      <path class="cls-1" d="m6.91,21.64c-.42,2.53.9,3.66.9,3.66-.85-2.73.67-2.86.67-2.86,1.36,2.84,3.23,2.97,4.69,3.49,1.47.52,2.41,1.72,2.41,1.72,1.7-6.82-7.61-9.26-7.61-9.26-1.57-.54-2.81-.54-2.81-.54,0,0,2.16,1.27,1.74,3.8Zm5.79,1.78c-1.58-3.06-4.68-3.69-4.68-3.69.43.66-.17,1.83-.17,1.83.29-1.11-.91-2.73-.91-2.73,5.43,1.3,5.77,4.58,5.77,4.58Z"/>
      <path class="cls-1" d="m29.46,34.66h-.24c-.03-.37-.03-.75-.02-1.15,0,0,.06.44.26,1.15Z"/>
      <path class="cls-1" d="m20.34,27.79s-1.14-6.04-6.4-9.07c0,0,6.29,1.58,6.4,9.07Z"/>
      <path class="cls-1" d="m62.56,33.51s.43.49.54,1.15h-.95c.06-.42.19-.82.41-1.15Z"/>
      <path class="cls-1" d="m63.4,34.66c.12-.45.15-1.05-.23-1.66-.12-.2-.29-.4-.51-.6.03.02.49.3,1,.79.4.38.83.87,1.13,1.47h-1.39Z"/>
      <path class="cls-1" d="m15.2,15.83s5.24,3.9,7.43-2.31c0,0-.84.72-2.29.41-1.45-.3-3.29.18-4.09,1.35,0,0,1.21.41,2.08-.27,0,0-1.11,1.8-3.14.81Z"/>
      <path class="cls-1" d="m23.12,24.58s4.22,4.44-1.31,7.18c0,0,.57-.86.13-2.18-.45-1.32-.21-3.08.8-3.96,0,0,.52,1.08-.02,1.97,0,0,1.55-1.24.4-3.01Z"/>
      <path class="cls-1" d="m24.76,24.39s2.35,1.48,5.28,2.75c2.93,1.27,5.36,4.91,2.71,6.52-2.65,1.6-3.42-1.38-2.71-2.11.71-.73,1.38-.32,1.38-.32,0,0-.75.17-.24.7.44.46,1.2-.6.39-1.03-.89-.47-2.92.88-1.58,2.86,1.63,2.4,5.2.09,4.72-2.58-.49-2.71-2.35-4.21-4.81-5.09-3.04-1.09-4.74-1.44-5.96-2.92,0,0,.17.66.83,1.22Z"/>
      <path class="cls-1" d="m33.1,22.94s-.92-.98-1.56.15c-.63,1.13,1.75,3.45,4.15,2.92,2.22-.49,3.8-2.53,3.01-3.66-.78-1.13-2.24.49-2.24.49,0,0,.72-2.07,2.18-1.67,1.46.4,1.67,1.62,1.67,1.62,0,0,1.28-3.23-1.6-3.32,0,0,.62-.48,1.97.19,0,0-.37-2.06-2.56-2.34-2.19-.28-3,2.17-3,2.17,0,0,.46-3.53,3.8-2.63,3.36.9,2.82,4.67,2.82,4.67,0,0,1.04-.89,1.89-.11.91.84-.2,1.87-.73,1.41,0,0,.74-.21.43-.87-.31-.66-1.22-.64-2,.97-.78,1.61-3.51,3.67-6.44,3.74-3.4.08-5.83-2.21-4.47-4.28,1.11-1.69,2.88-.07,2.68.57Z"/>
      <path class="cls-1" d="m8.84,31.57s.77-.07.59-.78c-.18-.71-1.08-.86-2.15.58-1.07,1.43-4.14,2.94-7.03,2.45-.09-.01-.17-.03-.25-.05v-.61c.37.12.76.19,1.17.18,2.28-.06,4.2-1.77,3.65-3.03-.55-1.24-2.22,0-2.29.05.03-.05,1.12-1.88,2.45-1.22,1.36.67,1.34,1.91,1.34,1.91,0,0,1.86-2.93-.94-3.56,0,0,.7-.35,1.9.55,0,0,.03-2.09-2.08-2.78-2.05-.67-3.29,1.44-3.35,1.56.06-.16,1.2-3.33,4.22-1.86,3.13,1.52,1.89,5.11,1.89,5.11,0,0,1.19-.67,1.87.25.74,1-.55,1.8-.99,1.25Z"/>
      <path class="cls-1" d="m20.33,3.43s-.29-.93-1.05-.4c-.77.53.03,2.79,1.76,3.21,1.6.39,3.26-.43,3.11-1.41-.15-.98-1.6-.4-1.6-.4,0,0,1.13-1.11,1.94-.38.81.72.57,1.58.57,1.58,0,0,1.85-1.68.02-2.65,0,0,.55-.11,1.21.75,0,0,.42-1.45-.91-2.33-1.33-.88-2.63.45-2.63.45,0,0,1.42-2.13,3.29-.49,1.88,1.65.34,3.91.34,3.91,0,0,.96-.24,1.25.53.32.84-.73,1.14-.92.68,0,0,.55.1.56-.43,0-.53-.59-.8-1.6,0-1.02.79-3.44,1.25-5.36.36-2.23-1.03-3.06-3.28-1.52-4.19,1.26-.74,1.88.87,1.55,1.22Z"/>
      <path class="cls-1" d="m6.95,14.92s1.98.76,3.63-1.03c.84-.91.53-1.48.93-1.78.4-.29.49-.64.42-.89,0,0,.75,1.3-.5,2.13,0,0,.68.13,1.02.43,0,0-1.04,1.04-2.27,1,0,0,.44.34.47.52,0,0-2.29.54-3.7-.38Z"/>
      <path class="cls-1" d="m16.72,14.04s1.3-2.77,4.8-2.66c1.78.05,2.04.93,2.75.82.71-.12,1.15.13,1.33.45,0,0-.53-2.05-2.66-1.6,0,0,.57-.82.63-1.47,0,0-2.12.02-3.36,1.31,0,0,.11-.78-.03-.99,0,0-2.91,1.79-3.46,4.14Z"/>
      <path class="cls-1" d="m22.21,16.39s3.44-1.85,4.86-4.93c1.42-3.08,1.99-4.58,5.47-6.07,0,0-1.27,1.13-1.31,2.51-.05,1.38-.81,3.69-2.12,4.32,0,0,2.95-.58,3.52-2.22,0,0-.64,5.09-2.82,6.47,0,0,3.35.38,3.49,5.23,0,0-.7-2.38-2.79-1.76-2.09.62-4.28,2.39-7.03.42-2.76-1.96-4.84-2.25-4.84-2.25,0,0,1.78-.47,4.4.14,2.62.61,4.1-2.49,4.42-3.04,0,0-3.46,1.93-5.25,1.18Z"/>
      <path class="cls-1" d="m49.38,31.62s2.19-.97,3.23-.42c0,0-2.17.93-3.2,2.7-.16.27-.3.52-.44.75h-1.92c.27-.59.68-1.14,1.16-1.32,0,0-1.81.19-2.24,1.14,0,0,.67-3.04,2.06-3.74,0,0-2-.42-1.82-3.35,0,0,.29,1.47,1.58,1.21,1.29-.26,2.71-1.2,4.26.13,1.56,1.34,2.79,1.63,2.79,1.63,0,0-1.1.18-2.64-.33-1.54-.51-2.61,1.28-2.83,1.59Z"/>
      <g>
        <path class="cls-1" d="m38.01,26.64s-3.11,1.55-2.5,3.37c.61,1.82,2.16,3.34,2.06,4.61,0,0,2.85-1.81,2.15-3.62-.7-1.81-1.46-2.88-1.1-4.04,0,0-1.07,2.2-.83,3.65,0,0-.89-1.97.21-3.96Z"/>
        <path class="cls-1" d="m39.23,26.96s0,2.86,2.18,4.35c2.19,1.5,4.59-.22,4.59-.22,0,0-.94-.54-1.48-1.79-.54-1.25-1.34-2.91-2.27-3.22,0,0,2.52,1.2,5.38-1.51,0,0-1.43,1.07-4.8.27-1.69-.41-3.08.83-3.31,1.29-.23.47,1.02,2.03,2.16,2.21,0,0-1.24.34-2.45-1.38Z"/>
      </g>
      <g>
        <path class="cls-1" d="m4,13.19s2.86,1.97,4.16.55c1.29-1.42,1.87-3.51,3.03-4.04,0,0-2.97-1.61-4.21-.12-1.24,1.49-1.81,2.67-3,2.92,0,0,2.44-.14,3.59-1.04,0,0-1.29,1.74-3.57,1.74Z"/>
        <path class="cls-1" d="m6.43,7.95c-.25,2.64-2.75,4.02-2.75,4.02.92-1.9.02-2.81.02-2.81.39,1.09-.37,2.94-.88,2.97-.52.03-2.27-.58-2.74-2.26-.03-.1-.06-.21-.09-.31v-2.41c1.11,1,1.38,2.1,1.44,2.48-.07-.97.94-2.38,1.73-3.41.83-1.08.85-2.17.85-2.17,0,0,2.66,1.26,2.42,3.9Z"/>
      </g>
      <g>
        <path class="cls-1" d="m47.43,22.97s2.86,1.97,4.16.55c1.29-1.42,1.87-3.51,3.04-4.04,0,0-2.97-1.61-4.21-.12-1.24,1.49-1.81,2.67-3,2.92,0,0,2.44-.14,3.59-1.04,0,0-1.29,1.74-3.57,1.74Z"/>
        <path class="cls-1" d="m47.12,21.74s2.5-1.38,2.75-4.02c.25-2.64-2.42-3.9-2.42-3.9,0,0-.02,1.08-.85,2.17-.83,1.08-1.9,2.58-1.71,3.55,0,0-.17-2.78-3.93-3.97,0,0,1.63.73,2.56,4.07.47,1.68,2.22,2.29,2.73,2.26.52-.03,1.28-1.88.89-2.97,0,0,.9.91-.02,2.81Z"/>
      </g>
      <path class="cls-1" d="m42,34.52c-.06.04-.12.09-.18.14h.22c-.02-.09-.04-.14-.04-.14Zm-2.73.14h.33c-.11-.17-.19-.27-.19-.27-.05.09-.1.18-.14.27Z"/>
      <path class="cls-1" d="m11.24,6.78c0,1.05.98,1.8.98,1.8.37-1.26-.21-2.06-.21-2.06.77.97,1.59.77,1.59.77-.14-.68-1.13-1.17-1.13-1.17,1,.38,1.82-.05,1.82-.05-.71-.64-1.3-.64-1.55-.6,1.14-.3,1.59-1.32,1.59-1.32-1.35-.15-2.02.56-2.22.84.65-1.01.32-2.11.32-2.11-1.03.7-1.17,1.85-1.17,1.85.13-1.03-.6-1.97-.6-1.97-.54.93-.35,1.61-.19,1.94-.56-.75-1.68-.81-1.68-.81-.03,1,1.19,1.53,1.52,1.66-1.28-.44-2.01-.08-2.01-.08.82.93,1.92.73,2.16.67-1.47.38-1.62,1.37-1.62,1.37.91.19,1.85-.91,1.85-.91-.75,1.08-.27,2.12-.27,2.12.62-.89.81-1.92.81-1.92Zm-.24-.64c-.27-.17-.34-.52-.18-.78.17-.27.52-.34.78-.18.26.17.34.52.18.78-.17.26-.52.34-.78.18Z"/>
      <path class="cls-1" d="m54.58,27.84c-.6.87-.22,2.04-.22,2.04,1.02-.82,1.01-1.81,1.01-1.81.08,1.24.86,1.54.86,1.54.27-.63-.25-1.61-.25-1.61.6.88,1.52,1,1.52,1-.22-.93-.7-1.27-.92-1.38,1.1.41,2.06-.18,2.06-.18-1.02-.9-1.98-.7-2.3-.59,1.11-.46,1.46-1.55,1.46-1.55-1.24-.02-2.01.85-2.01.85.7-.77.64-1.96.64-1.96-.97.45-1.21,1.12-1.26,1.48-.03-.94-.92-1.62-.92-1.62-.59.81.1,1.93.3,2.23-.8-1.09-1.61-1.21-1.61-1.21.14,1.23,1.16,1.7,1.39,1.79-1.42-.53-2.11.19-2.11.19.63.68,2.04.32,2.04.32-1.23.46-1.43,1.59-1.43,1.59,1.02-.37,1.77-1.11,1.77-1.11Zm.17-.66c-.12-.29.01-.62.3-.74.29-.12.62.01.74.3.12.29-.01.62-.3.74-.29.12-.62-.01-.74-.3Z"/>
      <path class="cls-1" d="m15.2,34.06c-.94-.64-1.95-.45-2.12-.42.99-.27,1.59-1.27,1.59-1.27-1.06-.16-1.63.26-1.87.53.5-.8.14-1.86.14-1.86-.94.34-.99,1.66-.99,2.02-.06-1.35-.66-1.9-.66-1.9-.54,1.06-.03,1.97.14,2.23-.88-1.19-1.85-.98-1.85-.98.15.89,1.44,1.36,1.52,1.39-1.28-.3-2.07.53-2.07.53,1.01.25,2.01.07,2.08.06-.18.07-.33.17-.47.28h2.81c-.14-.07-.26-.11-.34-.13,1.18.23,2.08-.48,2.08-.48Zm-2.45.08c-.06.31-.36.51-.67.45-.31-.06-.51-.36-.45-.66.06-.31.36-.51.66-.45.31.06.51.36.45.67Z"/>
      <path class="cls-1" d="m2.96,20.67c1.18.23,2.08-.47,2.08-.47-.94-.64-1.95-.45-2.12-.42.99-.27,1.59-1.28,1.59-1.28-1.06-.16-1.63.26-1.87.53.5-.79.14-1.86.14-1.86-.94.34-.99,1.66-.98,2.02-.06-1.35-.67-1.9-.67-1.9-.54,1.06-.03,1.97.14,2.23-.45-.61-.92-.85-1.27-.94v.83c.41.33.9.51.94.53-.36-.08-.67-.08-.94-.03v.68c.53,0,.91-.06.96-.07-.44.18-.75.52-.96.84v.68c.98-.2,1.43-.8,1.49-.89-.61,1.07-.13,1.75-.13,1.75.58-.38.68-1.48.68-1.48.01,1.07.71,1.67.71,1.67.33-.9.12-1.44,0-1.66.69.95,1.81.99,1.81.99-.35-1.31-1.26-1.67-1.59-1.76Zm-.37-.39c-.06.31-.36.51-.67.45-.31-.06-.51-.36-.45-.67.06-.31.36-.51.66-.45.31.06.51.36.45.67Z"/>
      <path class="cls-1" d="m36.25,10.81c-.38-1.3-1.85-1.87-1.85-1.87-.02,1.68.99,2.47.99,2.47-1.3-.92-2.23-.39-2.23-.39.41.78,1.81,1.05,1.81,1.05-1.37-.11-2.22.7-2.22.7,1.11.54,1.83.33,2.12.2-1.29.77-1.49,2.19-1.49,2.19,1.72-.29,2.29-1.41,2.45-1.82-.44,1.48.35,2.71.35,2.71,1.02-1.22.78-2.69.78-2.69.21,1.32,1.44,2.22,1.44,2.22.34-1.33-.14-2.11-.45-2.45.96.73,2.36.4,2.36.4-.32-1.24-2.01-1.47-2.46-1.5,1.73.09,2.51-.62,2.51-.62-1.35-.85-2.62-.22-2.9-.06,1.67-.98,1.52-2.26,1.52-2.26-1.19.08-1.97,1.78-1.97,1.78.54-1.6-.42-2.71-.42-2.71-.45,1.31-.32,2.66-.32,2.66Zm.52.71c.39.11.61.52.5.9-.11.39-.52.61-.9.5-.38-.11-.61-.52-.5-.9.11-.39.52-.61.9-.49Z"/>
      <g>
        <path class="cls-1" d="m56.51,17.25s-.62,4.07,3.61,4.38c0,0-.86-1.24-1.71-2.24,0,0,1.16.88,1.63,1.83,0,0,.49-2.18-1.19-2.69-1.76-.53-2.33-1.29-2.33-1.29Z"/>
        <path class="cls-1" d="m56.78,23.78s2.17,1.92,3.98-.42c0,0-1.34.24-1.98.14,0,0,.97-.34,1.71-.25,0,0-1.1-1.13-2.04-.34-.99.83-1.66.86-1.66.86Z"/>
        <path class="cls-1" d="m62.73,20.65s-2.09.89-1.07,2.96c0,0,.29-1.03.58-1.45,0,0-.09.8-.41,1.29,0,0,1.17-.4.94-1.33-.24-.97-.04-1.46-.04-1.46Z"/>
        <path class="cls-1" d="m60.14,21.28s3.12,3.15.79,7.91l-.28.38s1.92-4.56-.51-8.29Z"/>
      </g>
      <g>
        <path class="cls-1" d="m79.25,29.57s-3.94-1.19-4.85,2.95c0,0,1.35-.67,2.46-1.38,0,0-1.04,1.02-2.04,1.35,0,0,2.09.8,2.83-.8.77-1.67,1.61-2.13,1.61-2.13Z"/>
        <path class="cls-1" d="m72.75,28.92s-2.21,1.87-.14,4c0,0-.05-1.36.14-1.98,0,0,.2,1,0,1.72,0,0,1.27-.93.62-1.98-.68-1.1-.62-1.76-.62-1.76Z"/>
        <path class="cls-1" d="m74.74,34.66h-2.08c-.23-.32-.31-.7-.31-.7.44.38,1.22.59,1.22.59-.37-.35-1.35-.78-1.35-.78,1.42-.47,2.17.3,2.52.89Z"/>
        <path class="cls-1" d="m74.75,32.59s-3.55,2.64-7.94-.34l-.34-.33s4.24,2.54,8.28.67Z"/>
      </g>
    </g>
  </g>
</svg>