<?xml version="1.0" encoding="UTF-8"?>
<!DOCTYPE svg PUBLIC "-//W3C//DTD SVG 1.1//EN" "http://www.w3.org/Graphics/SVG/1.1/DTD/svg11.dtd">
<!-- Creator: CorelDRAW -->
<svg xmlns="http://www.w3.org/2000/svg" xml:space="preserve" width="210mm" height="297mm" version="1.1" style="shape-rendering:geometricPrecision; text-rendering:geometricPrecision; image-rendering:optimizeQuality; fill-rule:evenodd; clip-rule:evenodd"
viewBox="0 0 21000 29700"
 xmlns:xlink="http://www.w3.org/1999/xlink"
 xmlns:xodm="http://www.corel.com/coreldraw/odm/2003">
 <defs>
  <style type="text/css">
   <![CDATA[
    .fil0 {fill:#FEFEFE}
   ]]>
  </style>
 </defs>
 <g id="Layer_x0020_1">
  <metadata id="CorelCorpID_0Corel-Layer"/>
  <path class="fil0" d="M6311.68 13832.64l12404.17 0 0 3456.32 -12404.17 0 0 -3456.32zm1325.65 764.39c0,72.87 -16.72,139.49 -50.18,199.82 -33.46,60.34 -84.84,109.03 -154.16,146.07 -69.28,37.06 -155.34,55.57 -258.06,55.57l-190.01 0 0 451.66 -306.48 0 0 -1258.18 496.49 0c100.33,0 185.17,17.3 254.51,51.97 69.29,34.64 121.25,82.45 155.92,143.36 34.65,60.95 51.97,130.86 51.97,209.73zm-485.72 157.69c58.54,0 102.14,-13.71 130.83,-41.2 28.69,-27.48 43.02,-66.31 43.02,-116.49 0,-50.2 -14.33,-89.03 -43.02,-116.51 -28.69,-27.48 -72.29,-41.23 -130.83,-41.23l-166.69 0 0 315.43 166.69 0zm1286.87 695.43l-261.67 -474.96 -73.5 0 0 474.96 -306.48 0 0 -1258.18 514.42 0c99.17,0 183.71,17.3 253.6,51.97 69.9,34.64 122.19,82.14 156.83,142.48 34.62,60.34 51.97,127.56 51.97,201.64 0,83.63 -23.58,158.32 -70.78,224.05 -47.2,65.71 -116.81,112.28 -208.79,139.81l290.34 498.23 -345.94 0zm-335.17 -691.8l190.01 0c56.15,0 98.29,-13.76 126.35,-41.25 28.09,-27.48 42.11,-66.31 42.11,-116.49 0,-47.8 -14.02,-85.45 -42.11,-112.93 -28.06,-27.46 -70.2,-41.22 -126.35,-41.22l-190.01 0 0 311.89zm1457.17 704.36c-118.28,0 -226.73,-27.49 -325.29,-82.45 -98.58,-54.97 -176.85,-131.75 -234.82,-230.33 -57.94,-98.54 -86.91,-209.38 -86.91,-332.45 0,-123.07 28.97,-233.58 86.91,-331.59 57.97,-97.96 136.24,-174.46 234.82,-229.42 98.56,-54.97 207.01,-82.45 325.29,-82.45 118.3,0 226.72,27.48 325.31,82.45 98.59,54.96 176.22,131.46 233,229.42 56.76,98.01 85.13,208.52 85.13,331.59 0,123.07 -28.67,233.91 -86.03,332.45 -57.37,98.58 -135.02,175.36 -232.98,230.33 -98.01,54.96 -206.13,82.45 -324.43,82.45zm0 -279.58c100.38,0 180.71,-33.48 241.1,-100.4 60.31,-66.92 90.49,-155.34 90.49,-265.25 0,-111.12 -30.18,-199.85 -90.49,-266.18 -60.39,-66.29 -140.72,-99.47 -241.1,-99.47 -101.56,0 -182.52,32.88 -242.86,98.58 -60.34,65.74 -90.5,154.74 -90.5,267.07 0,111.12 30.16,199.82 90.5,266.16 60.34,66.29 141.3,99.49 242.86,99.49zm1602.33 -991.16l0 856.72c0,132.6 -37.35,234.77 -112.03,306.48 -74.68,71.68 -175.34,107.54 -301.99,107.54 -132.65,0 -238.98,-37.65 -319.03,-112.91 -80.08,-75.27 -120.1,-182.22 -120.1,-320.85l304.72 0c0,52.6 10.74,92.31 32.24,119.21 21.51,26.88 52.58,40.32 93.2,40.32 37.04,0 65.73,-11.95 86.03,-35.83 20.29,-23.9 30.48,-58.6 30.48,-103.96l0 -856.72 306.48 0zm553.82 245.53l0 254.51 410.44 0 0 236.59 -410.44 0 0 276.02 464.22 0 0 245.53 -770.72 0 0 -1258.18 770.72 0 0 245.53 -464.22 0zm611.19 381.77c0,-124.25 26.88,-235.1 80.66,-332.5 53.76,-97.35 128.74,-173.24 224.94,-227.6 96.19,-54.37 205.21,-81.57 327.07,-81.57 149.4,0 277.23,39.43 383.56,118.3 106.35,78.87 177.45,186.41 213.31,322.64l-336.96 0c-25.11,-52.6 -60.64,-92.64 -106.66,-120.09 -45.99,-27.49 -98.26,-41.25 -156.8,-41.25 -94.4,0 -170.88,32.88 -229.43,98.61 -58.54,65.71 -87.82,153.53 -87.82,263.46 0,109.91 29.28,197.75 87.82,263.46 58.55,65.71 135.03,98.56 229.43,98.56 58.54,0 110.81,-13.71 156.8,-41.2 46.02,-27.48 81.55,-67.52 106.66,-120.09l336.96 0c-35.86,136.23 -106.96,243.47 -213.31,321.73 -106.33,78.26 -234.16,117.4 -383.56,117.4 -121.86,0 -230.88,-27.18 -327.07,-81.55 -96.2,-54.36 -171.18,-129.95 -224.94,-226.75 -53.78,-96.77 -80.66,-207.3 -80.66,-331.56zm2322.85 -627.3l0 245.53 -333.38 0 0 1012.65 -306.48 0 0 -1012.65 -333.38 0 0 -245.53 973.24 0zm-7516.99 2755.59c-91.98,0 -174.43,-14.92 -247.33,-44.8 -72.86,-29.88 -131.13,-74.11 -174.73,-132.63 -43.65,-58.55 -66.64,-129.04 -69.01,-211.52l326.17 0c4.79,46.62 20.93,82.17 48.41,106.68 27.48,24.48 63.34,36.74 107.54,36.74 45.41,0 81.26,-10.47 107.54,-31.39 26.27,-20.91 39.43,-49.88 39.43,-86.92 0,-31.06 -10.46,-56.75 -31.37,-77.08 -20.9,-20.29 -46.62,-37.04 -77.08,-50.17 -30.48,-13.16 -73.77,-28.09 -129.92,-44.81 -81.27,-25.11 -147.58,-50.17 -198.97,-75.29 -51.36,-25.08 -95.56,-62.12 -132.62,-111.09 -37.04,-49.02 -55.58,-112.93 -55.58,-191.8 0,-117.1 42.44,-208.8 127.29,-275.14 84.82,-66.31 195.33,-99.44 331.56,-99.44 138.63,0 250.32,33.13 335.17,99.44 84.82,66.34 130.23,158.62 136.23,276.93l-331.61 0c-2.37,-40.62 -17.3,-72.57 -44.81,-95.89 -27.46,-23.3 -62.71,-34.95 -105.72,-34.95 -37.04,0 -66.94,9.86 -89.61,29.58 -22.72,19.72 -34.09,48.08 -34.09,85.12 0,40.65 19.14,72.29 57.36,95.03 38.25,22.67 98.01,47.18 179.25,73.48 81.24,27.45 147.27,53.75 198.05,78.84 50.78,25.11 94.68,61.52 131.72,109.33 37.07,47.8 55.6,109.35 55.6,184.64 0,71.66 -18.23,136.81 -54.69,195.33 -36.43,58.55 -89.31,105.15 -158.62,139.82 -69.29,34.64 -151.16,51.96 -245.56,51.96zm953.52 -1270.76l0 1258.23 -306.5 0 0 -1258.23 306.5 0zm992.93 1258.23l-256.28 -385.35 -225.84 385.35 -347.7 0 403.25 -639.88 -412.2 -618.35 356.65 0 252.72 379.98 222.24 -379.98 347.72 0 -399.69 634.49 415.83 623.74 -356.7 0zm1415.94 -1258.23l0 245.56 -333.38 0 0 1012.67 -306.47 0 0 -1012.67 -333.39 0 0 -245.56 973.24 0zm460.64 245.56l0 254.51 410.43 0 0 236.58 -410.43 0 0 276.02 464.19 0 0 245.56 -770.69 0 0 -1258.23 770.69 0 0 245.56 -464.19 0zm969.63 0l0 254.51 410.43 0 0 236.58 -410.43 0 0 276.02 464.21 0 0 245.56 -770.71 0 0 -1258.23 770.71 0 0 245.56 -464.21 0zm1788.73 1012.67l-306.5 0 -512.6 -776.09 0 776.09 -306.48 0 0 -1258.23 306.48 0 512.6 779.67 0 -779.67 306.5 0 0 1258.23zm1923.73 -2761.01l525.11 0 0 525.11 -525.11 0 0 -525.11zm2248.42 2248.41l525.13 0 0 525.13 -525.13 0 0 -525.13zm-749.47 0l525.11 0 0 525.13 -525.11 0 0 -525.13zm-749.48 0l525.1 0 0 525.13 -525.1 0 0 -525.13zm-749.47 0l525.11 0 0 525.13 -525.11 0 0 -525.13zm2248.42 -749.46l525.13 0 0 525.1 -525.13 0 0 -525.1zm-749.47 0l525.11 0 0 525.1 -525.11 0 0 -525.1zm-749.48 0l525.1 0 0 525.1 -525.1 0 0 -525.1zm-749.47 0l525.11 0 0 525.1 -525.11 0 0 -525.1zm2248.42 -749.49l525.13 0 0 525.11 -525.13 0 0 -525.11zm-749.47 0l525.11 0 0 525.11 -525.11 0 0 -525.11zm-749.48 0l525.1 0 0 525.11 -525.1 0 0 -525.11zm-749.47 0l525.11 0 0 525.11 -525.11 0 0 -525.11zm2248.42 -749.46l525.13 0 0 525.11 -525.13 0 0 -525.11zm-749.47 0l525.11 0 0 525.11 -525.11 0 0 -525.11zm-749.48 0l525.1 0 0 525.11 -525.1 0 0 -525.11z"/>
 </g>
</svg>
