<?xml version="1.0" encoding="UTF-8"?>
<!DOCTYPE svg PUBLIC "-//W3C//DTD SVG 1.1//EN" "http://www.w3.org/Graphics/SVG/1.1/DTD/svg11.dtd">
<!-- Creator: CorelDRAW -->
<svg xmlns="http://www.w3.org/2000/svg" xml:space="preserve" width="210mm" height="297mm" version="1.1" style="shape-rendering:geometricPrecision; text-rendering:geometricPrecision; image-rendering:optimizeQuality; fill-rule:evenodd; clip-rule:evenodd"
viewBox="0 0 21000 29700"
 xmlns:xlink="http://www.w3.org/1999/xlink"
 xmlns:xodm="http://www.corel.com/coreldraw/odm/2003">
 <defs>
  <style type="text/css">
   <![CDATA[
    .fil0 {fill:#FEFEFE}
   ]]>
  </style>
 </defs>
 <g id="Layer_x0020_1">
  <metadata id="CorelCorpID_0Corel-Layer"/>
  <path class="fil0" d="M49906.83 16029.23l5308.16 0 0 1479.08 -5308.16 0 0 -1479.08zm567.29 327.11c0,31.18 -7.15,59.69 -21.47,85.51 -14.32,25.82 -36.31,46.66 -65.97,62.51 -29.65,15.86 -66.48,23.78 -110.44,23.78l-81.31 0 0 193.28 -131.15 0 0 -538.42 212.46 0c42.94,0 79.24,7.4 108.92,22.24 29.65,14.82 51.89,35.28 66.72,61.35 14.83,26.08 22.24,56 22.24,89.75zm-207.86 67.48c25.06,0 43.71,-5.87 55.99,-17.63 12.28,-11.76 18.41,-28.38 18.41,-49.85 0,-21.48 -6.13,-38.1 -18.41,-49.86 -12.28,-11.76 -30.93,-17.64 -55.99,-17.64l-71.33 0 0 134.98 71.33 0zm550.7 297.6l-111.98 -203.25 -31.45 0 0 203.25 -131.15 0 0 -538.42 220.13 0c42.44,0 78.62,7.4 108.53,22.24 29.91,14.82 52.29,35.15 67.11,60.97 14.82,25.82 22.24,54.59 22.24,86.29 0,35.79 -10.09,67.75 -30.29,95.88 -20.2,28.12 -49.99,48.05 -89.35,59.83l124.25 213.21 -148.04 0zm-143.43 -296.05l81.31 0c24.03,0 42.06,-5.89 54.07,-17.65 12.02,-11.76 18.02,-28.38 18.02,-49.85 0,-20.46 -6,-36.57 -18.02,-48.33 -12.01,-11.75 -30.04,-17.64 -54.07,-17.64l-81.31 0 0 133.47zm623.57 301.42c-50.62,0 -97.02,-11.76 -139.2,-35.28 -42.19,-23.52 -75.68,-56.38 -100.49,-98.57 -24.79,-42.17 -37.19,-89.6 -37.19,-142.26 0,-52.67 12.4,-99.96 37.19,-141.9 24.81,-41.92 58.3,-74.66 100.49,-98.18 42.18,-23.52 88.58,-35.28 139.2,-35.28 50.63,0 97.02,11.76 139.21,35.28 42.19,23.52 75.41,56.26 99.71,98.18 24.29,41.94 36.43,89.23 36.43,141.9 0,52.66 -12.27,100.09 -36.82,142.26 -24.54,42.19 -57.78,75.05 -99.7,98.57 -41.94,23.52 -88.2,35.28 -138.83,35.28zm0 -119.64c42.95,0 77.33,-14.33 103.17,-42.96 25.81,-28.64 38.73,-66.48 38.73,-113.51 0,-47.56 -12.92,-85.52 -38.73,-113.91 -25.84,-28.37 -60.22,-42.57 -103.17,-42.57 -43.46,0 -78.11,14.07 -103.93,42.19 -25.82,28.13 -38.72,66.22 -38.72,114.29 0,47.55 12.9,85.51 38.72,113.89 25.82,28.37 60.47,42.58 103.93,42.58zm685.69 -424.15l0 366.62c0,56.74 -15.98,100.46 -47.94,131.15 -31.96,30.68 -75.03,46.02 -129.23,46.02 -56.77,0 -102.27,-16.11 -136.53,-48.32 -34.26,-32.2 -51.39,-77.98 -51.39,-137.3l130.4 0c0,22.51 4.59,39.5 13.8,51.02 9.2,11.5 22.5,17.25 39.88,17.25 15.85,0 28.13,-5.12 36.81,-15.33 8.69,-10.23 13.05,-25.08 13.05,-44.49l0 -366.62 131.15 0zm237 105.07l0 108.92 175.64 0 0 101.24 -175.64 0 0 118.11 198.65 0 0 105.08 -329.81 0 0 -538.42 329.81 0 0 105.07 -198.65 0zm261.55 163.37c0,-53.17 11.5,-100.6 34.52,-142.28 23,-41.66 55.09,-74.14 96.25,-97.41 41.17,-23.26 87.82,-34.9 139.97,-34.9 63.93,0 118.63,16.87 164.14,50.63 45.51,33.75 75.94,79.77 91.28,138.06l-144.2 0c-10.74,-22.5 -25.95,-39.64 -45.64,-51.39 -19.68,-11.76 -42.05,-17.65 -67.1,-17.65 -40.4,0 -73.13,14.07 -98.18,42.2 -25.05,28.12 -37.58,65.7 -37.58,112.74 0,47.04 12.53,84.63 37.58,112.75 25.05,28.11 57.78,42.17 98.18,42.17 25.05,0 47.42,-5.87 67.1,-17.63 19.69,-11.76 34.9,-28.89 45.64,-51.39l144.2 0c-15.34,58.3 -45.77,104.19 -91.28,137.68 -45.51,33.49 -100.21,50.24 -164.14,50.24 -52.15,0 -98.8,-11.63 -139.97,-34.9 -41.16,-23.26 -73.25,-55.61 -96.25,-97.03 -23.02,-41.41 -34.52,-88.72 -34.52,-141.89zm994.02 -268.44l0 105.07 -142.66 0 0 433.35 -131.15 0 0 -433.35 -142.67 0 0 -105.07 416.48 0zm-3216.77 1179.21c-39.36,0 -74.64,-6.39 -105.84,-19.17 -31.18,-12.79 -56.12,-31.72 -74.77,-56.76 -18.68,-25.05 -28.52,-55.22 -29.53,-90.52l139.57 0c2.05,19.95 8.96,35.17 20.72,45.66 11.76,10.47 27.11,15.72 46.02,15.72 19.43,0 34.78,-4.48 46.02,-13.44 11.24,-8.94 16.87,-21.34 16.87,-37.19 0,-13.29 -4.47,-24.29 -13.42,-32.98 -8.94,-8.69 -19.95,-15.85 -32.98,-21.48 -13.05,-5.63 -31.57,-12.02 -55.6,-19.17 -34.78,-10.75 -63.16,-21.47 -85.15,-32.22 -21.98,-10.73 -40.89,-26.58 -56.75,-47.54 -15.85,-20.97 -23.78,-48.33 -23.78,-82.08 0,-50.11 18.16,-89.35 54.46,-117.74 36.3,-28.38 83.59,-42.55 141.89,-42.55 59.33,0 107.12,14.17 143.43,42.55 36.3,28.39 55.73,67.88 58.3,118.51l-141.91 0c-1.01,-17.38 -7.4,-31.06 -19.17,-41.04 -11.75,-9.97 -26.84,-14.95 -45.24,-14.95 -15.85,0 -28.65,4.22 -38.35,12.66 -9.72,8.43 -14.59,20.57 -14.59,36.42 0,17.4 8.19,30.94 24.55,40.67 16.37,9.7 41.94,20.19 76.7,31.44 34.77,11.75 63.03,23.01 84.76,33.74 21.73,10.75 40.51,26.33 56.36,46.79 15.87,20.45 23.8,46.79 23.8,79.01 0,30.67 -7.8,58.55 -23.41,83.59 -15.59,25.06 -38.21,45 -67.88,59.83 -29.65,14.83 -64.68,22.24 -105.08,22.24zm408.04 -543.8l0 538.44 -131.16 0 0 -538.44 131.16 0zm424.91 538.44l-109.67 -164.91 -96.64 164.91 -148.8 0 172.57 -273.83 -176.4 -264.61 152.63 0 108.14 162.6 95.11 -162.6 148.8 0 -171.04 271.52 177.95 266.92 -152.65 0zm605.93 -538.44l0 105.08 -142.66 0 0 433.36 -131.15 0 0 -433.36 -142.67 0 0 -105.08 416.48 0zm197.12 105.08l0 108.91 175.64 0 0 101.25 -175.64 0 0 118.11 198.65 0 0 105.09 -329.81 0 0 -538.44 329.81 0 0 105.08 -198.65 0zm414.94 0l0 108.91 175.64 0 0 101.25 -175.64 0 0 118.11 198.65 0 0 105.09 -329.81 0 0 -538.44 329.81 0 0 105.08 -198.65 0zm765.46 433.36l-131.16 0 -219.36 -332.12 0 332.12 -131.15 0 0 -538.44 131.15 0 219.36 333.64 0 -333.64 131.16 0 0 538.44zm823.23 -1181.53l224.71 0 0 224.71 -224.71 0 0 -224.71zm962.17 962.17l224.72 0 0 224.72 -224.72 0 0 -224.72zm-320.72 0l224.71 0 0 224.72 -224.71 0 0 -224.72zm-320.73 0l224.71 0 0 224.72 -224.71 0 0 -224.72zm-320.72 0l224.71 0 0 224.72 -224.71 0 0 -224.72zm962.17 -320.72l224.72 0 0 224.71 -224.72 0 0 -224.71zm-320.72 0l224.71 0 0 224.71 -224.71 0 0 -224.71zm-320.73 0l224.71 0 0 224.71 -224.71 0 0 -224.71zm-320.72 0l224.71 0 0 224.71 -224.71 0 0 -224.71zm962.17 -320.73l224.72 0 0 224.71 -224.72 0 0 -224.71zm-320.72 0l224.71 0 0 224.71 -224.71 0 0 -224.71zm-320.73 0l224.71 0 0 224.71 -224.71 0 0 -224.71zm-320.72 0l224.71 0 0 224.71 -224.71 0 0 -224.71zm962.17 -320.72l224.72 0 0 224.71 -224.72 0 0 -224.71zm-320.72 0l224.71 0 0 224.71 -224.71 0 0 -224.71zm-320.73 0l224.71 0 0 224.71 -224.71 0 0 -224.71z"/>
 </g>
</svg>
