<?xml version="1.0" encoding="UTF-8"?>
<svg id="Layer_2" data-name="Layer 2" xmlns="http://www.w3.org/2000/svg" viewBox="0 0 180.41 71.39">
  <defs>
    <style>
      .cls-1 {
        fill: #fff;
        stroke-width: 0px;
      }
    </style>
  </defs>
  <g id="Layer_1-2" data-name="Layer 1">
    <g>
      <g>
        <path class="cls-1" d="m70.65,16.54h.14v.38h-2.11c-1.62,0-2.77-.92-3.46-2.76l-1.9-5.06h-4.7l-1.73,5.95c-.29.99.2,1.49,1.46,1.49h.22v.38h-3.77v-.38h.36c.37,0,.65-.13.84-.38.19-.26.35-.62.48-1.1l3.79-13.06c.11-.38,0-.73-.34-1.03-.34-.3-.71-.46-1.13-.46h-.22V.12h3c1.12,0,1.94.71,2.47,2.14l4.9,13.1c.14.37.36.66.66.86.3.21.64.31,1.02.31Zm-11.93-7.82h4.46l-2.52-6.72-1.94,6.72Z"/>
        <path class="cls-1" d="m71.41,16.92v-.38h.22c.4,0,.74-.14,1.03-.43s.43-.64.43-1.06V1.99c0-.42-.13-.77-.4-1.06-.26-.29-.6-.43-1-.43h-.22V.12h2.14c.77,0,1.39.22,1.86.66.47.44,1,1.14,1.57,2.1l7.34,12.12V1.99c0-.42-.14-.77-.43-1.06-.29-.29-.64-.43-1.06-.43h-.22V.12h3.77v.38h-.22c-.4,0-.74.14-1.03.43-.29.29-.43.64-.43,1.06v13.06c0,.42.14.77.43,1.06.29.29.63.43,1.03.43h.22v.38h-3c-.51,0-.94-.17-1.28-.5-.34-.34-.74-.88-1.19-1.63l-7.49-12.38v12.65c0,.42.14.77.43,1.06s.63.43,1.03.43h.22v.38h-3.77Z"/>
        <path class="cls-1" d="m87.73,16.92v-.38h.22c.4,0,.74-.14,1.03-.43s.43-.64.43-1.06V1.99c0-.42-.14-.77-.43-1.06s-.63-.43-1.03-.43h-.22V.12h6.74v.38h-.22c-.42,0-.77.14-1.06.43-.29.29-.43.64-.43,1.06v13.06c0,.42.14.77.43,1.06.29.29.64.43,1.06.43h.22v.38h-6.74Z"/>
        <path class="cls-1" d="m107.27,4.82l-.12.34-.58-.29.34-.82c.14-.45.2-.84.17-1.18-.03-.34-.17-.64-.42-.9-.25-.26-.53-.48-.84-.66-.31-.18-.67-.32-1.08-.44-.41-.12-.79-.21-1.14-.26-.35-.06-.7-.09-1.03-.11-.72-.03-1.35.08-1.9.32s-.94.56-1.18.95c-.24.38-.33.82-.26,1.31.06.49.3.93.72,1.33.37.35.88.72,1.55,1.12.66.39,1.32.74,1.97,1.06.65.31,1.32.68,2.03,1.1.7.42,1.32.85,1.84,1.27.52.42.95.95,1.28,1.57.34.62.5,1.3.5,2.02-.02.75-.21,1.42-.58,2.02-.37.59-.84,1.06-1.43,1.42-.58.35-1.22.62-1.91.79s-1.38.26-2.09.26c-.46,0-1-.03-1.6-.1-.6-.06-1.26-.17-1.97-.32-.71-.15-1.33-.38-1.86-.68-.53-.3-.83-.66-.91-1.08l-.67-3.19h.67l.43.82c1.31,2.59,3.19,3.93,5.64,4.01.86.03,1.58-.11,2.16-.42.58-.31.95-.7,1.13-1.18.18-.47.22-.98.12-1.52-.1-.54-.33-1.05-.7-1.51-.34-.42-.82-.84-1.46-1.26-.64-.42-1.3-.8-1.98-1.12-.68-.32-1.38-.69-2.11-1.1-.73-.42-1.37-.83-1.93-1.24-.56-.41-1.02-.9-1.39-1.48-.37-.58-.55-1.19-.55-1.85s.2-1.3.6-1.82c.4-.53.93-.93,1.58-1.2s1.33-.47,2.02-.6c.69-.13,1.4-.19,2.14-.19.8,0,1.59.08,2.38.25.78.17,1.38.32,1.78.46.4.14.81.17,1.22.11.42-.06.79-.3,1.13-.7h.6c-.05.08-.24.43-.56,1.06-.33.62-.56,1.07-.7,1.34-.14.27-.32.64-.54,1.12-.22.47-.39.87-.5,1.19Z"/>
        <path class="cls-1" d="m125.46,16.54h.14v.38h-2.11c-1.62,0-2.77-.92-3.46-2.76l-1.9-5.06h-4.7l-1.73,5.95c-.29.99.2,1.49,1.46,1.49h.22v.38h-3.77v-.38h.36c.37,0,.65-.13.84-.38.19-.26.35-.62.48-1.1l3.79-13.06c.11-.38,0-.73-.34-1.03-.34-.3-.71-.46-1.13-.46h-.22V.12h3c1.12,0,1.94.71,2.47,2.14l4.9,13.1c.14.37.36.66.66.86.3.21.64.31,1.02.31Zm-11.93-7.82h4.46l-2.52-6.72-1.94,6.72Z"/>
      </g>
      <path class="cls-1" d="m93.56,36.89c.49,1.12.65,2.08.47,2.9-.18.81-.64,1.45-1.4,1.91s-1.72.69-2.9.69c-1.41,0-2.62-.27-3.62-.82-1-.55-1.59-1.33-1.76-2.34-.09-.47-.06-.94.1-1.41.16-.47.41-.91.75-1.32.34-.4.71-.77,1.11-1.09.4-.32.84-.62,1.32-.9-.73-.27-1.32-.69-1.78-1.26-.46-.56-.63-1.16-.53-1.8.08-.44.28-.82.62-1.14.33-.31.74-.54,1.22-.69.48-.15.96-.25,1.43-.32.47-.06.96-.09,1.47-.08,1.58.02,2.77.36,3.57,1.03.64.54.79,1.09.44,1.68-.36.62-1.22,1.1-2.56,1.45.48-.28.83-.6,1.05-.96s.3-.69.25-1.01c-.06-.32-.2-.62-.44-.89-.23-.27-.57-.49-1-.66-.43-.16-.91-.25-1.44-.25s-1.04.11-1.48.32c-.44.22-.76.49-.97.82-.21.33-.28.71-.22,1.13.06.42.27.81.65,1.18.17.17.35.32.53.44.18.13.38.23.59.31.21.08.39.14.54.19.15.05.35.08.61.09.26.02.43.03.53.03.1,0,.29,0,.58,0,.29,0,.46,0,.5,0-.37.16-.61.27-.74.32s-.4.18-.81.37c-.41.19-.73.36-.97.52-.23.16-.52.35-.85.58-.34.23-.62.48-.86.74s-.44.55-.6.85c-.22.38-.33.78-.35,1.2s.05.82.21,1.19c.15.37.37.71.64,1.03s.61.56,1.02.75c.4.19.83.29,1.27.32.88.03,1.64-.13,2.3-.48.66-.35,1.1-.89,1.34-1.6s.1-1.61-.41-2.69c-.05.02-.21.12-.5.3-.29.18-.49.3-.62.37-.32.18-.58.34-.79.49-.21.14-.43.32-.65.53-.22.21-.38.41-.48.61-.1.19-.14.42-.13.67.01.26.1.52.27.78-.4-.13-.73-.36-1-.72-.27-.35-.38-.71-.35-1.08.02-.21.1-.42.24-.63.14-.22.29-.4.45-.56.17-.16.39-.34.67-.53.28-.19.51-.34.7-.45.19-.11.44-.25.75-.43.31-.18.53-.29.64-.35.06-.03.15-.09.27-.15.23-.14.41-.24.54-.32.13-.08.32-.2.56-.35.24-.15.42-.29.56-.4.13-.11.28-.26.45-.43s.28-.33.33-.48c.05-.15.08-.31.09-.48.01-.17-.04-.34-.15-.51-.11-.17-.26-.34-.47-.51.64.21,1.1.46,1.38.76.28.3.39.61.33.93-.06.32-.21.65-.46.99-.25.34-.56.65-.92.92-.36.27-.75.51-1.15.7Z"/>
      <g>
        <path class="cls-1" d="m22.54,71.01h.22c.4,0,.74-.14,1.03-.43s.43-.64.43-1.06v-13.06c0-.42-.14-.77-.43-1.06s-.63-.43-1.03-.43h-.22v-.38h8.66c.85,0,1.64.19,2.36.56s1.31.92,1.74,1.62c.42.7.62,1.47.62,2.3s-.21,1.61-.62,2.33c-.66,1.07-1.73,1.73-3.22,1.97,1.6,0,2.74.92,3.41,2.76l.96,2.62s.03.09.05.17c.21.56.36.96.47,1.19.1.23.24.44.4.62.16.18.35.28.58.28h.22v.38h-2.18c-1.1,0-1.93-.71-2.47-2.14l-1.01-2.59c-.03-.08-.07-.19-.12-.34-.16-.38-.28-.67-.35-.86-.07-.19-.18-.43-.34-.72s-.3-.5-.43-.64c-.14-.14-.3-.26-.5-.37-.2-.11-.42-.17-.66-.17h-2.52v5.95c0,.42.14.77.43,1.06.29.29.64.43,1.06.43h.22v.38h-6.74v-.38Zm7.75-16.03h-1.22c-.42,0-.77.14-1.06.43-.29.29-.43.64-.43,1.06v6.72h2.71c.59,0,1.11-.2,1.56-.61.45-.41.77-.92.96-1.52.19-.61.29-1.26.29-1.97s-.1-1.36-.29-1.97-.51-1.12-.96-1.52c-.45-.41-.97-.61-1.56-.61Z"/>
        <path class="cls-1" d="m54.24,71.01h.14v.38h-2.11c-1.62,0-2.77-.92-3.46-2.76l-1.9-5.06h-4.7l-1.73,5.95c-.29.99.2,1.49,1.46,1.49h.22v.38h-3.77v-.38h.36c.37,0,.65-.13.84-.38.19-.26.35-.62.48-1.1l3.79-13.06c.11-.38,0-.73-.34-1.03-.34-.3-.71-.46-1.13-.46h-.22v-.38h3c1.12,0,1.94.71,2.47,2.14l4.9,13.1c.14.37.36.66.66.86.3.21.64.31,1.02.31Zm-11.93-7.82h4.46l-2.52-6.72-1.94,6.72Z"/>
        <path class="cls-1" d="m55.01,71.39v-.38h.22c.4,0,.74-.14,1.03-.43s.43-.64.43-1.06v-13.06c0-.37-.16-.71-.47-1.02-.31-.31-.64-.47-1-.47h-.22v-.38h1.97c.82,0,1.49.24,2.03.72.54.48,1,1.16,1.4,2.04l4.46,9.77,4.56-12.53h4.66v.38h-.22c-.4,0-.75.14-1.04.43s-.44.64-.44,1.06v13.06c0,.42.15.77.44,1.06s.64.43,1.04.43h.22v.38h-6.74v-.38h.22c.4,0,.74-.14,1.03-.43s.43-.64.43-1.06v-12.72l-5.14,14.21h-.43l-6.36-14.06v12.58c0,.42.14.77.43,1.06s.63.43,1.03.43h.22v.38h-3.77Z"/>
        <path class="cls-1" d="m90.58,71.01h.14v.38h-2.11c-1.62,0-2.77-.92-3.46-2.76l-1.9-5.06h-4.7l-1.73,5.95c-.29.99.2,1.49,1.46,1.49h.22v.38h-3.77v-.38h.36c.37,0,.65-.13.84-.38.19-.26.35-.62.48-1.1l3.79-13.06c.11-.38,0-.73-.34-1.03-.34-.3-.71-.46-1.13-.46h-.22v-.38h3c1.12,0,1.94.71,2.47,2.14l4.9,13.1c.14.37.36.66.66.86.3.21.64.31,1.02.31Zm-11.93-7.82h4.46l-2.52-6.72-1.94,6.72Z"/>
        <path class="cls-1" d="m98.09,71.39h-6.74v-.38h.22c.4,0,.74-.14,1.03-.43s.43-.64.43-1.06v-13.06c0-.42-.14-.77-.43-1.06s-.63-.43-1.03-.43h-.22v-.38h6.74c1.3,0,2.48.24,3.54.72,1.06.48,1.92,1.12,2.57,1.91s1.15,1.69,1.51,2.69c.36,1,.54,2.03.55,3.08,0,1.06-.16,2.08-.52,3.08s-.86,1.9-1.51,2.69c-.66.79-1.52,1.43-2.58,1.91-1.06.48-2.25.72-3.56.72Zm0-16.42h-.22c-.42,0-.77.14-1.06.43-.29.29-.43.64-.43,1.06v13.06c0,.42.14.77.43,1.06.29.29.64.43,1.06.43h.22c.8,0,1.53-.23,2.18-.7.66-.46,1.18-1.07,1.58-1.81.4-.74.71-1.6.92-2.56.22-.96.32-1.94.32-2.95s-.11-1.99-.32-2.95-.52-1.81-.92-2.56c-.4-.74-.93-1.35-1.58-1.81-.66-.46-1.38-.7-2.18-.7Z"/>
        <path class="cls-1" d="m107.28,71.39v-.38h.22c.4,0,.74-.14,1.03-.43s.43-.64.43-1.06v-13.06c0-.42-.14-.77-.43-1.06s-.63-.43-1.03-.43h-.22v-.38h6.74v.38h-.22c-.42,0-.77.14-1.06.43-.29.29-.43.64-.43,1.06v6.72h8.18v-6.72c0-.42-.14-.77-.43-1.06s-.63-.43-1.03-.43h-.22v-.38h6.74v.38h-.22c-.42,0-.77.14-1.06.43s-.43.64-.43,1.06v13.06c0,.42.14.77.43,1.06s.64.43,1.06.43h.22v.38h-6.74v-.38h.22c.4,0,.74-.14,1.03-.43s.43-.64.43-1.06v-5.95h-8.18v5.95c0,.42.14.77.43,1.06.29.29.64.43,1.06.43h.22v.38h-6.74Z"/>
        <path class="cls-1" d="m142.06,71.01h.14v.38h-2.11c-1.62,0-2.77-.92-3.46-2.76l-1.9-5.06h-4.7l-1.73,5.95c-.29.99.2,1.49,1.46,1.49h.22v.38h-3.77v-.38h.36c.37,0,.65-.13.84-.38.19-.26.35-.62.48-1.1l3.79-13.06c.11-.38,0-.73-.34-1.03-.34-.3-.71-.46-1.13-.46h-.22v-.38h3c1.12,0,1.94.71,2.47,2.14l4.9,13.1c.14.37.36.66.66.86.3.21.64.31,1.02.31Zm-11.93-7.82h4.46l-2.52-6.72-1.94,6.72Z"/>
        <path class="cls-1" d="m142.82,71.39v-.38h.22c.4,0,.74-.14,1.03-.43s.43-.64.43-1.06v-13.06c0-.42-.13-.77-.4-1.06-.26-.29-.6-.43-1-.43h-.22v-.38h2.14c.77,0,1.39.22,1.86.66.47.44,1,1.14,1.57,2.1l7.34,12.12v-13.01c0-.42-.14-.77-.43-1.06-.29-.29-.64-.43-1.06-.43h-.22v-.38h3.77v.38h-.22c-.4,0-.74.14-1.03.43-.29.29-.43.64-.43,1.06v13.06c0,.42.14.77.43,1.06.29.29.63.43,1.03.43h.22v.38h-3c-.51,0-.94-.17-1.28-.5-.34-.34-.74-.88-1.19-1.63l-7.49-12.38v12.65c0,.42.14.77.43,1.06s.63.43,1.03.43h.22v.38h-3.77Z"/>
      </g>
      <g>
        <path class="cls-1" d="m0,35.82c9.01-.84,22.73-.4,31.89-.5,9.2.09,22.83-.33,31.89.5-9.01.83-22.73.41-31.89.5-9.2-.1-22.83.34-31.89-.5h0Z"/>
        <path class="cls-1" d="m116.63,35.82c9.01-.84,22.73-.4,31.89-.5,9.2.09,22.83-.33,31.89.5-9.01.83-22.73.41-31.89.5-9.2-.1-22.83.34-31.89-.5h0Z"/>
      </g>
    </g>
  </g>
</svg>