<?xml version="1.0" encoding="UTF-8"?>
<svg id="Layer_2" data-name="Layer 2" xmlns="http://www.w3.org/2000/svg" viewBox="0 0 180.41 73.08">
  <defs>
    <style>
      .cls-1 {
        fill: #fff;
        stroke-width: 0px;
      }
    </style>
  </defs>
  <g id="Layer_1-2" data-name="Layer 1">
    <g>
      <g>
        <g>
          <path class="cls-1" d="m70.65,16.54h.14v.38h-2.11c-1.62,0-2.77-.92-3.46-2.76l-1.9-5.06h-4.7l-1.73,5.95c-.29.99.2,1.49,1.46,1.49h.22v.38h-3.77v-.38h.36c.37,0,.65-.13.84-.38.19-.26.35-.62.48-1.1l3.79-13.06c.11-.38,0-.73-.34-1.03-.34-.3-.71-.46-1.13-.46h-.22V.12h3c1.12,0,1.94.71,2.47,2.14l4.9,13.1c.14.37.36.66.66.86.3.21.64.31,1.02.31Zm-11.93-7.82h4.46l-2.52-6.72-1.94,6.72Z"/>
          <path class="cls-1" d="m71.41,16.92v-.38h.22c.4,0,.74-.14,1.03-.43s.43-.64.43-1.06V1.99c0-.42-.13-.77-.4-1.06-.26-.29-.6-.43-1-.43h-.22V.12h2.14c.77,0,1.39.22,1.86.66.47.44,1,1.14,1.57,2.1l7.34,12.12V1.99c0-.42-.14-.77-.43-1.06-.29-.29-.64-.43-1.06-.43h-.22V.12h3.77v.38h-.22c-.4,0-.74.14-1.03.43-.29.29-.43.64-.43,1.06v13.06c0,.42.14.77.43,1.06.29.29.63.43,1.03.43h.22v.38h-3c-.51,0-.94-.17-1.28-.5-.34-.34-.74-.88-1.19-1.63l-7.49-12.38v12.65c0,.42.14.77.43,1.06s.63.43,1.03.43h.22v.38h-3.77Z"/>
          <path class="cls-1" d="m87.73,16.92v-.38h.22c.4,0,.74-.14,1.03-.43s.43-.64.43-1.06V1.99c0-.42-.14-.77-.43-1.06s-.63-.43-1.03-.43h-.22V.12h6.74v.38h-.22c-.42,0-.77.14-1.06.43-.29.29-.43.64-.43,1.06v13.06c0,.42.14.77.43,1.06.29.29.64.43,1.06.43h.22v.38h-6.74Z"/>
          <path class="cls-1" d="m107.27,4.82l-.12.34-.58-.29.34-.82c.14-.45.2-.84.17-1.18-.03-.34-.17-.64-.42-.9-.25-.26-.53-.48-.84-.66-.31-.18-.67-.32-1.08-.44-.41-.12-.79-.21-1.14-.26-.35-.06-.7-.09-1.03-.11-.72-.03-1.35.08-1.9.32s-.94.56-1.18.95c-.24.38-.33.82-.26,1.31.06.49.3.93.72,1.33.37.35.88.72,1.55,1.12.66.39,1.32.74,1.97,1.06.65.31,1.32.68,2.03,1.1.7.42,1.32.85,1.84,1.27.52.42.95.95,1.28,1.57.34.62.5,1.3.5,2.02-.02.75-.21,1.42-.58,2.02-.37.59-.84,1.06-1.43,1.42-.58.35-1.22.62-1.91.79s-1.38.26-2.09.26c-.46,0-1-.03-1.6-.1-.6-.06-1.26-.17-1.97-.32-.71-.15-1.33-.38-1.86-.68-.53-.3-.83-.66-.91-1.08l-.67-3.19h.67l.43.82c1.31,2.59,3.19,3.93,5.64,4.01.86.03,1.58-.11,2.16-.42.58-.31.95-.7,1.13-1.18.18-.47.22-.98.12-1.52-.1-.54-.33-1.05-.7-1.51-.34-.42-.82-.84-1.46-1.26-.64-.42-1.3-.8-1.98-1.12-.68-.32-1.38-.69-2.11-1.1-.73-.42-1.37-.83-1.93-1.24-.56-.41-1.02-.9-1.39-1.48-.37-.58-.55-1.19-.55-1.85s.2-1.3.6-1.82c.4-.53.93-.93,1.58-1.2s1.33-.47,2.02-.6c.69-.13,1.4-.19,2.14-.19.8,0,1.59.08,2.38.25.78.17,1.38.32,1.78.46.4.14.81.17,1.22.11.42-.06.79-.3,1.13-.7h.6c-.05.08-.24.43-.56,1.06-.33.62-.56,1.07-.7,1.34-.14.27-.32.64-.54,1.12-.22.47-.39.87-.5,1.19Z"/>
          <path class="cls-1" d="m125.46,16.54h.14v.38h-2.11c-1.62,0-2.77-.92-3.46-2.76l-1.9-5.06h-4.7l-1.73,5.95c-.29.99.2,1.49,1.46,1.49h.22v.38h-3.77v-.38h.36c.37,0,.65-.13.84-.38.19-.26.35-.62.48-1.1l3.79-13.06c.11-.38,0-.73-.34-1.03-.34-.3-.71-.46-1.13-.46h-.22V.12h3c1.12,0,1.94.71,2.47,2.14l4.9,13.1c.14.37.36.66.66.86.3.21.64.31,1.02.31Zm-11.93-7.82h4.46l-2.52-6.72-1.94,6.72Z"/>
        </g>
        <path class="cls-1" d="m92.64,26.94c.35.81.47,1.51.34,2.1-.13.59-.47,1.05-1.01,1.39s-1.25.5-2.1.5c-1.02,0-1.9-.2-2.62-.59-.73-.4-1.15-.96-1.27-1.69-.07-.34-.04-.68.07-1.02.12-.34.3-.66.54-.95.25-.29.52-.56.8-.79.29-.24.61-.45.95-.65-.53-.2-.96-.5-1.29-.91-.33-.41-.46-.84-.38-1.31.06-.32.21-.6.45-.82.24-.23.53-.39.88-.5.35-.11.69-.18,1.03-.23.34-.05.69-.06,1.06-.06,1.15.02,2.01.26,2.59.74.46.39.57.79.32,1.21-.26.45-.88.8-1.86,1.05.35-.21.6-.44.76-.69s.22-.5.18-.73c-.04-.23-.15-.45-.32-.64-.17-.2-.41-.36-.72-.48-.31-.12-.66-.18-1.04-.18s-.75.08-1.07.24c-.32.16-.55.35-.7.59-.15.24-.2.51-.16.82.04.31.2.59.47.85.12.12.25.23.38.32.13.09.27.17.43.22.15.06.28.1.39.14.11.03.25.06.44.07.19.01.31.02.38.02.07,0,.21,0,.42,0,.21,0,.33,0,.36,0-.26.12-.44.19-.54.24s-.29.13-.59.27c-.3.14-.53.26-.7.38-.17.12-.38.26-.62.42-.24.17-.45.34-.62.54s-.32.4-.43.61c-.16.27-.24.56-.25.87s.04.59.15.86c.11.27.27.52.46.74s.44.41.74.54c.29.14.6.21.92.23.63.02,1.19-.09,1.66-.35.47-.26.8-.64.97-1.16s.07-1.16-.3-1.95c-.03.02-.15.09-.36.22-.21.13-.35.22-.45.27-.23.13-.42.25-.58.35-.15.1-.31.23-.47.38-.16.15-.28.3-.35.44-.07.14-.1.3-.09.49,0,.19.07.37.2.56-.29-.09-.53-.26-.72-.52-.19-.26-.28-.52-.25-.78.02-.15.07-.3.17-.46.1-.16.21-.29.33-.41.12-.12.28-.24.48-.38.2-.14.37-.25.51-.33.14-.08.32-.18.54-.31.23-.13.38-.21.46-.25.04-.02.11-.06.2-.11.17-.1.29-.18.39-.24.09-.06.23-.14.4-.25.17-.11.31-.21.4-.29.09-.08.2-.19.33-.31s.2-.24.24-.35c.04-.11.06-.22.07-.35,0-.12-.03-.25-.11-.37-.08-.12-.19-.25-.34-.37.46.15.79.33,1,.55.2.22.28.44.24.67-.04.23-.15.47-.33.72-.18.25-.4.47-.67.67-.26.2-.54.37-.83.51Z"/>
        <g>
          <path class="cls-1" d="m22.54,51.7h.22c.4,0,.74-.14,1.03-.43s.43-.64.43-1.06v-13.06c0-.42-.14-.77-.43-1.06s-.63-.43-1.03-.43h-.22v-.38h8.66c.85,0,1.64.19,2.36.56s1.31.92,1.74,1.62c.42.7.62,1.47.62,2.3s-.21,1.61-.62,2.33c-.66,1.07-1.73,1.73-3.22,1.97,1.6,0,2.74.92,3.41,2.76l.96,2.62s.03.09.05.17c.21.56.36.96.47,1.19.1.23.24.44.4.62.16.18.35.28.58.28h.22v.38h-2.18c-1.1,0-1.93-.71-2.47-2.14l-1.01-2.59c-.03-.08-.07-.19-.12-.34-.16-.38-.28-.67-.35-.86-.07-.19-.18-.43-.34-.72s-.3-.5-.43-.64c-.14-.14-.3-.26-.5-.37-.2-.11-.42-.17-.66-.17h-2.52v5.95c0,.42.14.77.43,1.06.29.29.64.43,1.06.43h.22v.38h-6.74v-.38Zm7.75-16.03h-1.22c-.42,0-.77.14-1.06.43-.29.29-.43.64-.43,1.06v6.72h2.71c.59,0,1.11-.2,1.56-.61.45-.41.77-.92.96-1.52.19-.61.29-1.26.29-1.97s-.1-1.36-.29-1.97-.51-1.12-.96-1.52c-.45-.41-.97-.61-1.56-.61Z"/>
          <path class="cls-1" d="m54.24,51.7h.14v.38h-2.11c-1.62,0-2.77-.92-3.46-2.76l-1.9-5.06h-4.7l-1.73,5.95c-.29.99.2,1.49,1.46,1.49h.22v.38h-3.77v-.38h.36c.37,0,.65-.13.84-.38.19-.26.35-.62.48-1.1l3.79-13.06c.11-.38,0-.73-.34-1.03-.34-.3-.71-.46-1.13-.46h-.22v-.38h3c1.12,0,1.94.71,2.47,2.14l4.9,13.1c.14.37.36.66.66.86.3.21.64.31,1.02.31Zm-11.93-7.82h4.46l-2.52-6.72-1.94,6.72Z"/>
          <path class="cls-1" d="m55.01,52.09v-.38h.22c.4,0,.74-.14,1.03-.43s.43-.64.43-1.06v-13.06c0-.37-.16-.71-.47-1.02-.31-.31-.64-.47-1-.47h-.22v-.38h1.97c.82,0,1.49.24,2.03.72.54.48,1,1.16,1.4,2.04l4.46,9.77,4.56-12.53h4.66v.38h-.22c-.4,0-.75.14-1.04.43s-.44.64-.44,1.06v13.06c0,.42.15.77.44,1.06s.64.43,1.04.43h.22v.38h-6.74v-.38h.22c.4,0,.74-.14,1.03-.43s.43-.64.43-1.06v-12.72l-5.14,14.21h-.43l-6.36-14.06v12.58c0,.42.14.77.43,1.06s.63.43,1.03.43h.22v.38h-3.77Z"/>
          <path class="cls-1" d="m90.58,51.7h.14v.38h-2.11c-1.62,0-2.77-.92-3.46-2.76l-1.9-5.06h-4.7l-1.73,5.95c-.29.99.2,1.49,1.46,1.49h.22v.38h-3.77v-.38h.36c.37,0,.65-.13.84-.38.19-.26.35-.62.48-1.1l3.79-13.06c.11-.38,0-.73-.34-1.03-.34-.3-.71-.46-1.13-.46h-.22v-.38h3c1.12,0,1.94.71,2.47,2.14l4.9,13.1c.14.37.36.66.66.86.3.21.64.31,1.02.31Zm-11.93-7.82h4.46l-2.52-6.72-1.94,6.72Z"/>
          <path class="cls-1" d="m98.09,52.09h-6.74v-.38h.22c.4,0,.74-.14,1.03-.43s.43-.64.43-1.06v-13.06c0-.42-.14-.77-.43-1.06s-.63-.43-1.03-.43h-.22v-.38h6.74c1.3,0,2.48.24,3.54.72,1.06.48,1.92,1.12,2.57,1.91s1.15,1.69,1.51,2.69c.36,1,.54,2.03.55,3.08,0,1.06-.16,2.08-.52,3.08s-.86,1.9-1.51,2.69c-.66.79-1.52,1.43-2.58,1.91-1.06.48-2.25.72-3.56.72Zm0-16.42h-.22c-.42,0-.77.14-1.06.43-.29.29-.43.64-.43,1.06v13.06c0,.42.14.77.43,1.06.29.29.64.43,1.06.43h.22c.8,0,1.53-.23,2.18-.7.66-.46,1.18-1.07,1.58-1.81.4-.74.71-1.6.92-2.56.22-.96.32-1.94.32-2.95s-.11-1.99-.32-2.95-.52-1.81-.92-2.56c-.4-.74-.93-1.35-1.58-1.81-.66-.46-1.38-.7-2.18-.7Z"/>
          <path class="cls-1" d="m107.28,52.09v-.38h.22c.4,0,.74-.14,1.03-.43s.43-.64.43-1.06v-13.06c0-.42-.14-.77-.43-1.06s-.63-.43-1.03-.43h-.22v-.38h6.74v.38h-.22c-.42,0-.77.14-1.06.43-.29.29-.43.64-.43,1.06v6.72h8.18v-6.72c0-.42-.14-.77-.43-1.06s-.63-.43-1.03-.43h-.22v-.38h6.74v.38h-.22c-.42,0-.77.14-1.06.43s-.43.64-.43,1.06v13.06c0,.42.14.77.43,1.06s.64.43,1.06.43h.22v.38h-6.74v-.38h.22c.4,0,.74-.14,1.03-.43s.43-.64.43-1.06v-5.95h-8.18v5.95c0,.42.14.77.43,1.06.29.29.64.43,1.06.43h.22v.38h-6.74Z"/>
          <path class="cls-1" d="m142.06,51.7h.14v.38h-2.11c-1.62,0-2.77-.92-3.46-2.76l-1.9-5.06h-4.7l-1.73,5.95c-.29.99.2,1.49,1.46,1.49h.22v.38h-3.77v-.38h.36c.37,0,.65-.13.84-.38.19-.26.35-.62.48-1.1l3.79-13.06c.11-.38,0-.73-.34-1.03-.34-.3-.71-.46-1.13-.46h-.22v-.38h3c1.12,0,1.94.71,2.47,2.14l4.9,13.1c.14.37.36.66.66.86.3.21.64.31,1.02.31Zm-11.93-7.82h4.46l-2.52-6.72-1.94,6.72Z"/>
          <path class="cls-1" d="m142.82,52.09v-.38h.22c.4,0,.74-.14,1.03-.43s.43-.64.43-1.06v-13.06c0-.42-.13-.77-.4-1.06-.26-.29-.6-.43-1-.43h-.22v-.38h2.14c.77,0,1.39.22,1.86.66.47.44,1,1.14,1.57,2.1l7.34,12.12v-13.01c0-.42-.14-.77-.43-1.06-.29-.29-.64-.43-1.06-.43h-.22v-.38h3.77v.38h-.22c-.4,0-.74.14-1.03.43-.29.29-.43.64-.43,1.06v13.06c0,.42.14.77.43,1.06.29.29.63.43,1.03.43h.22v.38h-3c-.51,0-.94-.17-1.28-.5-.34-.34-.74-.88-1.19-1.63l-7.49-12.38v12.65c0,.42.14.77.43,1.06s.63.43,1.03.43h.22v.38h-3.77Z"/>
        </g>
        <g>
          <path class="cls-1" d="m0,26.16c9.01-.84,22.73-.4,31.89-.5,9.2.09,22.83-.33,31.89.5-9.01.83-22.73.41-31.89.5-9.2-.1-22.83.34-31.89-.5h0Z"/>
          <path class="cls-1" d="m116.63,26.16c9.01-.84,22.73-.4,31.89-.5,9.2.09,22.83-.33,31.89.5-9.01.83-22.73.41-31.89.5-9.2-.1-22.83.34-31.89-.5h0Z"/>
        </g>
      </g>
      <g>
        <path class="cls-1" d="m43.3,65.9c-.45-.3-.97-.46-1.54-.46s-1.09.15-1.54.46-.8.74-1.06,1.31c-.26.57-.39,1.25-.39,2.05s.13,1.49.39,2.05c.26.57.61,1,1.06,1.31s.97.46,1.54.46,1.09-.15,1.54-.46c.45-.3.81-.74,1.07-1.31.26-.57.39-1.25.39-2.05s-.13-1.49-.39-2.05c-.26-.57-.62-1-1.07-1.31Zm.39,5.06c-.19.46-.44.81-.77,1.05-.33.24-.72.36-1.16.36s-.81-.12-1.15-.36c-.34-.24-.6-.59-.78-1.05-.19-.46-.28-1.03-.28-1.7s.09-1.24.28-1.7c.19-.46.45-.81.78-1.05.34-.24.72-.36,1.15-.36s.83.12,1.16.36c.33.24.59.59.77,1.05s.28,1.03.28,1.7-.09,1.24-.28,1.7Z"/>
        <path class="cls-1" d="m55.03,68.87c-.46-.19-1.07-.28-1.82-.28h-.97l.25-2.39h3.44v-.69h-4.11l-.39,3.77h1.6c.64,0,1.14.06,1.5.19.36.13.62.31.78.54s.23.51.23.83c0,.46-.17.83-.5,1.11-.33.28-.82.42-1.45.42-.48,0-.92-.08-1.34-.25-.41-.16-.73-.37-.97-.62l-.38.61c.29.29.67.53,1.16.7.49.18,1,.26,1.53.26.62,0,1.12-.1,1.52-.3.4-.2.7-.47.9-.82.2-.35.3-.73.3-1.15,0-.44-.1-.83-.31-1.16-.2-.33-.53-.59-.99-.78Z"/>
        <path class="cls-1" d="m64.09,69.38c-.12-.07-.25-.11-.4-.11s-.28.04-.4.11c-.13.07-.22.17-.3.29s-.11.26-.11.41c0,.16.04.31.11.43.07.12.17.22.3.29.12.07.26.11.4.11s.27-.04.4-.11.22-.17.3-.29c.08-.12.11-.26.11-.43,0-.15-.04-.29-.11-.41s-.17-.22-.3-.29Z"/>
        <polygon class="cls-1" points="70.55 66.19 72.32 66.19 72.32 73.02 73.09 73.02 73.09 65.51 70.55 65.51 70.55 66.19"/>
        <path class="cls-1" d="m84.78,65.9c-.45-.3-.97-.46-1.54-.46s-1.09.15-1.55.46-.8.74-1.06,1.31c-.26.57-.39,1.25-.39,2.05s.13,1.49.39,2.05c.26.57.61,1,1.06,1.31s.97.46,1.55.46,1.09-.15,1.54-.46.81-.74,1.07-1.31c.26-.57.39-1.25.39-2.05s-.13-1.49-.39-2.05c-.26-.57-.62-1-1.07-1.31Zm.39,5.06c-.19.46-.44.81-.77,1.05-.33.24-.72.36-1.16.36s-.81-.12-1.15-.36c-.34-.24-.6-.59-.78-1.05-.19-.46-.28-1.03-.28-1.7s.09-1.24.28-1.7c.19-.46.45-.81.78-1.05.34-.24.72-.36,1.15-.36s.83.12,1.16.36c.33.24.59.59.77,1.05.19.46.28,1.03.28,1.7s-.09,1.24-.28,1.7Z"/>
        <path class="cls-1" d="m94.22,69.38c-.12-.07-.25-.11-.4-.11s-.28.04-.4.11-.22.17-.29.29-.11.26-.11.41c0,.16.04.31.11.43.07.12.17.22.29.29s.26.11.4.11.28-.04.4-.11c.12-.07.22-.17.29-.29.08-.12.11-.26.11-.43,0-.15-.04-.29-.11-.41-.07-.12-.17-.22-.29-.29Z"/>
        <path class="cls-1" d="m104.75,69.82c.34-.33.59-.62.77-.88.18-.26.3-.51.37-.75.07-.24.1-.48.1-.72,0-.41-.1-.78-.31-1.08-.2-.31-.49-.54-.86-.7s-.81-.24-1.32-.24c-.57,0-1.08.09-1.53.28s-.83.45-1.13.79l.55.47c.24-.29.53-.5.87-.63.34-.14.73-.2,1.17-.2.58,0,1.02.12,1.31.38.3.25.45.59.45,1.03,0,.16-.02.34-.08.53-.05.19-.15.38-.29.6-.14.21-.36.46-.64.74l-3.12,3.06v.55h5.27v-.69h-4.13l2.56-2.51Z"/>
        <path class="cls-1" d="m117.17,65.9c-.45-.3-.97-.46-1.54-.46s-1.09.15-1.54.46c-.45.3-.8.74-1.06,1.31-.26.57-.39,1.25-.39,2.05s.13,1.49.39,2.05c.26.57.61,1,1.06,1.31.45.3.97.46,1.54.46s1.09-.15,1.54-.46.81-.74,1.07-1.31c.26-.57.39-1.25.39-2.05s-.13-1.49-.39-2.05c-.26-.57-.62-1-1.07-1.31Zm.39,5.06c-.19.46-.44.81-.77,1.05s-.72.36-1.16.36-.81-.12-1.15-.36c-.34-.24-.6-.59-.78-1.05-.19-.46-.28-1.03-.28-1.7s.09-1.24.28-1.7c.19-.46.45-.81.78-1.05.34-.24.72-.36,1.15-.36s.83.12,1.16.36.59.59.77,1.05c.19.46.28,1.03.28,1.7s-.09,1.24-.28,1.7Z"/>
        <path class="cls-1" d="m128.64,69.82c.34-.33.59-.62.77-.88.18-.26.3-.51.37-.75.07-.24.1-.48.1-.72,0-.41-.1-.78-.31-1.08-.2-.31-.49-.54-.86-.7s-.81-.24-1.32-.24c-.57,0-1.08.09-1.53.28s-.83.45-1.13.79l.55.47c.24-.29.53-.5.87-.63.34-.14.73-.2,1.17-.2.58,0,1.02.12,1.31.38.3.25.45.59.45,1.03,0,.16-.02.34-.08.53-.05.19-.15.38-.29.6-.14.21-.36.46-.64.74l-3.12,3.06v.55h5.27v-.69h-4.13l2.56-2.51Z"/>
        <path class="cls-1" d="m141.34,69.64c-.2-.33-.53-.59-.99-.78s-1.07-.28-1.82-.28h-.97l.25-2.39h3.44v-.69h-4.11l-.39,3.77h1.6c.64,0,1.14.06,1.5.19.36.13.62.31.78.54.15.23.23.51.23.83,0,.46-.17.83-.5,1.11-.33.28-.82.42-1.45.42-.48,0-.92-.08-1.34-.25-.41-.16-.74-.37-.97-.62l-.38.61c.29.29.67.53,1.16.7.49.18,1,.26,1.53.26.62,0,1.12-.1,1.52-.3s.7-.47.9-.82c.2-.35.3-.73.3-1.15,0-.44-.1-.83-.31-1.16Z"/>
      </g>
    </g>
  </g>
</svg>